<?xml version="1.0" standalone="no"?>
<!DOCTYPE svg PUBLIC "-//W3C//DTD SVG 20010904//EN"
 "http://www.w3.org/TR/2001/REC-SVG-20010904/DTD/svg10.dtd">
<svg version="1.0" xmlns="http://www.w3.org/2000/svg"
 width="260.000000pt" height="260.000000pt" viewBox="0 0 260.000000 260.000000"
 preserveAspectRatio="xMidYMid meet">
<metadata>
Created by potrace 1.11, written by Peter Selinger 2001-2013
</metadata>
<g transform="translate(0.000000,260.000000) scale(0.100000,-0.100000)"
fill="#000000" stroke="none">
<path d="M1248 2555 c-18 -6 -136 -71 -263 -145 -126 -73 -306 -178 -400 -232
-93 -54 -177 -103 -185 -108 -8 -5 -40 -23 -70 -41 -30 -17 -66 -41 -78 -53
-52 -47 -52 -47 -52 -646 0 -307 3 -572 6 -590 4 -18 25 -50 47 -74 23 -22 40
-45 39 -49 -2 -5 2 -6 8 -2 8 5 368 -195 442 -246 15 -11 32 -19 38 -19 5 0
10 -4 10 -9 0 -5 11 -12 25 -15 16 -4 23 -11 19 -18 -4 -6 -3 -8 3 -5 6 4 48
-16 94 -43 46 -28 88 -50 92 -50 5 0 5 -6 1 -13 -4 -6 -4 -9 1 -5 10 10 210
-99 214 -117 2 -5 5 -12 8 -15 4 -3 3 0 0 7 -5 8 9 10 48 8 45 -2 63 2 91 21
19 13 37 24 40 24 2 0 22 11 44 25 22 14 40 22 40 18 0 -5 4 -3 8 3 4 6 27 21
52 35 25 13 48 28 51 33 4 5 12 5 19 1 8 -5 11 -4 7 2 -6 10 50 40 66 35 4 -1
6 1 5 5 -2 5 -1 8 2 8 3 0 20 10 37 23 18 13 38 20 43 17 6 -4 9 -1 8 5 -2 6
22 25 52 41 30 17 82 47 115 66 33 20 74 43 90 53 17 9 54 31 84 49 29 17 58
33 64 34 7 1 17 8 22 15 6 7 15 12 21 10 5 -2 20 7 33 19 13 12 27 20 31 18 5
-3 11 2 14 10 3 8 9 14 13 13 4 -2 8 -1 9 2 2 16 26 50 32 46 4 -2 8 6 9 17 6
72 7 1174 1 1170 -5 -2 -8 4 -8 14 0 26 -56 91 -96 111 -28 14 -406 232 -454
262 -75 47 -364 210 -371 210 -5 0 -9 5 -9 10 0 6 -6 10 -14 10 -8 0 -21 6
-28 13 -15 16 -82 40 -115 42 -12 1 -37 -3 -55 -10z"/>
</g>
</svg>
