<svg width="44px" height="44px" viewBox="0 0 44 44" version="1.1" xmlns="http://www.w3.org/2000/svg" xmlns:xlink="http://www.w3.org/1999/xlink">
    <g id="Symbols" stroke="none" stroke-width="1" fill="none" fill-rule="evenodd">
        <g id="item/blockbottom/social" transform="translate(-89.000000, -171.000000)">
            <g id="icon/facebook/default" transform="translate(90.000000, 172.000000)">
                <circle id="Oval" stroke="#505152" stroke-width="1" cx="21" cy="21" r="21"></circle>
                <path d="M19.31,20.172 L16.736,20.172 L16.736,17.52 L19.31,17.52 L19.31,15.752 C19.31,14.885329 19.3706661,14.1010035 19.492,13.399 C19.6133339,12.6969965 19.8429983,12.0946692 20.181,11.592 C20.5190017,11.0893308 20.9913303,10.703668 21.598,10.435 C22.2046697,10.166332 22.9933285,10.032 23.964,10.032 C24.6746702,10.032 25.3333303,10.0926661 25.94,10.214 L25.732,12.866 C25.5066655,12.8139997 25.290001,12.7706668 25.082,12.736 C24.873999,12.7013332 24.6573345,12.684 24.432,12.684 C23.9986645,12.684 23.6520013,12.7533326 23.392,12.892 C23.1319987,13.0306674 22.9283341,13.2169988 22.781,13.451 C22.6336659,13.6850012 22.5383336,13.9579984 22.495,14.27 C22.4516665,14.5820016 22.43,14.9113316 22.43,15.258 L22.43,17.52 L25.316,17.52 L25.316,20.172 L22.43,20.172 L22.43,30 L19.31,30 L19.31,20.172 Z" id="f" fill="#505152" fill-rule="evenodd"></path>
            </g>
        </g>
    </g>
</svg>