<svg width="44px" height="44px" viewBox="0 0 44 44" version="1.1" xmlns="http://www.w3.org/2000/svg" xmlns:xlink="http://www.w3.org/1999/xlink">
    <g id="Symbols" stroke="none" stroke-width="1" fill="none" fill-rule="evenodd">
        <g id="item/blockbottom/social" transform="translate(-179.000000, -171.000000)">
            <g id="icon/twitter/default" transform="translate(180.000000, 172.000000)">
                <circle id="Oval" stroke="#505152" stroke-width="1" cx="21" cy="21" r="21"></circle>
                <path d="M16.255,20.172 L16.255,17.52 L18.829,17.52 L18.829,13.906 L21.949,13.906 L21.949,17.52 L25.381,17.52 L25.381,20.172 L21.949,20.172 L21.949,25.632 C21.949,26.2560031 22.0659988,26.7499982 22.3,27.114 C22.5340012,27.4780018 22.9976632,27.66 23.691,27.66 C23.9683347,27.66 24.271665,27.629667 24.601,27.569 C24.930335,27.508333 25.1903324,27.4086674 25.381,27.27 L25.381,29.896 C25.051665,30.0520008 24.6486691,30.160333 24.172,30.221 C23.6953309,30.281667 23.2750018,30.312 22.911,30.312 C22.0789958,30.312 21.3986693,30.2210009 20.87,30.039 C20.3413307,29.8569991 19.9253348,29.5796685 19.622,29.207 C19.3186652,28.8343315 19.1106672,28.3706694 18.998,27.816 C18.8853328,27.2613306 18.829,26.6200036 18.829,25.892 L18.829,20.172 L16.255,20.172 Z" id="t" fill="#505152" fill-rule="evenodd"></path>
            </g>
        </g>
    </g>
</svg>