<svg xmlns="http://www.w3.org/2000/svg" width="28" height="48" viewBox="0 0 28 48">
    <g fill="#FFF" fill-rule="evenodd">
        <path d="M.194 11.467C7.244 5.77 12.644 3.323 16.39 4.13c5.62 1.209 8.359-.262 8.66-3.459.303-3.196 2.462 8.679-4.31 10.504-2.578.696-7.831-1.611-11.935-1.647-2.735-.024-5.606.623-8.611 1.94zM8.875 21.862c5.383-3.246 9.32-4.41 11.813-3.489 3.738 1.381 5.757.633 6.272-1.544.515-2.176.853 6.228-3.966 6.829-1.835.229-5.216-1.874-8.027-2.297-1.873-.283-3.904-.116-6.092.5z"/>
        <path d="M14.392 12.61c3.266 7.623 18.22 29.258 12.19 33.878-6.03 4.62-13.5-2.823-13.5-2.823l4.98 1.283c8.826 2.14 8.826-3.978 0-18.35-13.239-21.56-6.935-21.612-3.67-13.989z"/>
    </g>
</svg>
