<svg xmlns="http://www.w3.org/2000/svg" width="113" height="113" viewBox="0 0 113 113">
    <g fill="#FF5145" fill-rule="nonzero">
        <path d="M38.306 100.06c-5.53-3.859-13.038-6.911-20.956-8.696a189.62 189.62 0 0 0-7.187-1.52l-.903-.174-.434-.08-.24-.07a2.915 2.915 0 0 1-.88-.414 3.118 3.118 0 0 1-1.143-1.497 3.075 3.075 0 0 1-.114-1.832L7.5 82.564a144.174 144.174 0 0 0 2.103-7.13 145.354 145.354 0 0 0 3.13-14.558l.263-1.809c.048-.259.128-.51.24-.748a2.708 2.708 0 0 1 1.143-1.152 2.622 2.622 0 0 1 1.565-.346c.14.011.277.035.412.07.171 0 .56.15.834.218l1.794.484 3.13 1.025c.369.122.759.161 1.143.115h.183a5.07 5.07 0 0 0 4.308-3.881l.057-.242v-.138c0-.116 0-.242.068-.357.036-.237.055-.475.058-.714a5.327 5.327 0 0 0-.332-1.947l-.125-.334a4.885 4.885 0 0 1-.206-2.949 4.94 4.94 0 0 1 4.09-3.743 5.084 5.084 0 0 1 2.834.507 4.88 4.88 0 0 1 2.606 4.814 4.846 4.846 0 0 1-1.143 2.696l-.252.287-.137.139-.068.069-.149.138c-.41.37-.76.801-1.04 1.278a5.11 5.11 0 0 0-.514 1.256l-.068.288-.069.322a5.091 5.091 0 0 0 2.171 5.344l.126.081a2.66 2.66 0 0 0 1.051.392c1.79.269 3.58.503 5.37.703 4.365.483 8.079 0 7.919-1.567-.16-1.566-3.017-2.868-7.29-3.72-.971-.196-1.943-.415-2.914-.622a10.863 10.863 0 0 0 2.994-5.494c1.256-5.838-2.349-11.617-8.113-13.004a10.934 10.934 0 0 0-11.426 4.043 10.943 10.943 0 0 0-1.691 10.09v.103l-1.143-.31-1.543-.427-.777-.207-1.04-.254a8.336 8.336 0 0 0-4.467.438 8.268 8.268 0 0 0-3.474 2.65 7.81 7.81 0 0 0-1.542 2.602c-.093.24-.17.487-.229.737l-.16.657-.24 1.048-.994 4.17c-.678 2.78-1.39 5.555-2.137 8.327a244.097 244.097 0 0 1-2.376 8.247l-.64 2.05-.286 1.037c0 .126-.125.426-.205.714-.08.28-.142.564-.183.852-.768 4.833 2.26 9.455 6.97 10.643l.845.172.537.081 1.063.161 2.114.346c2.81.484 5.61 1.04 8.398 1.67a137.497 137.497 0 0 1 16.42 4.78 6.35 6.35 0 0 0 3.28.057c1.2-.449.228-1.578-1.44-2.752z"/>
        <path d="M63.262 36.758a4.847 4.847 0 0 1-2.696-1.142l-.288-.252-.138-.137-.069-.068-.138-.149c-.37-.409-.801-.76-1.279-1.039a5.13 5.13 0 0 0-.806-.308l-.46-.16-.289-.069-.322-.068a5.092 5.092 0 0 0-5.345 2.17l-.08.125a2.659 2.659 0 0 0-.392 1.051 142.58 142.58 0 0 0-.703 5.368c-.483 4.363 0 8.075 1.567 7.915 1.566-.16 2.868-3.015 3.72-7.287.196-.97.415-1.941.622-2.912a10.865 10.865 0 0 0 5.495 3.004c5.838 1.256 11.617-2.348 13.004-8.11a10.926 10.926 0 0 0-4.043-11.42 10.96 10.96 0 0 0-10.09-1.69h-.104l.311-1.143.426-1.542.208-.777c.069-.24.184-.696.253-1.039a8.328 8.328 0 0 0-.438-4.466 8.265 8.265 0 0 0-2.649-3.472A7.812 7.812 0 0 0 55.936 7.6a5.633 5.633 0 0 0-.737-.229l-.657-.16-1.048-.24-4.17-.993c-2.78-.678-5.555-1.39-8.327-2.136a244.2 244.2 0 0 1-8.248-2.376L30.7.826 29.662.542l-.714-.24a6.405 6.405 0 0 0-.852-.182c-4.833-.768-9.455 2.258-10.643 6.967l-.173.845-.08.537-.127 1.073-.346 2.113c-.483 2.81-1.04 5.608-1.67 8.395a137.393 137.393 0 0 1-4.78 16.412 6.344 6.344 0 0 0-.115 3.278c.46 1.233 1.6.262 2.776-1.416 3.858-5.528 6.91-13.032 8.696-20.947.553-2.383 1.06-4.778 1.52-7.184l.173-.902.081-.434.07-.24c.087-.314.227-.611.414-.88a3.118 3.118 0 0 1 1.497-1.142 3.077 3.077 0 0 1 1.832-.114l3.213 1.051c2.358.761 4.734 1.462 7.13 2.102a145.446 145.446 0 0 0 14.56 3.129l1.808.285c.259.048.51.129.748.24.494.255.896.653 1.152 1.142a2.62 2.62 0 0 1 .346 1.565 2.425 2.425 0 0 1-.07.411c0 .172-.149.56-.218.834l-.484 1.793-1.025 3.13a2.64 2.64 0 0 0-.115 1.142v.182a5.068 5.068 0 0 0 3.882 4.306l.241.057h.139l.357.069c.236.035.475.054.714.057a5.33 5.33 0 0 0 1.946-.331l.334-.126a4.888 4.888 0 0 1 2.95-.205 4.939 4.939 0 0 1 3.743 4.065 5.08 5.08 0 0 1-.507 2.833 4.882 4.882 0 0 1-4.803 2.547z"/>
        <path d="M105.896 17.453l-.844-.173-.537-.08-1.061-.127-2.112-.346a165.31 165.31 0 0 1-8.388-1.67 137.216 137.216 0 0 1-16.401-4.78 6.335 6.335 0 0 0-3.276-.115c-1.233.46-.262 1.6 1.415 2.776 5.524 3.858 13.023 6.91 20.932 8.696 2.382.553 4.775 1.06 7.18 1.52l.901.173.434.081.24.07c.313.087.61.227.878.414.525.368.924.891 1.142 1.497.223.584.263 1.224.114 1.832l-1.05 3.213a144.31 144.31 0 0 0-2.1 7.13 145.532 145.532 0 0 0-3.128 14.56l-.262 1.808a3.06 3.06 0 0 1-.24.748 2.706 2.706 0 0 1-1.141 1.152 2.617 2.617 0 0 1-1.564.346 2.41 2.41 0 0 1-.41-.07c-.172 0-.56-.149-.834-.218l-1.792-.484-3.127-1.025a2.636 2.636 0 0 0-1.141-.115h-.183a5.065 5.065 0 0 0-4.303 3.882l-.057.241v.139c0 .115 0 .242-.068.357a5.183 5.183 0 0 0-.057.714 5.333 5.333 0 0 0 .33 1.946l.126.334c.371.938.443 1.969.206 2.95a4.936 4.936 0 0 1-4.086 3.743 5.073 5.073 0 0 1-2.83-.507 4.882 4.882 0 0 1-2.603-4.815 4.849 4.849 0 0 1 1.141-2.695l.251-.288.137-.138.069-.07.148-.138c.41-.37.76-.8 1.039-1.278a5.125 5.125 0 0 0 .502-1.233l.068-.288.069-.322a5.094 5.094 0 0 0-2.169-5.345l-.125-.08a2.656 2.656 0 0 0-1.05-.392 142.39 142.39 0 0 0-5.365-.703c-4.36-.483-8.069 0-7.909 1.567.16 1.566 3.013 2.868 7.282 3.72.97.196 1.94.415 2.91.622a10.867 10.867 0 0 0-2.979 5.472c-1.255 5.838 2.346 11.617 8.104 13.004a10.914 10.914 0 0 0 11.413-4.043 10.954 10.954 0 0 0 1.69-10.09v-.104l1.14.311 1.541.426.777.208 1.038.253c1.5.266 3.042.114 4.463-.438a8.26 8.26 0 0 0 3.47-2.649 7.813 7.813 0 0 0 1.54-2.603c.093-.24.17-.486.228-.737l.16-.657.24-1.048.993-4.17c.677-2.78 1.389-5.555 2.134-8.327a256.443 256.443 0 0 1 2.374-8.27l.64-2.05.33-1.026c0-.127.126-.426.206-.714.08-.28.14-.565.182-.853.767-4.833-2.256-9.455-6.962-10.643l-.023.012z"/>
        <path d="M100.035 74.684c-3.857 5.525-6.908 13.025-8.693 20.936a189.363 189.363 0 0 0-1.52 7.181l-.172.902-.08.434-.07.24a2.9 2.9 0 0 1-.414.879c-.368.524-.891.923-1.497 1.141a3.076 3.076 0 0 1-1.83.114l-3.213-1.05a144.174 144.174 0 0 0-7.127-2.1 145.383 145.383 0 0 0-14.553-3.129l-1.807-.262a3.058 3.058 0 0 1-.748-.24 2.706 2.706 0 0 1-1.152-1.141 2.619 2.619 0 0 1-.345-1.564c.01-.14.034-.277.069-.411 0-.172.15-.56.219-.834l.483-1.792 1.025-3.128c.122-.368.16-.757.115-1.142v-.182a5.065 5.065 0 0 0-3.88-4.304l-.242-.057h-.138l-.357-.069a5.166 5.166 0 0 0-.714-.057 5.328 5.328 0 0 0-1.945.331l-.334.126a4.886 4.886 0 0 1-2.948.205 4.936 4.936 0 0 1-3.742-4.087 5.077 5.077 0 0 1 .507-2.83 4.88 4.88 0 0 1 4.813-2.604 4.845 4.845 0 0 1 2.694 1.142l.288.251.138.137.069.069.138.148c.37.41.8.76 1.278 1.039.26.15.534.275.817.377l.438.137.288.068.322.069a5.09 5.09 0 0 0 5.342-2.169l.08-.126c.205-.319.338-.677.392-1.05.269-1.789.503-3.577.703-5.366.483-4.36 0-8.07-1.566-7.911-1.566.16-2.867 3.014-3.719 7.283-.196.97-.414 1.941-.622 2.911a10.86 10.86 0 0 0-5.492-2.99c-5.835-1.256-11.611 2.346-12.998 8.105a10.92 10.92 0 0 0 4.041 11.416 10.943 10.943 0 0 0 10.086 1.69h.103l-.31 1.14-.426 1.542-.208.776c-.069.24-.184.697-.253 1.04a8.324 8.324 0 0 0 .437 4.463 8.261 8.261 0 0 0 2.649 3.47 7.808 7.808 0 0 0 2.602 1.541c.24.093.486.17.736.229l.657.16 1.047.24 4.18.993c2.778.677 5.553 1.389 8.324 2.134 2.77.746 5.526 1.538 8.266 2.375l2.05.64 1.024.33.714.206c.28.08.564.14.852.182 4.831.767 9.452-2.257 10.639-6.963l.172-.845.08-.537.162-1.061.345-2.112c.484-2.809 1.04-5.606 1.67-8.391 1.25-5.56 2.846-11.04 4.778-16.405a6.34 6.34 0 0 0 .057-3.3c-.472-1.22-1.6-.25-2.774 1.417z"/>
    </g>
</svg>
