<svg xmlns="http://www.w3.org/2000/svg" width="117" height="77" viewBox="0 0 117 77">
    <g fill="#FF5145" fill-rule="nonzero" stroke="#FF5145">
        <path d="M115.469 32.007c-.75-2.36-1.876-4.472-3.25-6.46-.501-.62-1.001-1.241-1.501-1.863-2.126-2.111-4.501-3.85-7.001-5.465-3.876-2.609-8.002-4.472-12.628-5.466-2.625-.621-5.25-.87-8.001-1.118-1.75-.124-3.626-.497-5.376-.621-3.126-.124-6.127.621-9.127.745-.875 0-1.625.124-2.5.124-1.876.249-3.626.497-5.377 1.243-2.625 1.118-5.5 2.111-7.876 3.602-1.375.87-2.876 1.49-4 2.609-.876.745-1.751 1.615-2.751 2.236-.875.62-1.876 1.242-2.376 1.987-2 2.609-4 5.342-5.126 8.572-.875 2.484-.625 4.844-.125 7.329.25 1.49 1 2.857 1.876 4.099 1.125 1.615 2.625 2.857 4.125 3.975 2.626 1.988 5.376 3.85 8.377 5.217.875.373 1.75.87 2.625 1.367.626.372 1.25.745 2 .993.626.125 1.001.125 1.501.249 1.25 0 2.376.124 3.5.497 2.501.62 5.002 1.242 7.502 1.739 1.25.248 2.5.87 3.5 1.615 1.626 1.242 3.126 2.733 4.502 4.1 1.875 1.862 3.75 3.602 6 4.968a46.55 46.55 0 0 0 6.002 3.354c1.5.745 2.875 1.49 4.376 2.112.75.372 1.75.372 2.125-.249.375-.62.125-1.615.75-2.236 0 0-.25-.372-.375-.62v-.125c-.75-.87-1.5-1.615-2.25-2.485-.625-.745-1.375-1.49-1.626-2.484-.25-.373-.5-.621-.75-.994-.25-.124-.375-.497-.375-.87-1-1.49-1.5-3.105-2-4.72-.375-1.242-.25-1.366 1-1.615 2.626-.62 5.001-1.863 7.376-3.354.876-.496 1.626-1.366 2.751-1.614 1.625-.373 3.126-.87 4.5-1.864 3.126-2.111 6.377-3.85 8.502-7.08.876-1.367 1.626-2.982 1.876-4.472.25-2.236.25-4.596-.375-6.957zm-3.376 2.36c.125 4.472-1.75 7.578-5.126 10.062-.625.497-1.25.87-1.75 1.367-1 .745-1.876 1.49-3.126 1.739-.75.248-1.25.621-1.875 1.118-2.25 1.49-4.501 2.733-6.876 4.1-1.75.993-3.751 1.241-5.626 2.111-1.25.621-1.626 1.242-1 2.484 0 .125.124.249.124.373-.125 1.988.876 3.727 1.376 5.466.5 1.366 1.25 2.609 1.75 3.85.125.25.375.373.125.622-.125.124-.375 0-.625-.124-1.876-1.118-3.876-2.112-5.626-3.479-3.126-2.236-5.376-5.217-8.377-7.453-.75-.497-1.5-1.118-2.125-1.739-.75-.621-1.75-.621-2.75-.87a106.958 106.958 0 0 1-8.627-1.863c-1-.248-2-.124-3-.124-.376 0-.751-.124-1.001-.248-1.375-.746-2.626-1.491-4.126-2.112-3.5-1.367-6.626-3.354-9.377-5.839-.375-.372-.875-.62-1.25-.87-1.75-1.49-2.25-3.602-2.625-5.713-.625-2.982.875-5.342 2.25-7.578 1.625-2.733 4-4.969 6.501-6.956 3.501-2.857 7.502-4.97 11.753-6.584 2.375-.87 4.875-1.118 7.25-1.863 1.876-.497 3.627-.125 5.377-.249 3.75-.372 7.501.373 11.127.746 5.376.62 10.502 2.236 15.128 4.968 3.5 2.112 7.126 4.348 9.502 7.702 1.75 2.236 2.875 4.472 2.625 6.957z"/>
        <path d="M67.89 4.77c0-.376-.25-.626-.499-.876-.747-.876-1.62-1.502-2.74-1.877-1.993-.5-3.986-1.126-5.98-1-.996.124-1.992.25-2.989.25-2.366.125-4.608 0-6.975.125-2.616.125-5.107.25-7.723.375-2.242.125-4.484.375-6.726.375-1.37 0-2.865 0-4.235.25-2.367.5-4.734.626-7.1.626-.748 0-1.37 0-2.118.125-1.744.25-3.363.876-5.107 1.251-1.245.25-2.491.375-3.737.876-2.49.876-4.733 2.127-6.85 3.753-1.495 1.126-2.616 2.627-3.364 4.504-.249.5-.373 1.126-.498 1.626C1 16.78 1 18.406 1 20.158c.125.625.125 1.25.25 1.876.373 1.877 0 3.754-.125 5.63-.125 2.628.373 5.38.622 8.007.374 2.878 1.246 5.755 2.242 8.508.25.75.499 1.501.872 2.127 1.246 2.001 3.114 2.877 5.232 3.628 3.239 1.126 6.602 1.376 9.965 1 1.37-.124 2.865.25 4.235.126.249 0 .872-.125.623.625-.748 2.127-2.118 4.004-3.239 6.006-.872 1.376-2.117 2.377-3.114 3.503-1.12 1.126-1.993 2.502-3.363 3.377-.997.626-1.744 1.377-2.616 2.252-1.744 1.627-3.488 3.128-5.356 4.504-.996.751-2.117 1.502-3.114 2.252-.623.376-.872 1.001-.498 1.752.249.625.747.75 1.37.625.872-.125 1.62-.125 2.491-.375 2.616-.75 5.107-1.751 7.598-2.752 3.737-1.502 7.474-2.878 10.837-5.005 2.865-1.751 5.48-3.878 7.723-6.38 1.868-2.127 3.239-4.504 4.858-6.881.498-.75 1.12-1.251 1.993-1.627.623-.25 1.12 0 1.744 0 1.12 0 2.242-.25 2.865-1.376.249-.375.373-.876 0-1.25-.748-.501-1.37-1.127-2.492-.752-.622 0-1.245 0-1.868.126-1.993.25-3.612.875-4.733 2.752-.748 1.126-1.37 2.377-2.242 3.378-2.74 3.628-5.73 7.006-9.716 9.258-2.118 1.251-4.235 2.377-6.477 3.253-.872.375-1.744.876-2.74 1 .373-.5.747-1 1.12-1.25 2.865-2.002 5.107-4.63 7.474-7.132.498-.5.872-1 1.246-1.626.872-1.752 1.993-3.128 2.99-4.88.497-.875.871-1.626.996-2.502.498-2.001-.499-3.628-2.492-4.128-1.744-.5-3.612-.25-5.48-.125-3.488 0-7.1.125-10.463-1.126-.997-.376-1.993-.75-2.367-1.627-.748-1.376-1.246-2.752-1.62-4.253-.373-1.752-.747-3.503-1.245-5.255-.374-1.376-.498-2.627-.623-4.003-.124-3.128.125-6.256-.374-9.258-.498-2.127-.124-4.38.748-6.506.124-.375.124-.75.249-1.126.25-1 .872-1.752 1.744-2.252.249-.25.373-.375.498-.626 1.37-1.376 3.239-2.001 4.982-2.752 2.616-1 5.481-1.376 8.222-1.751 2.989-.376 5.978-1.126 9.092-1.502 3.364-.375 6.727-.5 10.214-.625l11.585-.376c3.114-.125 6.352-.125 9.466.626 1.993.5 3.363 1.376 3.862 3.503.124.75 1.12 1.376 1.868 1.376.872 0 1.121-.75 1.37-1.376.25-1.126 0-2.627 0-4.004z"/>
        <path d="M14.583 26.915c-.136-1.362-.408-2.724-.272-4.086 0-2.475-.136-4.828-.272-7.18-.136-1.362.136-2.6 0-3.961 0-.372.272-.62.544-.62.543-.123 1.222-.123 1.766.372.679.867.543 1.857.679 2.724.272 2.847 0 5.818.136 8.665.136 2.229.407 4.457.815 6.81.136.742-.408 1.113-.951 1.237-.543.248-1.087.124-1.494-.371-.816-1.114-1.223-2.352-.951-3.59zM15.318 42c-1.145 0-1.527-.94-2.163-1.528-.382-.47 0-1.058.509-1.411.89-.823 1.654-1.646 3.053-1.998 1.145-.236 1.908.235 2.799.705.382.235.636.823.382 1.293-.51 1.176-3.18 2.939-4.58 2.939zM77.15 16.023c3.999.249 7.15 2.112 9.33 5.59.849 1.367.485 2.734.122 4.224-.364 1.119-1.212 1.988-1.576 3.23-.605 1.491-1.938 1.988-3.15 2.61-.849.372-1.697.869-2.545 1.242-1.575.745-2.424 2.112-3.03 3.602-.242.497.243.622.485.87.485.373 1.09.621.848 1.49-.12.746-.484 1.119-1.211 1.119-1.697 0-3.151-1.863-2.909-3.479.243-2.111 1.697-3.354 2.909-4.72 1.454-1.491 3.393-2.237 5.21-3.355 1.576-.994 2.303-2.609 2.666-4.348 0-.248 0-.497-.12-.745-.85-1.243-1.455-2.733-2.91-3.479-1.696-.745-3.271-1.615-5.21-1.366-1.212.124-2.424.372-3.272 1.49-.727.87-.848 1.491-.242 2.485.363.497.485.994 0 1.367-.606.497-1.09.372-1.576-.125a3.437 3.437 0 0 1-.969-2.36c0-1.863.97-3.23 2.424-4.1 1.454-.993 3.03-1.366 4.726-1.242zM76.407 43c.747.13 1.742.519 2.24 1.557.623 1.167.374 2.335-.373 3.373-1.12 1.427-4.107 1.427-5.103 0 0-.13-.124-.13-.124-.26.124-.908-.25-1.946.124-2.854.373-.908 1.991-1.816 3.236-1.816z"/>
    </g>
</svg>
