<svg xmlns="http://www.w3.org/2000/svg" width="50" height="80" viewBox="0 0 50 80">
    <path fill="#FF5145" fill-rule="nonzero" d="M28.517 24.703c-.295-6.252.118-11.772 1.783-17.277.64-2 1.512-3.913 2.916-5.49 2.353-2.668 7.507-2.486 10.361.055 3.377 3.07 4.437 7.171 5.107 11.256 1.737 10.565 1.283 21.153.048 31.707-.654 5.627-2.398 11.167-3.673 16.69-1.131 4.981-2.689 9.867-2.304 15.031.096 1.292-.588 2.549-1.822 3.003-1.517.676-1.516-1.04-2.11-1.729-1.55-1.977-2.976-4.105-4.82-5.667-7.294-6.28-13.363-13.677-19.273-21.146-4.173-5.288-8.78-10.478-11.373-16.946-1.54-3.888-2.405-7.98-2.41-12.076.014-4.484 2.297-8.169 6.628-9.62 4.925-1.622 9.305.907 12.753 4.136 2.579 2.567 5.486 4.798 8.189 8.073zm10.509 46.77c1.045-3.52 2.115-6.766 2.918-10.179 3.237-13.376 6.868-26.737 4.654-40.838-.908-5.516-2.31-10.62-5.676-15.138-1.22-1.653-2.356-1.815-3.975-.235-3.742 3.766-4.73 8.503-4.858 13.43-.148 5.317 1.092 10.494 2.853 15.535.451 1.231.812 2.694-.525 3.385-1.257.655-1.95-.469-2.69-1.477-.551-.804-1.068-1.53-1.574-2.45-3.288-6.08-7.518-11.452-13.584-14.862-2.609-1.513-5.854-2.932-8.548-1.16-2.982 1.996-3.785 5.409-3.057 9 1.59 9.222 7.4 16.184 12.492 23.274 5.866 8.178 13.62 14.943 21.57 21.716z"/>
</svg>
