<svg xmlns="http://www.w3.org/2000/svg" width="16" height="16" viewBox="0 0 16 16">
    <path fill="#22294D" fill-rule="nonzero" d="M1.5 0h3.957a1.5 1.5 0 0 1 1.5 1.5v3.957a1.5 1.5 0 0 1-1.5 1.5H1.5a1.5 1.5 0 0 1-1.5-1.5V1.5A1.5 1.5 0 0 1 1.5 0zm9.043 0H14.5A1.5 1.5 0 0 1 16 1.5v3.957a1.5 1.5 0 0 1-1.5 1.5h-3.957a1.5 1.5 0 0 1-1.5-1.5V1.5a1.5 1.5 0 0 1 1.5-1.5zM1.5 9.043h3.957a1.5 1.5 0 0 1 1.5 1.5V14.5a1.5 1.5 0 0 1-1.5 1.5H1.5A1.5 1.5 0 0 1 0 14.5v-3.957a1.5 1.5 0 0 1 1.5-1.5zm9.043 0H14.5a1.5 1.5 0 0 1 1.5 1.5V14.5a1.5 1.5 0 0 1-1.5 1.5h-3.957a1.5 1.5 0 0 1-1.5-1.5v-3.957a1.5 1.5 0 0 1 1.5-1.5z"/>
</svg>
