<svg xmlns="http://www.w3.org/2000/svg" width="17" height="17" viewBox="0 0 17 17">
    <g fill="#000" fill-rule="nonzero">
        <path d="M12.24 0H4.666A4.67 4.67 0 0 0 0 4.665v7.576a4.67 4.67 0 0 0 4.665 4.665h7.576a4.67 4.67 0 0 0 4.665-4.665V4.666A4.67 4.67 0 0 0 12.241 0zm3.166 12.24a3.17 3.17 0 0 1-3.165 3.166H4.665A3.169 3.169 0 0 1 1.5 12.241V4.666A3.17 3.17 0 0 1 4.665 1.5h7.576a3.17 3.17 0 0 1 3.165 3.165v7.576z"/>
        <path d="M8.453 4.097a4.361 4.361 0 0 0-4.356 4.356 4.361 4.361 0 0 0 4.356 4.356 4.361 4.361 0 0 0 4.356-4.356 4.361 4.361 0 0 0-4.356-4.356zm0 7.212a2.86 2.86 0 0 1-2.856-2.856 2.86 2.86 0 0 1 2.856-2.856 2.86 2.86 0 0 1 2.856 2.856 2.86 2.86 0 0 1-2.856 2.856zM12.992 2.825a1.104 1.104 0 0 0-1.1 1.1c0 .29.118.573.323.778.204.204.488.322.777.322.29 0 .573-.118.778-.322a1.105 1.105 0 0 0 0-1.556 1.105 1.105 0 0 0-.778-.322z"/>
    </g>
</svg>
