<svg xmlns="http://www.w3.org/2000/svg" width="65" height="62" viewBox="0 0 65 62">
    <g fill="#000" fill-rule="nonzero">
        <path d="M30.89 0h25.772v1.124c-2.906.25-5.117 1-6.633 2.25-1.516 1.249-5.243 5.684-11.18 13.305 0-6.122-.38-10.057-1.138-11.806-.086-.199-.648-1.335-1.705-2.25-.558-.482-1.137-.749-2.085-1.124-.631-.25-1.642-.375-3.032-.375V0zM25.962 33.17l11.37-14.43C48.702 39.856 55.21 52.1 56.852 55.473c1.642 3.373 4.358 5.06 8.148 5.06v1.312c-11.118.25-18.13-.063-21.035-.937-2.189-.659-4.408-2.765-4.927-3.748-1.516-2.874-5.875-10.87-13.076-23.988zM23.12 36.544L7.2 56.222H0l.029-.818C1.91 54.97 6.654 53.511 7.2 50.05c.687-4.346.569-29.902.569-31.308 0-2.15.481-9.845-.948-13.681C5.938 2.686 3.664 1.312 0 .937V0c9.349 0 14.655.125 15.918.375 4.707.93 6.42 5.742 6.633 6.372.379 1.124.569 11.057.569 29.797z"/>
    </g>
</svg>
