<svg xmlns="http://www.w3.org/2000/svg" width="21" height="17" viewBox="0 0 21 17">
    <path fill="#010002" fill-rule="nonzero" d="M21 2.023a8.638 8.638 0 0 1-2.474.675c.89-.53 1.571-1.37 1.894-2.37a8.712 8.712 0 0 1-2.737 1.04A4.306 4.306 0 0 0 14.538.016c-2.379 0-4.308 1.92-4.308 4.285 0 .335.038.663.112.976A12.252 12.252 0 0 1 1.463.798a4.278 4.278 0 0 0 1.333 5.72 4.325 4.325 0 0 1-1.95-.537v.054c0 2.075 1.485 3.808 3.454 4.202-.36.097-.741.15-1.135.15-.278 0-.547-.027-.81-.08a4.307 4.307 0 0 0 4.023 2.977 8.672 8.672 0 0 1-5.35 1.832c-.348 0-.69-.021-1.028-.06a12.223 12.223 0 0 0 6.603 1.929c7.925 0 12.257-6.53 12.257-12.193l-.015-.555A8.578 8.578 0 0 0 21 2.023z"/>
</svg>
