<svg xmlns="http://www.w3.org/2000/svg" viewBox="0 0 1439.995 554.882"><defs><style>.line-02{fill:url(#line-02);}</style><linearGradient id="line-02" x1="0.624" y1="1.216" x2="0.431" y2="0.199" gradientUnits="objectBoundingBox"><stop offset="0" stop-color="#f0c673"/><stop offset="0.394" stop-color="#eebc6f" stop-opacity="0.251"/><stop offset="0.842" stop-color="#d84740"/><stop offset="1" stop-color="#f0c673"/></linearGradient></defs><path class="line-02" d="M1391.887,467.471a312.186,312.186,0,0,0-39.241-36.8,293.821,293.821,0,0,0-98.583-50.782,314.568,314.568,0,0,0-47.164-9.94,373.879,373.879,0,0,0-48.133-3.122h-.739c-13.309,0-27.281.655-41.526,1.947-13.6,1.233-27.906,3.091-42.533,5.52a860.318,860.318,0,0,0-87.8,19.813c-26.763,7.387-56.515,16.639-90.957,28.286-30.881,10.444-62.735,21.851-93.541,32.882l-.03.011-.131.047-.026.009c-32.917,11.786-66.955,23.972-100.664,35.3-37.934,12.751-71.107,22.934-101.416,31.132-17.47,4.727-34.516,8.932-50.666,12.5-17.319,3.825-34.309,7.075-50.5,9.661-17.1,2.731-34,4.827-50.219,6.232-16.984,1.466-33.751,2.21-49.837,2.21-11.806,0-23.576-.4-34.985-1.192-11.722-.814-23.4-2.063-34.7-3.713-86-12.562-161.873-49.717-219.418-107.446C59.1,389.892,23.632,324.639,9.206,256.292c-20.02-94.858,2.472-181.083,58.7-225.025C92.674,11.911,117.611,2.5,144.138,2.5a122.536,122.536,0,0,1,21.993,2.064,155.1,155.1,0,0,1,22.959,6.172c41,14.331,83.341,45.285,132.365,81.127h.006c87.81,64.2,197.093,144.09,348.341,158.337,16.142,1.521,32.613,2.291,48.957,2.291,16.9,0,34.17-.822,51.335-2.444,17.212-1.625,34.87-4.1,52.484-7.355,17.568-3.245,35.692-7.382,53.868-12.294,18.086-4.89,36.756-10.7,55.491-17.269,27.517-9.648,56.1-21.335,84.942-34.737q11.46-5.325,23.12-11.084v-2.727q-11.816,5.84-23.451,11.262c-28.951,13.468-57.628,25.2-85.234,34.884-18.7,6.556-37.323,12.354-55.361,17.232-18.156,4.906-36.236,9.033-53.738,12.267-17.58,3.248-35.192,5.716-52.346,7.334S735.5,250,718.67,250c-16.283,0-32.705-.769-48.809-2.285-150.749-14.2-259.8-93.912-347.424-157.962l-.029-.021-.021-.016C273.242,53.788,230.8,22.762,189.548,8.343a157.271,157.271,0,0,0-23.257-6.252A124.1,124.1,0,0,0,144.01,0C117.136,0,91.874,9.533,66.78,29.143,9.821,73.656-12.985,160.9,7.261,256.83c14.543,68.884,50.27,134.627,100.6,185.119A368.1,368.1,0,0,0,184.881,501c10.7,6.16,21.875,11.885,33.222,17.019s23.161,9.808,35.094,13.885c11.958,4.085,24.34,7.676,36.8,10.672,12.509,3.007,25.412,5.489,38.351,7.379,11.36,1.658,23.077,2.912,34.825,3.727,11.4.793,23.214,1.2,35.1,1.2,12.58,0,25.6-.452,38.7-1.344,12.622-.858,25.72-2.151,38.931-3.845,13.133-1.683,26.812-3.82,40.658-6.35,13.263-2.426,26.992-5.267,40.806-8.445,25.635-5.888,52.4-13.059,81.838-21.921C693.79,496.54,748.922,476.8,802.238,457.708h.017l.041-.014.022-.008.682-.244.022-.008c30.582-10.949,62.2-22.271,92.731-32.592,34.375-11.626,64.087-20.868,90.834-28.253a859.357,859.357,0,0,1,87.648-19.788c14.6-2.426,28.879-4.281,42.447-5.513,14.211-1.291,28.149-1.945,41.425-1.945h.744a371.872,371.872,0,0,1,47.817,3.1,312.877,312.877,0,0,1,47,9.895,291.933,291.933,0,0,1,97.95,50.45,308.951,308.951,0,0,1,71.016,79.189,328.494,328.494,0,0,1,17.36,31.32v-4.708q-7.2-14.393-15.792-28.1a312.213,312.213,0,0,0-32.316-43.013Z"/></svg>