<svg xmlns="http://www.w3.org/2000/svg" viewBox="0 0 1440 1114">
    <defs>
        <style>.line-03{fill:url(#line-03);}</style>
        <linearGradient id="line-03" x1="0.726" y1="0.784" x2="0.407" y2="-0.054" gradientUnits="objectBoundingBox">
            <stop offset="0" stop-color="#f0c673" stop-opacity="0.2"/>
            <stop offset="0.175" stop-color="#d84740"/>
            <stop offset="0.671" stop-color="#f0c673"/>
            <stop offset="0.807" stop-color="#f0c673" stop-opacity="0.302"/>
            <stop offset="1" stop-color="#f0c673"/>
        </linearGradient>
    </defs>
    <path class="line-03" d="M1383.24,139.142a302.884,302.884,0,0,0-73.349-74.011,294.285,294.285,0,0,0-98.969-45.362C1078.774-13.3,927.612,44.985,767.58,106.7,614.473,165.738,456.157,226.786,304.339,210.39c-85.221-9.208-161.325-42.271-220.082-95.627A359.835,359.835,0,0,1,0,0V4.655A362.4,362.4,0,0,0,83.129,116.633c59.074,53.641,135.547,86.881,221.156,96.128,47.974,5.181,96.595,2.654,145.46-5.083,106.171-16.811,213.572-58.228,318.546-98.706C928.07,47.362,1078.994-10.834,1210.632,22.1a292.392,292.392,0,0,1,98.333,45.066,300.529,300.529,0,0,1,72.79,73.439c39.519,56.524,59.359,124.68,55.864,191.912-4.257,81.878-42.987,154.757-109.054,205.211-37.057,28.3-82.417,49.594-134.816,63.284-57.037,14.906-122.6,20.808-194.885,17.555C847.357,611.75,701.18,550.659,572.211,496.758c-97.145-40.6-188.9-78.95-265.344-85.743-68.106-6.054-125.986,6.832-172.039,38.3C93.435,477.6,62.7,520.982,45.926,574.774c-19.244,61.739-19.588,135.844-.97,208.666C64.41,859.522,102.441,929.109,154.94,984.679c75.617,80.042,175.439,124.645,288.67,128.992a528.389,528.389,0,0,0,102.985-6.444c106.508-16.86,220.672-65.029,340.782-143.914,54.754-35.968,107.861-64.607,158.611-85.607v-2.568c-51.079,21.068-104.529,49.867-159.642,86.063C726.87,1065.945,577.895,1116.44,443.559,1111.285c-112.745-4.328-212.11-48.713-287.353-128.357-52.2-55.253-90.014-124.436-109.35-200.064C28.367,710.55,28.7,636.987,47.8,575.725c16.614-53.3,47.073-96.294,88.095-124.321,45.725-31.242,103.243-44.03,170.955-38.011,76.175,6.771,167.808,45.066,264.822,85.612,129.106,53.956,275.438,115.113,427.246,121.947,72.448,3.261,138.177-2.663,195.37-17.606,52.615-13.749,98.176-35.141,135.418-63.581,66.576-50.84,105.606-124.336,109.9-206.955C1443.125,264.95,1423.109,196.172,1383.24,139.142Z"/>
</svg>