<svg xmlns="http://www.w3.org/2000/svg" viewBox="0 0 358.999 553.414">
    <defs>
        <style>.line-01{fill:url(#line-01);}</style>
        <linearGradient id="line-01" x1="0.5" x2="0.5" y2="1" gradientUnits="objectBoundingBox">
            <stop offset="0" stop-color="#f0c673"/>
            <stop offset="0.165" stop-color="#faba35" stop-opacity="0.933"/>
            <stop offset="0.372" stop-color="#fc3" stop-opacity="0.251"/>
            <stop offset="0.517" stop-color="#d84740" stop-opacity="0.702"/>
            <stop offset="0.675" stop-color="#fc3" stop-opacity="0.302"/>
            <stop offset="0.917" stop-color="#dd5141" stop-opacity="0.451"/>
            <stop offset="1" stop-color="#d84740" stop-opacity="0.149"/>
        </linearGradient>
    </defs>
    <path class="line-01"
          d="M-8435.649,327.952c-12.939-1.89-25.843-4.372-38.35-7.379-12.461-3-24.843-6.588-36.8-10.672-11.932-4.077-23.745-8.751-35.094-13.886s-22.521-10.857-33.222-17.018a368.176,368.176,0,0,1-77.021-59.051c-50.33-50.491-86.057-116.236-100.6-185.12A335.189,335.189,0,0,1-8763.5-15.29V-49.543c3.6-60.8,26.692-112.378,66.282-143.318,25.094-19.611,50.356-29.144,77.23-29.144a123.954,123.954,0,0,1,22.28,2.093,156.954,156.954,0,0,1,23.259,6.251c41.251,14.419,83.692,45.445,132.838,81.373l.022.015.028.02c11.937,8.726,24.275,17.745,37.059,26.847v2.811c-13.131-9.339-25.793-18.6-38.034-27.547h-.007c-49.024-35.841-91.365-66.8-132.364-81.127a155.238,155.238,0,0,0-22.959-6.172,122.581,122.581,0,0,0-21.994-2.064c-26.525,0-51.463,9.412-76.23,28.768-56.229,43.942-78.721,130.166-58.7,225.025,14.426,68.346,49.892,133.6,99.871,183.734,57.545,57.729,133.418,94.885,219.419,107.445,10.109,1.478,20.522,2.634,31,3.443v2.5C-8415.013,330.6-8425.474,329.435-8435.649,327.952Z"
          transform="translate(8763.5 222.005)"/>
</svg>