<svg xmlns="http://www.w3.org/2000/svg" width="237" height="421" viewBox="0 0 237 421">
    <g fill="none" fill-rule="evenodd">
        <path fill="#B28B67" d="M69.93 35.702c.843-7.658-.39-15.513-5.369-21.889-14.348-18.37-38.183 3.877-36.813 17.11 1.37 13.231 18.634 37.494 26.518 34.707 3.144-1.112 7.7-6.657 11.13-14.086l13.83 28.359 21.506-14.506-30.801-29.695z"/>
        <path fill="#191847" d="M74.51 38.927c-5.443-13.893-3.304-27.308-8.117-31.911-3.21-3.07-6.805-3.898-10.787-2.488C49.043-1.42 41.341-.64 32.502 6.873 19.242 18.14 14.529 30.027 27.19 40.648c3.474-2.343 6.815-6.434 14.073-8.182 2.303-.554 5.055.687 8.256 3.724l2.62-1.768c-.315-5.953 1.142-9.202 4.371-9.746 3.23-.544 5.632 1.806 7.207 7.049l8.004 9.082 2.788-1.88z"/>
        <path fill="#997659" d="M170.493 116.578L132.87 268.854l-24.438 126.484-12.431 3.8 24.065-267.143z"/>
        <path fill="#E4E4E4" d="M114.327 387.636c2.161 2.784 3.479 4.952 3.953 6.502.567 1.854 1.083 4.654 1.549 8.4-2.165.663-21.618 6.61-58.359 17.843-3.04-4.518-2.986-7.475.16-8.87a340.046 340.046 0 0 0 7.814-3.566l23.518-20.365a1 1 0 0 1 1.425.12l3.081 3.733c3.454.477 6.126.427 8.017-.151 1.565-.479 3.542-1.783 5.931-3.912a2 2 0 0 1 2.911.266z"/>
        <path fill="#D52E44" d="M119.133 373.009l-26.19.075c.9-34.62 3.206-73.12 6.917-115.501 3.71-42.38 8.952-83.786 15.725-124.218l67.708-20.7c-5.886 50.324-14.183 96.952-24.888 139.882-10.706 42.93-23.797 83.084-39.272 120.462z"/>
        <path fill="#B28B67" d="M175.552 115.032c21.097 43.018 52.781 96.534 54.649 97.913 1.245.92 36.238 1.855 104.977 2.806l.667 11.786c-77.941 12.048-119.83 15.715-125.665 11-8.753-7.073-60.383-68.306-85.271-108.022l50.643-15.483z"/>
        <path fill="#FF4B63" d="M310.276 213l.67 19.106c-54.335 21.968-89.627 28.888-105.875 20.759-16.25-8.13-44.282-48.512-84.098-121.147l64.564-19.74c29.62 60.392 45.44 91.736 47.461 94.034 2.02 2.297 27.78 4.626 77.278 6.987z"/>
        <path fill="#E4E4E4" d="M330.343 212.235c3.117-1.645 5.48-2.566 7.09-2.764 1.924-.236 4.771-.258 8.542-.066l7.437 60.57c-4.977 2.209-7.88 1.643-8.708-1.698a340.046 340.046 0 0 0-2.155-8.314l-15.971-26.697a1 1 0 0 1 .365-1.383l4.211-2.386c1.07-3.318 1.485-5.959 1.244-7.922-.2-1.624-1.14-3.797-2.823-6.52a2 2 0 0 1 .768-2.82z"/>
        <g>
            <path fill="#997659" d="M63.945 148.515l-37.247 21.717c-9.656 1.522-17.83 3.831-24.52 6.926-1.628 1.198-3.709 3.754 2.516 3.946 6.225.192 12.766.675 13.403 2.875.637 2.2-3.358 4.318-1.926 7.35.955 2.02 6.866-2.149 17.734-12.508l35.764-10.53-5.724-19.776zm111.832-74.846l-18.616 14.657c56.408 30 85.898 45.742 88.47 47.226 5.787 3.34 7.42 14.036 8.756 19.426 7.844-1.945-.292-11.082 9.706-13.406 9.125-2.121 18.62-.466 22.634-11.275.493-1.329-.188-4.35-4.053-4.105-9.629.606-24.542.154-27.696-1.366-4.302-2.072-30.702-19.125-79.2-51.157z"/>
            <path fill="#AFB9C5" d="M78.448 54.509L64.59 66.902c21.805 35.33 18.242 71.192-31.098 98.542l26.884 46.433c45.174-26.767 68.35-71.288 41.03-121.46-7.073-12.988-14.913-26.13-22.957-35.908z"/>
            <path fill="#C5CFD6" d="M82.346 44.631l-18.193 22.37c29.714 38.031 36.536 71.777 52.158 104.602l59.82-46.735c8.391 9.003 16.667 18.53 24.906 28.519l44.79-34.994c-52.271-45.983-106.28-70.956-162.03-74.918l-1.45 1.133-.001.023z"/>
            <path fill="#000" fill-opacity=".1" d="M124.302 77.984c20.057 22.494 33.28 41.289 39.67 56.382l12.158-9.498c-16.623-17.837-33.699-33.621-51.828-46.884z"/>
        </g>
    </g>
</svg>
