<svg xmlns="http://www.w3.org/2000/svg" width="296" height="446" viewBox="0 0 296 446">
    <g fill="none" fill-rule="evenodd">
        <path fill="#B28B67" d="M84.473 79.653c3.35-6.692 4.864-14.246 2.442-21.684-6.98-21.432-36.332-9.016-39.53 3.476-3.197 12.492 4.473 40.246 12.644 40.299 3.258.02 9.304-3.528 14.952-9.163l3.14 30.353 24.612-6.137-18.26-37.144z"/>
        <path fill="#191847" d="M58.25 45.258c3.111-1.338 11.755-3.88 13.365-4.28 1.03-.257 2.203-.301 2.579-1.393.307-.894-.2-2.15-.274-3.08-.085-1.08-.095-2.165-.1-3.248-.018-3.082.362-6.113 1.212-9.082 1.594-5.57 4.756-10.41 9.396-13.924 5.124-3.88 11.474-6.06 17.767-7.1 6.734-1.115 13.25-.439 19.99.046 6.425.462 12.836-.325 18.812-2.822 6.02-2.516 9.909-7.068 14.39-11.585 4.588-4.624 10.23-8.307 16.742-9.407 6.078-1.027 12.186.05 17.933 2.09 5.376 1.91 10.102 4.642 13.543 9.287 3.702 4.996 5.225 11.114 2.65 16.987-3.732 8.513-13.503 12.91-22.062 14.85a48.018 48.018 0 0 1-15.063.967c-6.74-.622-13.013-2.96-19.556-4.495-3.071-.72-6.171-1.167-9.326-1.26-3.062-.09-5.973.245-8.136 2.61-2.287 2.5-4.298 4.9-7.15 6.819-2.736 1.842-5.77 3.247-8.981 4.021-6.248 1.507-12.876 1.108-19.255 1.325-5.202.176-10.748.443-15.53 2.712-1.996.947-4.847 2.586-5.064 4.945 13.345-.883 22.276 13.568 21.55 25.992-.393 6.706-10.261 16.89-15.618 14.752-3.394-1.354-2.326-4.51-1.643-6.587 1.308-3.98.947-8.581-3.656-9.976-3.97-1.204-6.381 4.606-6.451 4.617-.968.163-10.325-2.405-17.658-7.727-5.496 1.72-7.254-1.726-6.668-5.048.587-3.322 7.962-9.158 12.261-11.006z"/>
        <path fill="#B28B67" d="M141.217 192.989c4.435 25.665-96.16 129.562-96.335 131.817-.079 1.002 19.571 27.172 58.948 78.508l-9.403 6.637c-53.583-51.407-80.199-80.605-79.847-87.594.503-10.006 23.675-48.286 69.516-114.842l57.121-14.526z"/>
        <path fill="#2F3676" d="M97.849 390.994l-15.457 10.419c-45.912-31.459-68.271-61.286-69.943-78.906-1.115-11.747 21.963-49.95 69.235-114.61l60.767-15.15c12.48 58.885-87.116 129.689-87.972 132.544-.857 2.856 19.747 23.593 43.37 65.703z"/>
        <path fill="#E4E4E4" d="M106.663 399.914c2.973 2.088 4.919 3.811 5.836 5.17 1.059 1.57 2.343 4.037 3.854 7.4l-48.858 32.955c-4.115-3.362-4.918-6.133-2.41-8.314a324.889 324.889 0 0 0 6.203-5.51l15.98-25.703a.8.8 0 0 1 1.123-.243l4.07 2.714c3.334-.52 5.792-1.315 7.375-2.383 1.357-.915 2.867-2.779 4.53-5.59a1.6 1.6 0 0 1 2.297-.496z"/>
        <path fill="#997659" d="M127.523 196.403L212.3 310.402l78.96 94.558-12.301 3.067L85.822 206.801z"/>
        <path fill="#E4E4E4" d="M290.444 399.219c2.08 2.978 3.318 5.263 3.715 6.854.458 1.838.822 4.594 1.091 8.271l-57.183 14.257c-2.717-4.566-2.524-7.445.58-8.637a324.889 324.889 0 0 0 7.713-3.055l23.806-18.688a.8.8 0 0 1 1.139.156l2.897 3.943c3.31.65 5.892.745 7.745.283 1.588-.396 3.644-1.631 6.17-3.705a1.6 1.6 0 0 1 2.327.32z"/>
        <path fill="#5C63AB" d="M280.98 383.79l-26.06 11.936c-28.875-25.77-149.063-130.989-173.534-187.82l60.856-15.173C185.31 227.49 252.966 357.26 280.98 383.79z"/>
        <g>
            <path fill="#B28B67" d="M31.462 193.638l-41.09-6.987c-8.097-4.83-15.585-8.169-22.465-10.015-1.95-.124-5.08.473-.59 4.45 4.49 3.975 9.033 8.36 8.136 10.37-.897 2.009-5.172 1.103-5.997 4.213-.55 2.073 6.421 2.652 20.912 1.735L23.4 211.697l8.06-18.06zm150.881-32.873l-19.916 9.368c30.83 33.9 47.303 51.833 49.417 53.801 4.758 4.428 3.964 14.915 4.05 20.312 7.868-.128 2.152-10.559 12.145-10.575 9.122-.015 17.767 3.629 23.942-5.732.759-1.15.774-4.16-2.945-4.774-9.268-1.53-23.315-5.218-25.975-7.347-3.626-2.902-17.2-21.254-40.718-55.053z"/>
            <path fill="#D3670A" d="M84.966 102.025l-9.218.692c-14.611 23.427-11.312 70.133-22.668 79.256-10.736 8.625-29.286 7.494-51.554 5.274l-2.783 15.51c23.571 15.406 67.364 22.47 80.994 8.806 21.792-21.846 13.952-78.512 5.229-109.538z"/>
            <path fill="#DDE3E9" d="M151.125 203.199l-78.223 19.503c-3.574.891-4.184-4.424-4.314-7.15-1.51-31.459 13.713-69.572 3.075-112.237l21.683-9.153c26.125 25.276 41.767 60.517 57.779 109.037z"/>
            <path fill="#FF8B46" d="M151.36 170.908c23.098 24.706 41.65 42.014 55.657 51.923l15.597-7.29c-26.846-62.682-69.45-103.262-127.812-121.742l-.258.064-8.676 2.163c-3.089 73.902 2.765 121.17 17.562 141.804l70.413-17.556c-5.292-16.479-13.282-33.308-22.483-49.366z"/>
        </g>
    </g>
</svg>
