<svg xmlns="http://www.w3.org/2000/svg" width="263" height="251" viewBox="0 0 263 251">
    <g fill="none" fill-rule="evenodd">
        <path fill="#B28B67" d="M61.268 201.123c-7.234 3.586-13.444 9.107-16.184 17.084-7.895 22.985 25.48 31.358 36.348 22.68 10.867-8.68 22.271-37.556 15.259-42.908-2.797-2.135-10.315-3.005-18.844-1.822l16.997-28.173-25.21-10.7-8.366 43.84z"/>
        <path fill="#191847" d="M85.958 236.84c-.869 1.353-2.167 2.716-3.246 3.888-1.39 1.51-3.033 2.708-4.733 3.773a40.337 40.337 0 0 1-10.222 4.578c-6.47 1.855-13.556 1.502-19.274-1.787a19.006 19.006 0 0 1-7.053-7.053c-1.537-2.698-2.64-6.177-5.504-7.61-3.116-1.558-7.242.002-10.544.644-3.724.725-7.408.84-11.026-.043-6.061-1.479-10.579-5.64-12.525-11.914-2.072-6.677-2.035-15.164 3.457-20.514 1.021-.995 2.107-1.738 3.403-2.186 1.188-.41 2.85-.678 3.724-1.769.93-1.16.545-3.327.62-4.697.11-1.963.364-3.964 1.328-5.738 1.584-2.914 4.739-4.998 7.618-6.133 2.93-1.155 5.968-1.24 8.913-.624 1.966.411 3.905 1 5.691 1.918.887.455 1.588 1.05 2.39 1.628.779.561 1.358.538 2.289.38 4.325-.74 8.338-.032 12.125 1.958 3.196 1.68 6.676 4.098 8.422 7.498 1.938 3.776.414 7.201-1.857 10.588.904-.05 3.07.6 1.211 1.543-.736.373-1.763.216-2.536.291-.901.087-1.863.286-2.707.694-3.408 1.647-3.354 7.965-.842 10.068 3.732 3.126 7.246-2.484 10.966-2.742 2.14-.149 3.46 1.856 4.248 3.664 1.056 2.423 1.318 5.15 1.4 7.847.067 2.221.063 4.443.15 6.662.042 1.036.416 4.074-.706 4.75 2.812 1.91 6.769 2.096 10.117 1.557 1.385-.223 2.54-.626 3.637-1.59.235-.207.834-.864 1.189-.75.66.21.096.88-.123 1.22"/>
        <path fill="#1F28CF" d="M105.933 73.866L212.57-37.48l76.779-82.84 20.106 8.535L163.14 98.148z"/>
        <path fill="#2B44FF" d="M93.5 68.588C112.28 22.824 138.697-38.31 138.627-41.69c-.046-2.252-17.315-35.026-51.808-98.32l17.82-13.17c44.883 65.883 67.78 102.138 68.692 108.764 1.368 9.94-5.826 93.009-11.943 141.821L93.5 68.588z"/>
        <path fill="#191847" d="M73.769-159.185l11.736 20.535 21.223-10.814c6.488-12.144 16.732-24.518 30.732-37.123l-2.043-4.01-38.404 19.568-12.116 8.7-1.022-2.006-10.106 5.15zM295.326-139.588l-8.187 22.19 21.925 9.307c13.474-2.836 29.538-2.943 48.192-.32l1.759-4.143-39.676-16.84-14.452-3.691.88-2.071-10.441-4.432z"/>
        <g>
            <path fill="#B28B67" d="M189.736 131.024l43.684-10.363c10.064 1.39 18.896 1.555 26.495.493 1.986-.7 4.838-2.61-1.29-4.671-6.128-2.06-12.48-4.504-12.438-6.88.042-2.374 4.662-3.275 4.169-6.713-.329-2.292-7.484.069-21.464 7.083l-38.776-.293-.38 21.344zM34.775 77.307l19.793 4.465c-3.325-51.451-5.229-78.718-5.713-81.8-1.088-6.933 6.556-15.35 10.071-20.009-6.753-5.112-8.843 7.577-17.323.959-7.74-6.04-12.645-14.885-24.1-11-1.41.477-3.423 3.033-.679 6.025C23.662-16.598 33.115-4.13 33.954-.55c1.144 4.882 1.417 30.834.82 77.857z"/>
            <path fill="#69A1AC" d="M198.619 131.664c4.151 2.126 9.111 3.393 14.821 3.827a5.113 5.113 0 0 0 3.828-8.878c1.252-.293 2.511-.579 3.777-.856l-1.107-20.739c-42.826 2.653-81.686 1.864-109.188 24.58-9.231 7.625-21.614 41.577-27.229 53.457l9.214 9.322c29.231-25.614 63.404-47.585 105.884-60.713z"/>
            <path fill="#191847" d="M92.017 54.05c34.336 10.314 60.156 21.274 77.46 32.88 2.144 1.438-2.237 11.474-4.487 13.767-35.05 35.715-59.458 62.39-72.097 92.165-2.405-2.93-7.714-5.47-15.927-7.619-7.754-39.505-2.361-78.766 15.05-131.193z"/>
            <path fill="#89C5CC" d="M88.073 46.393a5.1 5.1 0 0 0-3.21 3.64l-.772 3.338a5.1 5.1 0 0 0 2.434 5.574A86.482 86.482 0 0 1 85.443 64c-3.439 13.958-12.475 25.24-17.646 37.89-10.69-21.464-15.23-52.62-13.617-93.464L32.006 5.87c-.436 3.119-.83 6.214-1.183 9.286-2.825.329-8.001 5.135-6.51 6.94a24.97 24.97 0 0 0 5.35 4.834c-5.076 62.2 7.546 114.621 37.866 157.267l5.636 2.392 6.23 2.645C95.552 141.458 186.71 60.877 206.592-32.55c-28.03-20.077-81.4-17.285-117.129-52.78-13.152 35.439 1.595 89.89-1.39 131.723z"/>
            <path fill="#000" fill-opacity=".1" d="M72.282 184.98l1.657-18.87 16.119-7.833-5.65-13.93 40.962-30.6-46.21 28.276 5.44 13.937-14.287 6.904z"/>
            <path fill="#000" fill-opacity=".4" d="M125.075 95.114a4.539 4.539 0 0 0-5.949 2.41 4.539 4.539 0 0 0 2.399 5.954 4.539 4.539 0 0 0 5.949-2.41 4.539 4.539 0 0 0-2.4-5.954zm15.424-21.83a4.539 4.539 0 0 0-5.95 2.41 4.539 4.539 0 0 0 2.4 5.953 4.539 4.539 0 0 0 5.948-2.41 4.539 4.539 0 0 0-2.398-5.953zm11.25-23.602a4.539 4.539 0 0 0-5.95 2.41 4.539 4.539 0 0 0 2.4 5.953 4.539 4.539 0 0 0 5.948-2.41 4.539 4.539 0 0 0-2.399-5.953z"/>
        </g>
    </g>
</svg>
