<svg xmlns="http://www.w3.org/2000/svg" width="87" height="210" viewBox="0 0 87 210">
    <g fill="none" fill-rule="evenodd">
        <path fill="#B28B67" d="M34.952 17.74c.42-3.86-.204-7.82-2.716-11.037C25-2.564 13.005 8.64 13.701 15.31c.697 6.671 9.404 18.91 13.374 17.51 1.583-.56 3.876-3.352 5.6-7.096l6.98 14.302 10.826-7.302-15.53-14.984z"/>
        <path fill="#191847" d="M37.26 19.368c-2.748-7.006-1.677-13.768-4.104-16.09-1.618-1.55-3.43-1.969-5.435-1.26C24.412-.984 20.533-.593 16.084 3.19c-6.673 5.674-9.042 11.664-2.659 17.024 1.749-1.18 3.43-3.24 7.085-4.118 1.16-.278 2.547.349 4.16 1.881l1.32-.89c-.162-3 .57-4.638 2.197-4.91 1.626-.273 2.838.912 3.634 3.556l4.036 4.582 1.403-.946z"/>
        <path fill="#997659" d="M85.04 57.853l-18.936 76.153-12.314 63.251-6.234 1.906L59.749 65.585z"/>
        <path fill="#E4E4E4" d="M56.877 193.71c1.078 1.428 1.738 2.537 1.98 3.329.29.948.56 2.38.81 4.292L30.96 210.11c-1.525-2.321-1.515-3.829.03-4.523a161.183 161.183 0 0 0 3.838-1.775l11.482-10.243a.5.5 0 0 1 .722.06l1.538 1.917c1.708.262 3.026.251 3.957-.033.763-.234 1.723-.88 2.878-1.936a1 1 0 0 1 1.473.134z"/>
        <path fill="#D52E44" d="M59.166 186.088l-13.132.05c.468-17.31 1.642-36.56 3.523-57.752 1.881-21.191 4.529-41.896 7.944-62.114L91.459 55.89c-2.975 25.164-7.157 48.48-12.545 69.95-5.389 21.47-11.971 41.552-19.748 60.248z"/>
        <path fill="#B28B67" d="M87.576 57.077c10.558 21.499 26.419 48.24 27.355 48.929.624.46 18.168.91 52.633 1.353l.33 5.893c-39.086 6.06-60.09 7.914-63.014 5.559-4.385-3.532-30.243-34.123-42.703-53.969l25.4-7.765z"/>
        <path fill="#FF4B63" d="M155.08 105.995l.326 9.553c-27.253 11.01-44.951 14.486-53.095 10.43-8.143-4.058-22.179-24.235-42.108-60.532l32.382-9.9c14.822 30.18 22.74 45.844 23.751 46.992 1.012 1.148 13.927 2.3 38.744 3.457z"/>
        <path fill="#E4E4E4" d="M165.442 105.486c1.593-.814 2.8-1.272 3.622-1.373.984-.12 2.44-.138 4.368-.053l3.659 29.797c-2.55 1.1-4.033.827-4.45-.815a161.183 161.183 0 0 0-1.081-4.087l-8.093-13.086a.5.5 0 0 1 .185-.702l2.154-1.182c.555-1.635.773-2.936.655-3.902-.098-.792-.567-1.849-1.408-3.17a1 1 0 0 1 .389-1.427z"/>
        <g>
            <path fill="#997659" d="M31.561 73.84L12.887 84.76c-4.833.78-8.925 1.95-12.278 3.51-.817.6-1.863 1.88 1.25 1.963 3.113.082 6.383.309 6.696 1.406.314 1.096-1.688 2.162-.979 3.671.473 1.007 3.439-1.087 8.897-6.28l17.908-5.332-2.82-9.857zm56.091-37.592l-9.342 7.355c28.146 14.848 42.86 22.64 44.143 23.375 2.887 1.654 3.68 6.988 4.337 9.675 3.927-.988-.122-5.53 4.883-6.71 4.568-1.08 9.314-.274 11.344-5.676.25-.665-.085-2.17-2.018-2.04-4.817.323-12.274.13-13.848-.622-2.147-1.025-15.313-9.477-39.499-25.357z"/>
            <path fill="#AFB9C5" d="M39.018 26.897l-6.958 6.215c10.829 17.583 8.97 35.487-15.766 49.243l13.345 23.113c22.65-13.456 34.337-35.723 20.782-60.702-3.509-6.466-7.401-13.007-11.403-17.87z"/>
            <path fill="#C5CFD6" d="M40.989 21.96l-9.147 11.202C46.62 52.076 49.96 68.902 57.701 85.249l30.017-23.452c4.177 4.475 8.296 9.21 12.394 14.178l22.476-17.56C96.546 35.58 69.59 23.235 41.718 21.379l-.729.569v.011z"/>
            <path fill="#000" fill-opacity=".1" d="M61.9 38.512c9.982 11.182 16.554 20.533 19.717 28.051l6.101-4.766c-8.275-8.865-16.78-16.705-25.818-23.285z"/>
        </g>
    </g>
</svg>
