<svg xmlns="http://www.w3.org/2000/svg" width="304" height="1011" viewBox="0 0 304 1011">
    <g fill="none" fill-rule="evenodd">
        <path fill="#B28B67" d="M142.87 115.019c-2.675-18.384-.366-37.42 11.099-53.205 33.033-45.478 92.35 6.132 90.162 38.137-2.187 32.005-41.751 91.933-60.987 85.878-7.671-2.415-19.118-15.394-28.013-33.012l-30.942 69.51-53.053-33.15 71.735-74.158z"/>
        <path fill="#191847" d="M140.73 31.532c-.647-2.778-.06-5.798.578-8.617.662-2.928 1.363-5.866 2.369-8.715 2.009-5.694 5.59-11.449 11.562-13.113 4.789-1.335 9.93-.063 14.058 2.095 2.751 1.437 5.216 3.491 7.212 5.895 1.98 2.384 3.105 5.372 4.888 7.905 3.458-5.329 7.897-10.39 13.489-13.29 5.38-2.791 11.102-2.668 16.262-.357 5.296 2.372 9.394 6.526 12.275 11.626.722 1.276 1.415 2.575 2.011 3.927.499 1.132.957 2.406 1.824 3.282.968.976 1.942.669 3.199.298a21.853 21.853 0 0 1 4.492-.804c6.661-.52 13.506 1.833 17.525 7.15 1.852 2.45 3.23 5.508 3.521 8.716.26 2.86-.614 6.592.572 9.213.503 1.112 1.586.732 2.722.66 1.706-.107 3.412-.336 5.118-.412 2.396-.107 4.75.163 6.974.925 3.257 1.116 7.09 3.727 5.563 7.978-.573 1.597-1.747 2.955-2.73 4.31a409.076 409.076 0 0 1-4.09 5.555c-1.05 1.396-2.101 2.72-3.283 3.995-.63.68-1.992 1.83-2.146 2.81-.192 1.223 2.051 1.86 2.842 2.401 1.561 1.069 2.994 2.357 4.046 3.972.816 1.251 1.533 2.791 1.19 4.417-.21 1-.81 1.786-1.473 2.534-.796.899-.936 1.552-1.443 2.643 2.82.28 11.76 2.574 10.275 7.04-.494 1.486-2.118 2.5-3.341 3.25-2.147 1.316-4.486 2.282-6.803 3.15-4.834 1.81-9.885 2.819-14.906 3.244 2.888 4.295.633 10.23-4.803 11.21-2.4.432-4.653-.546-6.53-1.842-.686-.475-1.535-1.385-2.169-1.609-.341-.12-.821-.066-1.254-.296-2.844-1.517-5.51-4.1-7.796-6.375-4.072-4.052-7.156-9.124-8.675-14.864-.39-1.472-.85-2.468-2.127-3.247-1.118-.683-2.4-1.058-3.527-1.723-2.984-1.76-4.73-4.858-6.858-7.523-2.481 3.599-6.08 7.023-9.669 9.413-2.927 1.949-5.74.74-8.411-.598-8.542-4.277-16.104-10.186-24.187-15.22 6.708 6.66 14.328 12.44 20.77 19.372 2.912 3.133-1.245 3.834-3.77 4.543-4.159 1.168-8.089 3.379-11.57 6.12-.693-7.4-5.39-14.926-12.34-17.129-7.679-2.434-17.958 3.65-17.768 12.76.111 5.288 3.642 9.509 6.325 13.428-4.76 1.21-8.234 5.22-12.306 7.88-2.008 1.312-4.513 2.65-6.826 2.099-.856-.204-1.698-.702-2.618-.47-1.14.285-1.806.984-3.074 1.05-5.06.26-10.443-3.368-11.557-8.53-1.008-4.67 2.599-8.807 6.797-10.279-2.77-3.918-8.345-10.213-3.18-15.158-7.794-5.625-19.254-31.22-2.286-34.088-3.863-7.146-4.17-18.902 4.259-23.829 6.49-3.794 14.958-2.011 20.798 1.222"/>
        <path fill="#0E12CB" d="M-139.44 643.18c62.691 17.514 116.78 26.272 162.266 26.272 45.485 0 87.735-13.487 126.747-40.46C88.223 611.015 37.7 602.026-2 602.026c-39.699 0-85.513 13.718-137.44 41.153z"/>
        <path fill="#784931" d="M77.097 694.698a14.76 14.76 0 0 1-1.52-2.965C67.197 669.597-67.028 430.793-80.4 387.134H70.719c10.167 33.195 55.928 241.51 62.368 283.072 20.32 65.559 62.155 277.882 67.496 292.59 5.618 15.474-25.994 31.594-34.418 12.571-13.404-30.269-45.342-114.022-59.562-165.161-13.332-47.943-24.188-91.075-29.506-115.508z"/>
        <path fill="#915B3C" d="M-46.539 723.854c-61.366 15.492-285.828 43.499-301.232 47.892-15.845 4.519-29.739-28.105-10.153-35.172 31.165-11.245 117.037-37.226 169.102-47.829 41.877-8.527 80.091-15.486 105.747-19.561-2.174-71.985-12.11-244.739-5.597-282.05H45.04c-6.245 35.78-59.035 296.844-68.847 322.976-3.113 9.33-12.404 13.452-22.732 13.744z"/>
        <path fill="#E4E4E4" d="M-352.869 728.413c-9.89-2.058-16.985-2.708-21.285-1.95-4.617.814-11.219 2.774-19.805 5.88l25.549 144.894c13.07 1.577 19.385-1.777 18.944-10.064-.44-8.287-.736-15.183-.885-20.69l18.436-74.179a1.05 1.05 0 0 0-.792-1.278l-12.79-2.829c-4.817-6.894-7.64-12.689-8.467-17.384-.767-4.347.128-10.934 2.685-19.76a2.1 2.1 0 0 0-1.59-2.64zM157.798 969.447c-3.744 9.382-5.616 16.257-5.616 20.623 0 4.689.784 11.53 2.35 20.525h147.13c3.824-12.598 1.617-19.4-6.62-20.404-8.238-1.004-15.081-1.911-20.53-2.72l-69.85-31.038a1.05 1.05 0 0 0-1.397.558l-5.007 12.105c-7.626 3.546-13.822 5.32-18.59 5.32-4.415 0-10.746-2.026-18.994-6.076a2.1 2.1 0 0 0-2.876 1.107z"/>
        <path fill="#2227FF" d="M-88.24 387.134c58.922-16.839 114.674-16.839 167.253 0 18.294 83.368 62.744 116.457 70.56 244.275-88.853 44.099-198.613-31.451-290.08 11.554-26.133-60.154 10.454-205.02 52.267-255.829z"/>
        <g>
            <path fill="#B28B67" d="M204.632 443.081L247.7 537c16.77 16.283 29.573 32.068 38.407 47.357 1.544 4.591 2.118 12.474-10.294 4.28-12.412-8.193-25.837-16.251-30.082-12.808-4.246 3.443.663 13.1-6.268 17.078-4.62 2.653-10.47-13.67-17.55-48.97l-55.435-69.913 38.155-30.942zm-309.725-107.978l50.792 19.727c-70.433 89.605-108.096 137.037-112.987 142.297-11.005 11.834-7.268 37.725-6.568 51.136-19.46 1.076-7.103-25.83-31.796-24.1-22.538 1.58-43.28 12.154-60.121-9.987-2.07-2.722-2.618-10.189 6.468-12.372 22.637-5.438 56.72-17.08 62.93-22.836 8.47-7.848 38.896-55.803 91.282-143.865z"/>
            <path fill="#191847" d="M121.623 176.58l22.438 4.46c1.398 104.68 33.01 211.442 94.837 320.286l-100.143 56.926C89.008 417.97 75.183 287.63 121.623 176.58z"/>
            <path fill="#DDE3E9" d="M-71.945 406.577l187.437 71.95c-2.788-122.531 10.02-220.795 38.425-294.79l-53.299-30.15c-71.94 54.596-118.354 137.998-172.563 252.99z"/>
            <path fill="#2F3676" d="M99.406 153.167l.038-.032 3.69 1.417c4.358 1.848 10.98 4.705 19.864 8.57l-1.365 44.39c-16.876 48.284-45.358 147.709-85.447 298.275l-122.87-47.165a803.854 803.854 0 0 0-10.018 30.861l-91.359-35.07C-115.057 305.08-19.245 204.645 99.376 153.11l.03.057z"/>
            <path fill="#000" fill-opacity=".1" d="M-29.5 333.914c-20.408 63.615-28.131 109.904-23.171 138.868l-34.35-13.186c15.695-45.38 34.868-87.274 57.52-125.682z"/>
            <path fill="#FFF" fill-opacity=".2" d="M-30.66 394.422l71.426-4.983-10.84 28.24z"/>
        </g>
    </g>
</svg>
