<svg width="146px" height="84px" viewBox="0 0 146 84" version="1.1" xmlns="http://www.w3.org/2000/svg" xmlns:xlink="http://www.w3.org/1999/xlink">
    <g id="Symbols" stroke="none" stroke-width="1" fill="none" fill-rule="evenodd">
        <g id="AM_creative/block3/Functions/Reset-Browser-Settings" transform="translate(-817.000000, -119.000000)">
            <g id="Pict" transform="translate(813.000000, 110.000000)">
                <g>
                    <rect id="Rectangle" x="0" y="0" width="197" height="121"></rect>
                    <g id="pict/Browser_Clean&amp;Reset" opacity="0.745535714" transform="translate(63.000000, 0.000000)">
                        <g id="rbs-dark-copy" transform="translate(15.000000, 10.000000)">
                            <g id="Group" transform="translate(16.000000, 2.000000)">
                                <g id="d-link"></g>
                            </g>
                            <g id="Group" transform="translate(1.000000, 16.000000)">
                                <g id="f-link"></g>
                            </g>
                            <g id="Group" transform="translate(34.000000, 2.000000)">
                                <g id="h-link" fill="#000000" fill-rule="nonzero">
                                    <path d="M0.83,0 L0.83,74" id="h"></path>
                                </g>
                                <g id="h-link"></g>
                            </g>
                            <g id="Group">
                                <g id="j-link" transform="translate(2.666667, 37.473684)" fill="#000000" fill-rule="nonzero">
                                    <path d="M68,0.793964912 L0.0189767442,0.793964912" id="j"></path>
                                </g>
                                <g id="j-link"></g>
                            </g>
                            <g id="Group" opacity="0.901" fill="#FFFFFF" fill-rule="nonzero">
                                <path d="M23.179754,56.2285313 C22.8411134,56.2723926 22.5404185,56.3014601 22.2776693,56.3157339 C16.1055,56.6519985 9.76757813,50.9418745 3.25455729,45.4657002 C3.41922733,46.1554412 3.5927656,46.8538244 3.77574017,47.5557235 C3.71927694,47.4790093 3.66345699,47.4020484 3.60828493,47.3248436 C4.10602206,49.5403269 4.79292294,51.6754709 5.64937292,53.7092381 C6.33934326,55.6319333 7.1185718,57.4617258 8,59.0818286 C14.0365001,70.1761204 23.6234114,76.9054882 39.6284795,74.9799047 L39.9723307,74.9383805 L40.4979217,77.257821 C39.0245686,77.4555268 37.5234168,77.557377 36,77.557377 C16.1005074,77.557377 0,60.1790314 0,38.7786885 C0,17.3783456 16.1005074,0 36,0 C55.8994926,0 72,17.3783456 72,38.7786885 C72,53.7501781 64.1199654,66.7531907 52.5719286,73.2145224 L68.641276,53.4771588 L66.7270325,52.7808261 C67.741637,50.1788215 68.4820509,47.4207387 68.9089706,44.5487321 C67.6796483,47.1128825 65.7725786,49.4719104 63.3265035,51.5438363 L60.3480866,50.4603957 C64.3093722,47.51157 66.9255833,43.8649349 67.6312798,39.9053115 L57.8964933,39.9053115 C57.8749223,43.1494256 57.6261169,46.2998235 57.1755586,49.3063445 L54.6144683,48.3747122 C54.9964477,45.6671365 55.2094659,42.83082 55.2297597,39.9053115 L35.7733333,39.9053115 L35.7733333,41.520987 L33.1066667,40.5509499 L33.1066667,39.9053115 L17.3865978,39.9053115 C17.42439,45.3531294 18.1304922,50.4916557 19.3514567,55.0655038 C20.5787895,55.5027877 21.8570801,55.891955 23.179754,56.2285313 Z M33.1066667,53.9155158 L33.1066667,45.4933306 L34.6666667,53.4771588 C34.1310207,53.6293777 33.6110207,53.7754967 33.1066667,53.9155158 Z M17.4235505,37.184 L33.1066667,37.184 L33.1066667,17.8104194 C28.5895289,18.010039 24.3374076,18.7858454 20.5318954,20.0142519 C18.7597824,24.9915283 17.6401669,30.8537482 17.4235505,37.184 Z M55.1928085,37.184 C54.9862508,31.1476967 53.9586093,25.536968 52.3270846,20.7133018 C47.5080144,18.8789463 41.8497025,17.7990498 35.7733334,17.7602582 L35.7733333,37.184 L55.1928085,37.184 Z M14.7552736,37.184 C14.9439841,31.4275155 15.849328,26.0029 17.3240099,21.2000986 C8.9263955,24.7249398 3.35589307,30.6075876 3.05757093,37.184 L14.7552736,37.184 Z M14.7198655,39.9053115 L3.23704202,39.9053115 C4.2444229,45.557669 9.14496008,50.5722336 16.2938501,53.8296002 C15.3067383,49.5195237 14.7525441,44.8199594 14.7198663,39.9053115 Z M57.8610854,37.184 L67.8107509,37.184 C67.5370686,31.150765 62.826149,25.7014248 55.5658731,22.1208157 C56.8789245,26.6919264 57.6843365,31.792398 57.8610854,37.184 Z M33.1066667,4.59975648 C28.645612,6.054838 24.6625665,10.4898958 21.821703,16.7995431 C25.3331582,15.8474107 29.132574,15.2541636 33.1066667,15.0867386 L33.1066667,4.59975648 Z M35.7733333,4.09627494 L35.7733333,15.0388965 C41.2507462,15.0722706 46.4399681,15.9132134 51.0563214,17.3935162 C47.5530656,9.26516809 42.1887726,4.08196721 36.3081795,4.08196721 C36.1294077,4.08196721 35.951113,4.08675741 35.7733333,4.09627494 Z M4.47802663,27.0231751 C7.67496314,23.1390761 12.5608554,19.9507287 18.4867656,17.8415751 C21.0344735,11.2742068 24.7261416,6.18894145 29.0997415,3.4952641 C17.5885483,6.1174394 8.25586905,15.1671504 4.47802663,27.0231751 Z M68.2754446,29.7308257 C65.214535,16.9163003 55.8045155,6.87349457 43.9048419,3.74180689 C48.280433,6.60497084 51.946499,11.8797916 54.4271363,18.6294718 C60.7021081,21.2374665 65.6110358,25.1109412 68.2754446,29.7308257 Z" id="Combined-Shape"></path>
                                <path d="M63.3231293,55.1007242 L36.3319365,45.3133257 L38.7240301,55.7099812 L36.8680839,56.2142143 L36.5129453,56.3106959 C35.8809624,56.4810103 35.2196248,56.6671542 34.4193328,56.8996263 C26.6675295,59.1480038 25.9791724,59.3048123 22.9770346,59.4643564 C18.2212537,59.7178226 13.9130598,58.314115 9.46334286,54.9602997 C9.99009943,56.232779 10.5834909,57.4474058 11.2857779,58.7101779 C16.9601605,68.9122331 26.3486758,73.420329 40.2531629,71.783835 L42.3641827,71.5344457 L43.9877928,78.5912424 L63.3231293,55.1007242 Z M42.9498956,82.9992367 L40.817329,73.7310941 L40.4878049,73.7700231 C25.1496146,75.5752576 15.322921,70.0832228 9.53794173,59.6823243 C7.51895259,56.0520092 6.40260552,52.8407527 5.33333333,48.459338 C11.6720028,55.2589273 16.9555972,57.782439 22.8705928,57.4671909 C25.7145131,57.316055 26.3802864,57.1488895 33.8622028,54.9787916 C34.6505202,54.7497978 35.3297434,54.5582063 35.9925278,54.3795911 L36.3437213,54.284177 L33.5588314,42.1803279 L66.6666667,54.1857097 L42.9498956,82.9992367 Z" id="Path"></path>
                            </g>
                        </g>
                    </g>
                    <g id="Group" transform="translate(4.000000, 9.000000)" opacity="0.574614025">
                        <g id="Rectangle_not_selected" transform="translate(0.000000, 14.000000)" stroke="#FFFFFF">
                            <rect x="0.5" y="0.5" width="25" height="8"></rect>
                        </g>
                        <g id="Rectangle_not_selected" transform="translate(0.000000, 29.000000)" stroke="#FFFFFF">
                            <rect x="0.5" y="0.5" width="25" height="8"></rect>
                        </g>
                        <g id="Rectangle_not_selected" transform="translate(0.000000, 44.000000)" stroke="#FFFFFF">
                            <rect x="0.5" y="0.5" width="25" height="8"></rect>
                        </g>
                        <g id="Rectangle_selected" transform="translate(0.000000, 74.000000)" fill="#FFFFFF">
                            <rect x="0" y="0" width="26" height="9"></rect>
                        </g>
                        <g id="Rectangle_not_selected" transform="translate(0.000000, 60.000000)" stroke="#FFFFFF">
                            <rect x="0.5" y="0.5" width="25" height="8"></rect>
                        </g>
                        <g id="Rectangle_not_selected" stroke="#FFFFFF">
                            <rect x="0.5" y="0.5" width="25" height="8"></rect>
                        </g>
                    </g>
                </g>
            </g>
        </g>
    </g>
</svg>