<svg width="157px" height="83px" viewBox="0 0 157 83" version="1.1" xmlns="http://www.w3.org/2000/svg" xmlns:xlink="http://www.w3.org/1999/xlink">
    <defs>
        <polygon id="path-1" points="0.014 0.86148105 72.1049091 0.86148105 72.1049091 46.3285364 0.014 46.3285364"></polygon>
        <polygon id="path-3" points="0.0697272727 0.2464793 70.9788182 0.2464793 70.9788182 46.9100362 38.0053407 46.9100362 0.0697272727 46.9100362"></polygon>
        <linearGradient x1="50%" y1="139.323%" x2="98.7803458%" y2="-224.665%" id="linearGradient-5">
            <stop stop-color="#FFFFFF" offset="0%"></stop>
            <stop stop-color="#ABD9E9" offset="100%"></stop>
        </linearGradient>
        <polygon id="path-6" points="0.014 0.86148105 72.1049091 0.86148105 72.1049091 46.3285364 0.014 46.3285364"></polygon>
        <polygon id="path-8" points="0.0697272727 0.2464793 70.9788182 0.2464793 70.9788182 46.9100362 38.0053407 46.9100362 0.0697272727 46.9100362"></polygon>
    </defs>
    <g id="Symbols" stroke="none" stroke-width="1" fill="none" fill-rule="evenodd">
        <g id="AM_creative/block3/Functions/Clear-removal-process" transform="translate(-817.000000, -119.000000)">
            <g id="Pict" transform="translate(813.000000, 110.000000)">
                <g>
                    <rect id="Rectangle" x="0" y="0" width="197" height="121"></rect>
                    <g id="pict/Remove_All_Known_Threats-" opacity="0.745535714" transform="translate(63.000000, 0.000000)">
                        <g id="on-run-pic" transform="translate(5.000000, 21.000000)">
                            <g id="Group" transform="translate(0.500000, 0.000000)">
                                <g id="d-link" transform="translate(0.000000, 50.253061)" fill="#FFFFFF" fill-rule="nonzero">
                                    <path d="M2.80804314,2.12218076 L4.75538058,5.03332774 C5.84529032,6.66177723 8.46751037,8.07201166 10.4011818,8.07201166 L81.0349091,8.07201166 C82.9477441,8.07201166 85.5024582,6.6405304 86.5284397,4.986119 L88.304643,2.12218076 L2.80804314,2.12218076 Z M0.374405755,-0.877819242 L90.6406191,-0.877819242 C91.5795031,-0.877819242 92.3406191,-0.116703317 92.3406191,0.822180758 C92.3406191,1.13879397 92.2522009,1.449116 92.0853268,1.7181828 L89.0779508,6.5672557 C87.5066054,9.10107497 83.9891442,11.0720117 81.0349091,11.0720117 L10.4011818,11.0720117 C7.46305308,11.0720117 3.90717378,9.15965369 2.26204348,6.70164126 L-1.03860557,1.76737862 C-1.56062393,0.986994012 -1.35117671,-0.0688122032 -0.570792105,-0.590830567 C-0.291076739,-0.777939022 0.0378789948,-0.877819242 0.374405755,-0.877819242 Z" id="d"></path>
                                </g>
                                <polygon id="Path" fill="#FFFFFF" fill-rule="nonzero" points="40.0705455 55.9194169 40.0705455 53.9194169 52.5402727 53.9194169 52.5402727 55.9194169"></polygon>
                                <rect id="Rectangle" stroke="#FFFFFF" stroke-width="3" fill-rule="nonzero" x="9.23472727" y="0" width="74.1413636" height="48.8651195" rx="2"></rect>
                                <g id="Clipped" transform="translate(23.636364, 19.144023)" fill="#FFFFFF" fill-rule="nonzero">
                                    <g id="Group">
                                        <path d="M13.9719521,15.0923985 L11.9309141,16.8523183 L11.2810023,16.0590405 L-0.376505167,1.82992552 C-0.850089721,1.26045313 -0.783443136,0.415035798 -0.229408835,-0.0687348774 C0.0467854953,-0.312653809 0.411729535,-0.431272927 0.778820942,-0.39548419 C1.1452247,-0.359762494 1.47981049,-0.173538703 1.68474493,0.0937536195 L13.9719521,15.0923985 Z M12.5804545,14.9718227 L11.9274289,14.214487 L11.4015198,14.667961 L12.043106,15.4120301 L12.5804545,14.9718227 Z" id="Path"></path>
                                    </g>
                                </g>
                                <g id="Clipped" transform="translate(32.967230, 29.912536)" fill="#FFFFFF" fill-rule="nonzero">
                                    <g id="Group">
                                        <g id="o-link">
                                            <path d="M0.87001739,3.43743273 L10.9052535,15.9015889 C11.1245307,16.1811045 11.44626,16.3571651 11.7957536,16.3896271 C12.1449229,16.422059 12.4922609,16.3084216 12.756551,16.0753457 C13.3326167,15.564689 13.4057847,14.680887 12.9209664,14.0793363 L2.88482559,1.61553285 C2.6655764,1.33655048 2.34419883,1.16084717 1.99513145,1.12839499 C1.64638808,1.09597293 1.29944063,1.2092656 1.03544502,1.44159462 C0.459110571,1.95199641 0.385551612,2.83582005 0.87001739,3.43743273 Z M0.373624512,0.691933907 C0.84512896,0.276981206 1.46445261,0.0747464514 2.08770053,0.132688724 C2.71062444,0.190600874 3.28260017,0.503311031 3.66739091,0.992992527 L13.6997083,13.451992 C14.5192416,14.4688488 14.3959203,15.9584571 13.4189399,16.8245048 C12.9472919,17.2404523 12.3272759,17.4433009 11.7032687,17.3853412 C11.079586,17.3274117 10.5069887,17.014068 10.1224029,16.5237664 L0.0911441199,4.06461407 C-0.728007742,3.04738608 -0.604027257,1.55773908 0.373624512,0.691933907 Z" id="o"></path>
                                        </g>
                                    </g>
                                </g>
                                <g id="Clipped" transform="translate(10.454545, 2.393003)">
                                    <mask id="mask-2" fill="white">
                                        <use xlink:href="#path-1"></use>
                                    </mask>
                                    <g id="f"></g>
                                    <ellipse id="Oval" fill="#FFFFFF" fill-rule="nonzero" mask="url(#mask-2)" cx="35.8502727" cy="44.8209446" rx="2.01381818" ry="2.03405248"></ellipse>
                                </g>
                                <g id="Clipped" transform="translate(10.636364, 1.196501)">
                                    <mask id="mask-4" fill="white">
                                        <use xlink:href="#path-3"></use>
                                    </mask>
                                    <g id="f"></g>
                                </g>
                            </g>
                        </g>
                        <g id="on-run-pic-copy" transform="translate(5.000000, 21.000000)">
                            <g id="Group" transform="translate(0.500000, 0.000000)">
                                <g id="d-link" transform="translate(0.000000, 50.253061)" fill-rule="nonzero" stroke="#FFFFFF" stroke-width="3">
                                    <path d="M0.374405755,0.622180758 L90.6406191,0.622180758 C90.751076,0.622180758 90.8406191,0.711723808 90.8406191,0.822180758 C90.8406191,0.859429372 90.8302169,0.895937846 90.8105847,0.927592763 L87.8031818,5.77670904 C86.5031818,7.87297959 83.4659091,9.57201166 81.0349091,9.57201166 L10.4011818,9.57201166 C7.96309091,9.57201166 4.875,7.90887464 3.50881818,5.86764315 L0.208169129,0.933380506 C0.146755203,0.841570553 0.171396053,0.717358057 0.263206007,0.655944132 C0.296113697,0.633931372 0.334814372,0.622180758 0.374405755,0.622180758 Z" id="d"></path>
                                </g>
                                <path d="M41.0705455,54.9194169 L51.5402727,54.9194169" id="Path" stroke="#FFFFFF" stroke-width="2" stroke-linecap="square"></path>
                                <rect id="Rectangle" stroke="#FFFFFF" stroke-width="3" fill-rule="nonzero" x="9.23472727" y="0" width="74.1413636" height="48.8651195" rx="2"></rect>
                                <g id="Clipped" transform="translate(23.636364, 19.144023)" fill="url(#linearGradient-5)" fill-rule="nonzero" stroke="#FFFFFF" stroke-width="2">
                                    <g id="Group">
                                        <path d="M12.5804545,14.9718227 L0.911181818,0.727472886 C0.855301296,0.654801541 0.772336091,0.608624759 0.68178828,0.599797008 C0.591240469,0.590969256 0.501096334,0.620269139 0.432545455,0.680809329 C0.283554637,0.810910471 0.265641572,1.03813916 0.392363636,1.19051895 L12.0545455,15.4252968 L12.5804545,14.9718227 Z" id="Path"></path>
                                    </g>
                                </g>
                                <g id="Clipped" transform="translate(32.967230, 29.912536)" fill="#FFFFFF" fill-rule="nonzero" stroke="#FFFFFF">
                                    <g id="Group">
                                        <g id="o-link">
                                            <path d="M0.480587738,3.75103207 C-0.171228065,2.94160306 -0.0724583429,1.75486775 0.703951374,1.0672793 C1.07228479,0.743123404 1.55542035,0.585359688 2.04141599,0.630541856 C2.52741164,0.675724024 2.97408828,0.919930758 3.27795137,1.30657959 L13.3104059,13.7657493 C13.9625131,14.5748679 13.8642685,15.761573 13.0882241,16.449502 C12.7197764,16.774437 12.2360994,16.9326799 11.7495112,16.8874842 C11.262923,16.8422884 10.8157597,16.5975863 10.5118605,16.2102017 L0.480587738,3.75103207 Z" id="o"></path>
                                        </g>
                                    </g>
                                </g>
                                <g id="Clipped" transform="translate(10.454545, 2.393003)">
                                    <mask id="mask-7" fill="white">
                                        <use xlink:href="#path-6"></use>
                                    </mask>
                                    <g id="f"></g>
                                    <ellipse id="Oval" fill="#FFFFFF" fill-rule="nonzero" mask="url(#mask-7)" cx="35.8502727" cy="44.8209446" rx="2.01381818" ry="2.03405248"></ellipse>
                                </g>
                                <g id="Clipped" transform="translate(10.636364, 1.196501)">
                                    <mask id="mask-9" fill="white">
                                        <use xlink:href="#path-8"></use>
                                    </mask>
                                    <g id="f"></g>
                                </g>
                            </g>
                        </g>
                    </g>
                    <g id="Group" transform="translate(4.000000, 9.000000)" opacity="0.574614025">
                        <g id="Rectangle_not_selected" transform="translate(0.000000, 14.000000)" stroke="#FFFFFF">
                            <rect x="0.5" y="0.5" width="25" height="8"></rect>
                        </g>
                        <g id="Rectangle_not_selected" transform="translate(0.000000, 29.000000)" stroke="#FFFFFF">
                            <rect x="0.5" y="0.5" width="25" height="8"></rect>
                        </g>
                        <g id="Rectangle_not_selected" transform="translate(0.000000, 44.000000)" stroke="#FFFFFF">
                            <rect x="0.5" y="0.5" width="25" height="8"></rect>
                        </g>
                        <g id="Rectangle_not_selected" transform="translate(0.000000, 74.000000)" stroke="#FFFFFF">
                            <rect x="0.5" y="0.5" width="25" height="8"></rect>
                        </g>
                        <g id="Rectangle_selected" transform="translate(0.000000, 60.000000)" fill="#FFFFFF">
                            <rect x="0" y="0" width="26" height="9"></rect>
                        </g>
                        <g id="Rectangle_not_selected" stroke="#FFFFFF">
                            <rect x="0.5" y="0.5" width="25" height="8"></rect>
                        </g>
                    </g>
                </g>
            </g>
        </g>
    </g>
</svg>