<svg width="150px" height="83px" viewBox="0 0 150 83" version="1.1" xmlns="http://www.w3.org/2000/svg" xmlns:xlink="http://www.w3.org/1999/xlink">
    <g id="Symbols" stroke="none" stroke-width="1" fill="none" fill-rule="evenodd">
        <g id="AM_creative/block3/Functions/Quick-Scan" transform="translate(-817.000000, -119.000000)">
            <g id="Pict" transform="translate(813.000000, 110.000000)">
                <g>
                    <rect id="Rectangle" x="0" y="0" width="197" height="121"></rect>
                    <g id="pict/Free_Scan_for_Threats" opacity="0.745535714" transform="translate(63.000000, 0.000000)">
                        <g id="default" transform="translate(12.500000, 13.000000)">
                            <path d="M29.4990711,1.94603904 C14.5443932,1.94603904 2.38001666,14.5311902 2.38001666,29.9980865 C2.38001666,45.4688098 14.5443932,58.0520475 29.4990711,58.0520475 C44.4556068,58.0520475 56.6218411,45.4688098 56.6218411,30 C56.6218411,14.5311902 44.4556068,1.94795254 29.4990711,1.94795254 M29.4990711,59.9980865 C13.5096409,59.9980865 0.5,46.5442021 0.5,30 C0.5,13.459625 13.5096409,0 29.4990711,0 C45.4903591,0 58.5,13.459625 58.5,30 C58.5,46.5442021 45.4903591,60 29.5009289,60" id="Shape" fill="#FFFFFF" fill-rule="nonzero"></path>
                            <path d="M29.4990711,1.94603904 C14.5443932,1.94603904 2.38001666,14.5311902 2.38001666,29.9980865 C2.38001666,45.4688098 14.5443932,58.0520475 29.4990711,58.0520475 C44.4556068,58.0520475 56.6218411,45.4688098 56.6218411,30 C56.6218411,14.5311902 44.4556068,1.94795254 29.4990711,1.94795254 L29.4990711,1.94603904 Z M29.4990711,59.9980865 C13.5096409,59.9980865 0.5,46.5442021 0.5,30 C0.5,13.459625 13.5096409,0 29.4990711,0 C45.4903591,0 58.5,13.459625 58.5,30 C58.5,46.5442021 45.4903591,60 29.5009289,60 L29.4990711,59.9980865 Z" id="Shape" stroke="#FFFFFF" stroke-width="2"></path>
                            <path d="M76.5447235,76.9980352 C76.2802834,76.9982261 76.0275629,76.8844314 75.8465753,76.683674 L50.7321072,48.6465779 C50.3976013,48.242571 50.4281053,47.6358866 50.8012983,47.2704604 C51.1744913,46.9050342 51.7579042,46.9105783 52.1246299,47.2830358 L77.2428718,75.3162024 C77.5024218,75.6072788 77.5723547,76.0305144 77.4211552,76.3951781 C77.2699557,76.7598418 76.9261694,76.9970873 76.5447235,77" id="Path" fill="#FFFFFF" fill-rule="nonzero"></path>
                            <path d="M76.5447235,76.9980352 C76.2802834,76.9982261 76.0275629,76.8844314 75.8465753,76.683674 L50.7321072,48.6465779 C50.3976013,48.242571 50.4281053,47.6358866 50.8012983,47.2704604 C51.1744913,46.9050342 51.7579042,46.9105783 52.1246299,47.2830358 L77.2428718,75.3162024 C77.5024218,75.6072788 77.5723547,76.0305144 77.4211552,76.3951781 C77.2699557,76.7598418 76.9261694,76.9970873 76.5447235,77 L76.5447235,76.9980352 Z" id="Path" stroke="#FFFFFF" stroke-width="2"></path>
                        </g>
                    </g>
                    <g id="Group" transform="translate(4.000000, 9.000000)" opacity="0.574614025">
                        <g id="Rectangle_not_selected" transform="translate(0.000000, 14.000000)" stroke="#FFFFFF">
                            <rect x="0.5" y="0.5" width="25" height="8"></rect>
                        </g>
                        <g id="Rectangle_not_selected" transform="translate(0.000000, 29.000000)" stroke="#FFFFFF">
                            <rect x="0.5" y="0.5" width="25" height="8"></rect>
                        </g>
                        <g id="Rectangle_selected" transform="translate(0.000000, 44.000000)" fill="#FFFFFF">
                            <rect x="0" y="0" width="26" height="9"></rect>
                        </g>
                        <g id="Rectangle_not_selected" transform="translate(0.000000, 74.000000)" stroke="#FFFFFF">
                            <rect x="0.5" y="0.5" width="25" height="8"></rect>
                        </g>
                        <g id="Rectangle_not_selected" transform="translate(0.000000, 60.000000)" stroke="#FFFFFF">
                            <rect x="0.5" y="0.5" width="25" height="8"></rect>
                        </g>
                        <g id="Rectangle_not_selected" stroke="#FFFFFF">
                            <rect x="0.5" y="0.5" width="25" height="8"></rect>
                        </g>
                    </g>
                </g>
            </g>
        </g>
    </g>
</svg>