<svg width="214" height="50px" version="1.1" id="Layer_1" xmlns="http://www.w3.org/2000/svg" xmlns:xlink="http://www.w3.org/1999/xlink" x="0px" y="0px"
	 viewBox="0 0 192 50" style="enable-background:new 0 0 192 50;" xml:space="preserve">
<style type="text/css">
	.st0{fill:#2C4868;}
	.st1{filter:url(#Adobe_OpacityMaskFilter);}
	.st2{fill:#FFFFFF;}
	.st3{mask:url(#mask-2_1_);}
	.st4{filter:url(#Adobe_OpacityMaskFilter_1_);}
	.st5{mask:url(#mask-4_1_);}
	.st6{filter:url(#Adobe_OpacityMaskFilter_2_);}
	.st7{mask:url(#mask-2_2_);}
	.st8{filter:url(#Adobe_OpacityMaskFilter_3_);}
	.st9{mask:url(#mask-2_3_);fill:#2C4868;}
	.st10{filter:url(#Adobe_OpacityMaskFilter_4_);}
	.st11{mask:url(#mask-2_4_);fill:#4C6A92;}
	.st12{filter:url(#Adobe_OpacityMaskFilter_5_);}
	.st13{mask:url(#mask-2_5_);fill:#2C4868;}
	.st14{filter:url(#Adobe_OpacityMaskFilter_6_);}
	.st15{mask:url(#mask-2_6_);fill:#2C4868;}
</style>
<title>LOGO_GRIDINSOFT</title>
<desc>Created with Sketch.</desc>
<g id="LOGO_GRIDINSOFT">
	<g id="Group" transform="translate(2275.000000, 93.000000)">
		<path id="Keep-your-privacy-we" class="st0" d="M-2211.8-55.1h1.2v4.5l4.5-4.5h1.7l-3.8,3.7l3.9,5.5h-1.6l-3.2-4.6l-1.5,1.4v3.2
			h-1.2V-55.1z M-2200.5-52.8c0.5,0,0.9,0.1,1.4,0.3c0.4,0.2,0.8,0.5,1,0.9c0.2,0.3,0.4,0.7,0.5,1.2c0.1,0.3,0.1,0.8,0.1,1.5h-4.9
			c0,0.7,0.2,1.2,0.5,1.6s0.8,0.6,1.4,0.6c0.6,0,1.1-0.2,1.4-0.6c0.2-0.2,0.3-0.5,0.4-0.8h1.1c0,0.2-0.1,0.5-0.3,0.8
			c-0.2,0.3-0.4,0.6-0.6,0.7c-0.3,0.3-0.8,0.6-1.3,0.7c-0.3,0.1-0.6,0.1-0.9,0.1c-0.8,0-1.5-0.3-2.1-0.9c-0.6-0.6-0.9-1.5-0.9-2.6
			c0-1.1,0.3-2,0.9-2.6C-2202.2-52.5-2201.4-52.8-2200.5-52.8z M-2198.7-49.9c0-0.5-0.2-0.9-0.3-1.2c-0.3-0.5-0.8-0.8-1.6-0.8
			c-0.5,0-1,0.2-1.3,0.6c-0.4,0.4-0.5,0.9-0.6,1.4H-2198.7z M-2193.3-52.8c0.5,0,0.9,0.1,1.4,0.3s0.8,0.5,1,0.9
			c0.2,0.3,0.4,0.7,0.5,1.2c0.1,0.3,0.1,0.8,0.1,1.5h-4.9c0,0.7,0.2,1.2,0.5,1.6c0.3,0.4,0.8,0.6,1.4,0.6c0.6,0,1.1-0.2,1.4-0.6
			c0.2-0.2,0.3-0.5,0.4-0.8h1.1c0,0.2-0.1,0.5-0.3,0.8c-0.2,0.3-0.4,0.6-0.6,0.7c-0.3,0.3-0.8,0.6-1.3,0.7c-0.3,0.1-0.6,0.1-0.9,0.1
			c-0.8,0-1.5-0.3-2.1-0.9c-0.6-0.6-0.9-1.5-0.9-2.6c0-1.1,0.3-2,0.9-2.6S-2194.2-52.8-2193.3-52.8z M-2191.5-49.9
			c0-0.5-0.2-0.9-0.3-1.2c-0.3-0.5-0.8-0.8-1.6-0.8c-0.5,0-1,0.2-1.3,0.6c-0.4,0.4-0.5,0.9-0.6,1.4H-2191.5z M-2186-46.7
			c0.5,0,1-0.2,1.3-0.7c0.3-0.4,0.5-1.1,0.5-2c0-0.5-0.1-1-0.2-1.4c-0.3-0.7-0.8-1.1-1.6-1.1c-0.8,0-1.3,0.4-1.6,1.2
			c-0.2,0.4-0.2,1-0.2,1.6c0,0.5,0.1,1,0.2,1.3C-2187.3-47.1-2186.8-46.7-2186-46.7z M-2188.9-52.7h1.1v0.9c0.2-0.3,0.5-0.5,0.7-0.7
			c0.4-0.3,0.8-0.4,1.3-0.4c0.8,0,1.4,0.3,1.9,0.9c0.5,0.6,0.8,1.4,0.8,2.5c0,1.5-0.4,2.5-1.2,3.1c-0.5,0.4-1.1,0.6-1.7,0.6
			c-0.5,0-0.9-0.1-1.3-0.3c-0.2-0.1-0.4-0.3-0.7-0.6v3.4h-1.1V-52.7z M-2173.7-52.7h1.3c-0.2,0.4-0.5,1.4-1.1,3
			c-0.4,1.2-0.8,2.1-1,2.8c-0.7,1.7-1.1,2.8-1.4,3.1c-0.3,0.4-0.7,0.6-1.4,0.6c-0.2,0-0.3,0-0.4,0c-0.1,0-0.2,0-0.3-0.1v-1
			c0.2,0.1,0.3,0.1,0.4,0.1c0.1,0,0.2,0,0.2,0c0.2,0,0.4,0,0.5-0.1c0.1-0.1,0.2-0.2,0.2-0.3c0,0,0.1-0.2,0.2-0.5
			c0.1-0.3,0.2-0.5,0.3-0.7l-2.5-6.9h1.3l1.8,5.5L-2173.7-52.7z M-2168.8-46.7c0.8,0,1.3-0.3,1.5-0.9c0.3-0.6,0.4-1.2,0.4-1.9
			c0-0.6-0.1-1.1-0.3-1.5c-0.3-0.6-0.9-0.9-1.6-0.9c-0.7,0-1.2,0.3-1.5,0.8c-0.3,0.5-0.5,1.2-0.5,1.9c0,0.7,0.2,1.3,0.5,1.8
			C-2169.9-46.9-2169.4-46.7-2168.8-46.7z M-2168.7-52.9c0.9,0,1.6,0.3,2.2,0.9c0.6,0.6,0.9,1.4,0.9,2.6c0,1.1-0.3,2-0.8,2.7
			c-0.5,0.7-1.3,1.1-2.5,1.1c-0.9,0-1.7-0.3-2.2-0.9c-0.5-0.6-0.8-1.5-0.8-2.5c0-1.1,0.3-2,0.9-2.7S-2169.7-52.9-2168.7-52.9z
			 M-2163.1-52.7v4.5c0,0.3,0.1,0.6,0.2,0.8c0.2,0.4,0.6,0.6,1.1,0.6c0.8,0,1.3-0.4,1.6-1.1c0.2-0.4,0.2-0.9,0.2-1.6v-3.3h1.1v6.7
			h-1.1l0-1c-0.1,0.3-0.3,0.5-0.5,0.6c-0.4,0.4-1,0.5-1.6,0.5c-1,0-1.6-0.3-2-1c-0.2-0.3-0.3-0.8-0.3-1.4v-4.6H-2163.1z
			 M-2156.9-52.7h1.1v1.2c0.1-0.2,0.3-0.5,0.6-0.8c0.3-0.3,0.7-0.5,1.2-0.5c0,0,0.1,0,0.1,0c0.1,0,0.1,0,0.3,0v1.2
			c-0.1,0-0.1,0-0.2,0c-0.1,0-0.1,0-0.2,0c-0.6,0-1,0.2-1.3,0.6s-0.5,0.8-0.5,1.3v3.9h-1.1V-52.7z M-2146.1-46.7
			c0.5,0,1-0.2,1.3-0.7c0.3-0.4,0.5-1.1,0.5-2c0-0.5-0.1-1-0.2-1.4c-0.3-0.7-0.8-1.1-1.6-1.1c-0.8,0-1.3,0.4-1.6,1.2
			c-0.2,0.4-0.2,1-0.2,1.6c0,0.5,0.1,1,0.2,1.3C-2147.4-47.1-2146.9-46.7-2146.1-46.7z M-2149.1-52.7h1.1v0.9
			c0.2-0.3,0.5-0.5,0.7-0.7c0.4-0.3,0.8-0.4,1.3-0.4c0.8,0,1.4,0.3,1.9,0.9c0.5,0.6,0.8,1.4,0.8,2.5c0,1.5-0.4,2.5-1.2,3.1
			c-0.5,0.4-1.1,0.6-1.7,0.6c-0.5,0-0.9-0.1-1.3-0.3c-0.2-0.1-0.4-0.3-0.7-0.6v3.4h-1.1V-52.7z M-2141.7-52.6h1.1v1.2
			c0.1-0.2,0.3-0.5,0.6-0.8c0.3-0.3,0.7-0.5,1.2-0.5c0,0,0.1,0,0.1,0c0.1,0,0.1,0,0.3,0v1.2c-0.1,0-0.1,0-0.2,0c-0.1,0-0.1,0-0.2,0
			c-0.6,0-1,0.2-1.3,0.6s-0.5,0.8-0.5,1.3v3.9h-1.1V-52.6z M-2137.4-52.5h1.2v6.7h-1.2V-52.5z M-2137.4-55h1.2v1.3h-1.2V-55z
			 M-2133.9-52.7l1.8,5.5l1.9-5.5h1.2l-2.5,6.7h-1.2l-2.5-6.7H-2133.9z M-2127.1-47.7c0,0.3,0.1,0.6,0.4,0.8
			c0.2,0.2,0.5,0.3,0.8,0.3c0.4,0,0.8-0.1,1.2-0.3c0.6-0.3,0.9-0.8,0.9-1.5v-0.9c-0.1,0.1-0.3,0.2-0.5,0.2c-0.2,0.1-0.4,0.1-0.6,0.1
			l-0.7,0.1c-0.4,0.1-0.7,0.1-0.9,0.3C-2126.9-48.5-2127.1-48.2-2127.1-47.7z M-2124.3-50c0.3,0,0.4-0.1,0.5-0.3
			c0.1-0.1,0.1-0.2,0.1-0.4c0-0.4-0.1-0.7-0.4-0.8c-0.3-0.2-0.7-0.3-1.2-0.3c-0.6,0-1,0.2-1.3,0.5c-0.1,0.2-0.2,0.4-0.3,0.8h-1.1
			c0-0.8,0.3-1.4,0.8-1.7c0.5-0.3,1.1-0.5,1.8-0.5c0.8,0,1.4,0.2,1.9,0.5c0.5,0.3,0.7,0.8,0.7,1.4v3.9c0,0.1,0,0.2,0.1,0.3
			c0,0.1,0.1,0.1,0.3,0.1c0.1,0,0.1,0,0.2,0c0.1,0,0.1,0,0.2,0v0.8c-0.2,0.1-0.3,0.1-0.4,0.1c-0.1,0-0.2,0-0.4,0
			c-0.4,0-0.7-0.1-0.8-0.4c-0.1-0.1-0.2-0.4-0.2-0.6c-0.2,0.3-0.6,0.6-1,0.8c-0.4,0.2-0.9,0.3-1.4,0.3c-0.6,0-1.1-0.2-1.5-0.6
			c-0.4-0.4-0.6-0.9-0.6-1.4c0-0.6,0.2-1.1,0.6-1.5c0.4-0.3,0.9-0.6,1.5-0.6L-2124.3-50z M-2118.1-52.9c0.8,0,1.4,0.2,1.9,0.6
			c0.5,0.4,0.8,1,0.9,1.9h-1.1c-0.1-0.4-0.2-0.8-0.5-1c-0.2-0.3-0.6-0.4-1.2-0.4c-0.7,0-1.2,0.4-1.5,1.1c-0.2,0.5-0.3,1-0.3,1.7
			c0,0.7,0.1,1.2,0.4,1.7c0.3,0.5,0.7,0.7,1.3,0.7c0.5,0,0.8-0.1,1.1-0.4c0.3-0.3,0.5-0.7,0.6-1.2h1.1c-0.1,0.9-0.4,1.5-0.9,2
			c-0.5,0.4-1.1,0.6-1.9,0.6c-0.9,0-1.6-0.3-2.1-1s-0.8-1.4-0.8-2.4c0-1.2,0.3-2.1,0.9-2.8S-2119-52.9-2118.1-52.9z M-2110-52.7h1.3
			c-0.2,0.4-0.5,1.4-1.1,3c-0.4,1.2-0.8,2.1-1,2.8c-0.7,1.7-1.1,2.8-1.4,3.1c-0.3,0.4-0.7,0.6-1.4,0.6c-0.2,0-0.3,0-0.4,0
			c-0.1,0-0.2,0-0.3-0.1v-1c0.2,0.1,0.3,0.1,0.4,0.1c0.1,0,0.2,0,0.2,0c0.2,0,0.4,0,0.5-0.1s0.2-0.2,0.2-0.3c0,0,0.1-0.2,0.2-0.5
			c0.1-0.3,0.2-0.5,0.3-0.7l-2.5-6.9h1.3l1.8,5.5L-2110-52.7z M-2103.5-52.7l1.3,5.3l1.3-5.3h1.3l1.3,5.3l1.4-5.3h1.1l-2,6.7h-1.2
			l-1.4-5.2l-1.3,5.2h-1.2l-1.9-6.7H-2103.5z M-2091.9-52.8c0.5,0,0.9,0.1,1.4,0.3c0.4,0.2,0.8,0.5,1,0.9c0.2,0.3,0.4,0.7,0.5,1.2
			c0.1,0.3,0.1,0.8,0.1,1.5h-4.9c0,0.7,0.2,1.2,0.5,1.6c0.3,0.4,0.8,0.6,1.4,0.6c0.6,0,1.1-0.2,1.4-0.6c0.2-0.2,0.3-0.5,0.4-0.8h1.1
			c0,0.2-0.1,0.5-0.3,0.8c-0.2,0.3-0.4,0.6-0.6,0.7c-0.3,0.3-0.8,0.6-1.3,0.7c-0.3,0.1-0.6,0.1-0.9,0.1c-0.8,0-1.5-0.3-2.1-0.9
			c-0.6-0.6-0.9-1.5-0.9-2.6c0-1.1,0.3-2,0.9-2.6C-2093.6-52.5-2092.8-52.8-2091.9-52.8z M-2090.1-49.9c0-0.5-0.2-0.9-0.3-1.2
			c-0.3-0.5-0.8-0.8-1.6-0.8c-0.5,0-1,0.2-1.3,0.6c-0.4,0.4-0.5,0.9-0.6,1.4H-2090.1z M-2087.4-55.2h1.1v9.2h-1.1V-55.2z
			 M-2084.5-55.2h1.1v9.2h-1.1V-55.2z"/>
		<path id="GridinSoft" class="st0" d="M-2205.1-90.3c4.6,0,6.7,3,6.7,7.4v2.5h-3.1V-83c0-2.7-1.1-4.3-3.5-4.3
			c-2.4,0-3.5,1.6-3.5,4.3v15.7c0,2.7,1.1,4.3,3.5,4.3c2.4,0,3.5-1.6,3.5-4.3v-5.9h-3v-3h6.2v8.7c0,4.5-2.1,7.4-6.7,7.4
			c-4.5,0-6.6-3-6.6-7.4v-15.3C-2211.7-87.3-2209.6-90.3-2205.1-90.3z M-2195.2-86.1h5.7c4,0,5.7,2.1,5.7,5.9v2.1
			c0,2.8-1,4.6-3.2,5.3c2.4,0.7,3.2,2.6,3.2,5.4v4c0,1.1,0,2.2,0.5,3.1h-2.9c-0.3-0.7-0.5-1.4-0.5-3.1v-4c0-2.9-1.4-3.8-3.8-3.8h-2
			v11h-2.9V-86.1z M-2192.4-74h2.1c2.3,0,3.6-0.7,3.6-3.5V-80c0-2.3-0.8-3.5-3-3.5h-2.8V-74z M-2180.5-86.1h2.9v25.8h-2.9V-86.1z
			 M-2174.4-86.1h6c4,0,5.8,2.4,5.8,6.4v13c0,3.9-1.8,6.4-5.8,6.4h-6V-86.1z M-2171.5-63h3.1c2.1,0,3.1-1.3,3.1-3.6v-13.2
			c0-2.4-1-3.6-3.1-3.6h-3.1V-63z M-2159.6-86.1h2.9v25.8h-2.9V-86.1z M-2150.9-81.2v20.8h-2.6v-25.8h3.6l6,18.6v-18.6h2.5v25.8h-3
			L-2150.9-81.2z M-2131.7-90.3c4.5,0,6.6,2.9,6.6,7.4v0.8h-3.1v-1c0-2.7-1-4.2-3.4-4.2c-2.4,0-3.4,1.6-3.4,4.2
			c0,6.6,9.9,7.3,9.9,15.6c0,4.5-2.2,7.4-6.7,7.4s-6.6-2.9-6.6-7.4v-1.7h3.1v1.9c0,2.7,1.1,4.2,3.5,4.2c2.4,0,3.5-1.6,3.5-4.2
			c0-6.6-9.9-7.2-9.9-15.6C-2138.3-87.4-2136.2-90.3-2131.7-90.3z M-2122.4-66.6v-13.3c0-3.9,1.9-6.5,5.9-6.5c4,0,5.9,2.5,5.9,6.5
			v13.3c0,3.9-1.9,6.5-5.9,6.5C-2120.4-60.1-2122.4-62.7-2122.4-66.6z M-2119.5-80v13.6c0,2.4,1,3.7,3.1,3.7c2.1,0,3.1-1.4,3.1-3.7
			V-80c0-2.3-1-3.7-3.1-3.7C-2118.5-83.7-2119.5-82.3-2119.5-80z M-2104.7-74.1h5.9v2.6h-5.9v11.1h-2.9v-25.8h10.2v2.6h-7.4V-74.1z
			 M-2088.2-60.3h-2.8v-23.1h-4.7v-2.6h12.3v2.6h-4.7V-60.3z"/>
	</g>
	<g id="LOGO-GS-river_LAST-Copy-13">
		<g id="Rectangle-128">
		</g>
		<defs>
			<filter id="Adobe_OpacityMaskFilter" filterUnits="userSpaceOnUse">
				<feColorMatrix  type="matrix" values="1 0 0 0 0  0 1 0 0 0  0 0 1 0 0  0 0 0 1 0"/>
			</filter>
		</defs>
		<mask maskUnits="userSpaceOnUse" id="mask-2_1_">
			<g class="st1">
				<rect id="path-1_1_" x="0.4" y="0.2" class="st2" width="49.6" height="47.1"/>
			</g>
		</mask>
		<g id="Group_1_" class="st3">
			<g id="Rectangle-128-Copy">
			</g>
			<defs>
				<filter id="Adobe_OpacityMaskFilter_1_" filterUnits="userSpaceOnUse">
					<feColorMatrix  type="matrix" values="1 0 0 0 0  0 1 0 0 0  0 0 1 0 0  0 0 0 1 0"/>
				</filter>
			</defs>
			<mask maskUnits="userSpaceOnUse" id="mask-4_1_">
				<g class="st4">
					<rect id="path-3_1_" x="0.4" y="0.2" class="st2" width="49.6" height="47.1"/>
				</g>
			</mask>
			<g id="BackRect_x2F_Current-Logo-Copy" class="st5">
				<g transform="translate(0.000000, -93.000000)">
					<g id="Rectangle-67">
					</g>
				</g>
			</g>
		</g>
		<defs>
			<filter id="Adobe_OpacityMaskFilter_2_" filterUnits="userSpaceOnUse" x="0.5" y="18.5" width="25.4" height="33.2">
				<feColorMatrix  type="matrix" values="1 0 0 0 0  0 1 0 0 0  0 0 1 0 0  0 0 0 1 0"/>
			</filter>
		</defs>
		<mask maskUnits="userSpaceOnUse" x="0.5" y="18.5" width="25.4" height="33.2" id="mask-2_2_">
			<g class="st6">
				<rect id="path-1_2_" x="0.4" y="0.2" class="st2" width="49.6" height="47.1"/>
			</g>
		</mask>
		<g id="LOGO-G-river-Copy" class="st7">
			<g id="G-Copy" transform="translate(0.000000, 661.000000)">
				<path class="st0" d="M20.5-615.1v-3.5c0-0.2-0.1-0.3-0.3-0.3c0,0,0,0,0,0l-4.7,0c-0.2,0-0.3-0.1-0.3-0.3c0,0,0,0,0,0v-4.4
					c0-0.2,0.1-0.3,0.3-0.3c0,0,0,0,0,0c5.5,0,9,0,10.6,0v11.9c-1.3,2.2-7.4,4.2-16.2,1.4c-8.8-2.8-9.3-12.2-9.2-17.2
					c0.3-8.3,9.3-17.9,22.5-13.5v4.9c0,0.1-0.1,0.2-0.2,0.2c0,0-0.1,0-0.1,0l0,0C6.2-642.1,3.2-624.6,8.4-618
					c4,4.6,8.7,3.8,11.4,3.3c0.1,0,0.2,0,0.3-0.1v0C20.3-614.9,20.5-615,20.5-615.1z"/>
			</g>
		</g>
		<defs>
			<filter id="Adobe_OpacityMaskFilter_3_" filterUnits="userSpaceOnUse" x="21.4" y="-2.4" width="26.4" height="50.5">
				<feColorMatrix  type="matrix" values="1 0 0 0 0  0 1 0 0 0  0 0 1 0 0  0 0 0 1 0"/>
			</filter>
		</defs>
		<mask maskUnits="userSpaceOnUse" x="21.4" y="-2.4" width="26.4" height="50.5" id="mask-2_3_">
			<g class="st8">
				<rect id="path-1_3_" x="0.4" y="0.2" class="st2" width="49.6" height="47.1"/>
			</g>
		</mask>
		<path id="Path" class="st9" d="M30.7,48.1c5.1-1.6,8.5-4.7,10.2-9.4c2.8-7.6-0.1-14-9-20.3C24.5,13.2,21,6.3,21.4-2.4l5.8,0.1
			c0,8.9,2.7,12.2,10.2,17.7c7.5,5.4,12,13.9,9.9,22.5c-0.9,3.5-2.9,7.9-5.3,10.3L30.7,48.1z"/>
		<defs>
			<filter id="Adobe_OpacityMaskFilter_4_" filterUnits="userSpaceOnUse" x="5.3" y="47.8" width="36.9" height="2.1">
				<feColorMatrix  type="matrix" values="1 0 0 0 0  0 1 0 0 0  0 0 1 0 0  0 0 0 1 0"/>
			</filter>
		</defs>
		<mask maskUnits="userSpaceOnUse" x="5.3" y="47.8" width="36.9" height="2.1" id="mask-2_4_">
			<g class="st10">
				<rect id="path-1_4_" x="0.4" y="0.2" class="st2" width="49.6" height="47.1"/>
			</g>
		</mask>
		<path id="Combined-Shape" class="st11" d="M7.6,49.9c-0.8-0.7-1.6-1.4-2.3-2.1h36.9c-0.7,0.8-1.5,1.5-2.3,2.1H7.6z"/>
		<defs>
			<filter id="Adobe_OpacityMaskFilter_5_" filterUnits="userSpaceOnUse" x="41.9" y="2.8" width="5.9" height="2.2">
				<feColorMatrix  type="matrix" values="1 0 0 0 0  0 1 0 0 0  0 0 1 0 0  0 0 0 1 0"/>
			</filter>
		</defs>
		<mask maskUnits="userSpaceOnUse" x="41.9" y="2.8" width="5.9" height="2.2" id="mask-2_5_">
			<g class="st12">
				<rect id="path-1_5_" x="0.4" y="0.2" class="st2" width="49.6" height="47.1"/>
			</g>
		</mask>
		<path id="Combined-Shape_1_" class="st13" d="M41.9,2.8h5.9c0,0.7,0.1,1.5,0,2.2L42,5C42,4.2,42,3.5,41.9,2.8z"/>
		<defs>
			<filter id="Adobe_OpacityMaskFilter_6_" filterUnits="userSpaceOnUse" x="41.6" y="0.2" width="6.2" height="2.1">
				<feColorMatrix  type="matrix" values="1 0 0 0 0  0 1 0 0 0  0 0 1 0 0  0 0 0 1 0"/>
			</filter>
		</defs>
		<mask maskUnits="userSpaceOnUse" x="41.6" y="0.2" width="6.2" height="2.1" id="mask-2_6_">
			<g class="st14">
				<rect id="path-1_6_" x="0.4" y="0.2" class="st2" width="49.6" height="47.1"/>
			</g>
		</mask>
		<path id="Combined-Shape-Copy-2" class="st15" d="M41.6,0.2h6c0.1,0.7,0.2,1.4,0.2,2.1h-5.9C41.8,1.5,41.7,0.8,41.6,0.2L41.6,0.2z
			"/>
		<path id="Rectangle" class="st0" d="M5.3,47.8h37.1c-0.9,0.9-1.7,1.5-2.4,2H7.5C6.9,49.4,6.2,48.7,5.3,47.8z"/>
	</g>
</g>
</svg>
