<svg xmlns="http://www.w3.org/2000/svg" xmlns:xlink="http://www.w3.org/1999/xlink" width="315" height="391" viewBox="0 0 315 391">
    <defs>
        <path id="a" d="M123.119 50.33c.07 4.51-1.098 8.358-3.507 11.546-1.582 2.172-3.813 3.695-6.693 4.569-1.559.496-3.365.744-5.42.744-3.824 0-6.988-.945-9.491-2.834-2.078-1.558-3.73-3.665-4.958-6.322-1.228-2.656-1.936-5.72-2.125-9.19l9.243-.638c.425 3.754 1.429 6.47 3.01 8.146 1.158 1.275 2.492 1.877 4.003 1.806 2.125-.07 3.825-1.11 5.1-3.116.661-1.016.992-2.444.992-4.286 0-2.715-1.216-5.395-3.648-8.04a4269.662 4269.662 0 0 1-8.677-8.18c-3.235-3.118-5.514-5.916-6.836-8.395-1.44-2.786-2.16-5.808-2.16-9.066 0-5.88 1.971-10.33 5.914-13.353 2.432-1.818 5.455-2.727 9.067-2.727 3.471 0 6.446.78 8.925 2.338 1.913 1.204 3.46 2.886 4.64 5.047 1.18 2.16 1.9 4.645 2.16 7.455l-9.35 1.7c-.26-2.645-1.015-4.699-2.267-6.163-.897-1.086-2.184-1.629-3.86-1.629-1.77 0-3.128.791-4.073 2.373-.756 1.275-1.133 2.857-1.133 4.746 0 2.951 1.275 5.962 3.825 9.031.968 1.157 2.408 2.527 4.32 4.109 2.267 1.889 3.767 3.21 4.499 3.966 2.384 2.409 4.238 4.782 5.56 7.12a25.496 25.496 0 0 1 1.488 3.045c.92 2.29 1.404 4.356 1.452 6.198zM146.423.994c4.297 0 7.951 1.511 10.962 4.534 3.01 3.022 4.515 6.67 4.515 10.943v35.24c0 4.298-1.51 7.951-4.533 10.962-3.022 3.01-6.67 4.516-10.944 4.516-4.274 0-7.904-1.512-10.89-4.534-2.988-3.022-4.48-6.67-4.48-10.944v-35.24c0-4.297 1.51-7.95 4.532-10.961C138.608 2.5 142.22.994 146.423.994zm5.313 15.265c0-1.558-.538-2.875-1.612-3.949-1.074-1.074-2.39-1.612-3.949-1.612-1.535 0-2.85.538-3.949 1.612-1.098 1.074-1.647 2.39-1.647 3.949v35.382c0 1.534.55 2.845 1.647 3.93 1.098 1.087 2.414 1.63 3.95 1.63 1.557 0 2.874-.543 3.948-1.63 1.074-1.085 1.612-2.396 1.612-3.93V16.259zm34.035 50.93c-4.273 0-7.904-1.494-10.89-4.48-2.987-2.988-4.48-6.606-4.48-10.856V1.773h9.527v49.974c0 1.535.548 2.845 1.646 3.931 1.098 1.086 2.415 1.63 3.95 1.63 1.558 0 2.874-.544 3.948-1.63 1.075-1.086 1.612-2.396 1.612-3.931V1.773h10.165v50.08c0 4.32-1.512 7.957-4.534 10.908-3.022 2.952-6.67 4.428-10.944 4.428zm54.826-15.478c0 2.787-.685 5.372-2.054 7.757.85.991 2.077 1.487 3.683 1.487v9.067c-4.864 0-8.193-1.535-9.988-4.604-2.148 1.18-4.498 1.77-7.048 1.77-4.297 0-7.945-1.51-10.943-4.533-3-3.022-4.498-6.67-4.498-10.944v-35.24c0-4.297 1.51-7.95 4.533-10.961C217.304 2.5 220.94.994 225.19.994c4.298 0 7.94 1.523 10.927 4.569 2.986 3.046 4.48 6.682 4.48 10.908v35.24zM230.503 16.26c0-1.558-.549-2.875-1.647-3.949-1.098-1.074-2.426-1.612-3.984-1.612-1.535 0-2.845.538-3.932 1.612-1.086 1.074-1.629 2.39-1.629 3.949v35.382c0 1.534.543 2.845 1.63 3.93 1.086 1.087 2.396 1.63 3.93 1.63 1.559 0 2.887-.543 3.985-1.63 1.098-1.085 1.647-2.396 1.647-3.93V16.259z"/>
        <path id="b" d="M26.617 15.523a149.461 149.461 0 0 1-1.686.295L22.836 32.88a370.912 370.912 0 0 1 1.613.295c.529.116.758.455.689 1.017l-.235 1.911h-9.315l.234-1.911c.07-.562.382-.9.939-1.017l.209-.037a149.375 149.375 0 0 1 1.477-.258l2.095-17.062a380.165 380.165 0 0 1-1.614-.295c-.528-.116-.758-.455-.688-1.017l.234-1.911h9.316l-.235 1.911c-.069.562-.381.9-.938 1.017zm13.748 3.592c.824 0 1.483.19 1.979.57l-.89 3.007c-.056.195-.144.333-.262.414a.786.786 0 0 1-.454.122c-.163 0-.38-.038-.653-.114-.272-.075-.641-.113-1.107-.113-.835 0-1.579.23-2.231.69-.653.461-1.24 1.136-1.76 2.025l-.713 5.802-.563 4.586h-4.016l.396-3.223.234-1.91.14-1.138.882-7.186c-1.355-.244-1.368-.25-1.613-.295-.528-.116-.758-.455-.689-1.017l.235-1.911h4.82c.412 0 .69.075.834.227.144.152.22.412.23.78l-.004 2.016c.722-1.03 1.521-1.842 2.397-2.438.875-.596 1.81-.894 2.808-.894zm16.97 14.027c.528.116.757.456.688 1.017l-.234 1.912H53.647c-.487 0-.829-.113-1.024-.34-.195-.228-.292-.515-.292-.862l.13-2.276c-.738 1.149-1.567 2.056-2.488 2.723-.921.666-1.934 1-3.04 1a4.205 4.205 0 0 1-1.764-.374 3.973 3.973 0 0 1-1.43-1.114c-.407-.493-.727-1.11-.96-1.853-.233-.743-.35-1.612-.35-2.61a11.494 11.494 0 0 1 1.439-5.568c.461-.829 1.017-1.59 1.667-2.284a10.667 10.667 0 0 1 4.804-2.95 10.44 10.44 0 0 1 2.967-.416c.748 0 1.499.055 2.252.163.753.109 1.493.304 2.22.585L56.15 32.941l.022-.012a195.92 195.92 0 0 1 1.161.213zm-4.403-6.06l.634-5.04a7.368 7.368 0 0 0-.813-.05c-.9 0-1.734.206-2.503.618a6.475 6.475 0 0 0-2 1.667 8.002 8.002 0 0 0-1.325 2.438 8.93 8.93 0 0 0-.48 2.935c0 1.17.185 2.027.553 2.569.368.542.872.812 1.512.812.444 0 .88-.151 1.309-.455.428-.303.832-.723 1.211-1.26.38-.536.732-1.168 1.057-1.894a17.45 17.45 0 0 0 .845-2.34zm22.311 11.556c.528.116.758.455.689 1.017l-.235 1.911h-9.065l.235-1.911c.068-.562.381-.9.938-1.017a434.326 434.326 0 0 1 1.684-.295l.533-4.337a9.41 9.41 0 0 1-2.45 1.683c-.886.418-1.887.626-3.003.626-.91 0-1.72-.187-2.427-.56a4.644 4.644 0 0 1-1.75-1.635c-.46-.715-.774-1.598-.943-2.65-.169-1.052-.17-2.26-.002-3.625a12.29 12.29 0 0 1 .93-3.463c.465-1.062 1.058-1.983 1.777-2.764a7.928 7.928 0 0 1 2.485-1.829 7.095 7.095 0 0 1 3.048-.658c2.409 0 5.098.303 8.066.91l-.643 5.232-1.605 13.07a85.744 85.744 0 0 0 1.507.258c.107.016.184.029.231.037zm-6.707-5.973c.634-.352 1.245-.848 1.833-1.487l1.066-8.682a16.754 16.754 0 0 0-3.197-.309c-.607 0-1.169.114-1.684.342a3.83 3.83 0 0 0-1.372 1.04c-.398.466-.733 1.054-1.005 1.764-.271.71-.466 1.547-.585 2.512-.12.974-.142 1.8-.068 2.48.074.677.231 1.227.472 1.65.24.422.557.73.951.926.394.195.856.293 1.386.293.835 0 1.569-.177 2.203-.529zm15.307.51c.528.117.758.456.689 1.017l-.235 1.912H77.82l.395-3.224 1.257-10.234a577.85 577.85 0 0 1-1.613-.295c-.529-.116-.758-.455-.69-1.017l.236-1.911h6.478L82.23 32.881l.94.17.474.088.199.037zm1.238-18.613a2.513 2.513 0 0 1-.332.975 3.163 3.163 0 0 1-1.547 1.341c-.33.136-.675.204-1.032.204a2.26 2.26 0 0 1-.959-.203 2.198 2.198 0 0 1-.738-.545 2.237 2.237 0 0 1-.53-1.772c.044-.358.153-.694.327-1.008.174-.315.389-.586.644-.813.256-.228.547-.41.872-.545a2.581 2.581 0 0 1 1.009-.203c.357 0 .685.068.983.203.297.136.549.317.754.545.205.228.359.499.46.813.103.314.132.65.089 1.008z"/>
    </defs>
    <g fill="none" fill-rule="evenodd">
        <path fill="#070B34" fill-rule="nonzero" d="M0 0h315v391H0z"/>
        <g transform="translate(26.1 155.9)">
            <use fill="#070B34" xlink:href="#a"/>
            <use fill="#FFF" xlink:href="#a"/>
            <circle cx="252.959" cy="64.859" r="5.775" fill="#E94D34" fill-rule="nonzero" transform="rotate(-81.57 252.96 64.86)"/>
            <path fill="#FFF" fill-rule="nonzero" d="M17.182 68.904a3.894 3.894 0 1 1-7.71-1.098 3.894 3.894 0 0 1 7.71 1.098zm15.092-.22a3.168 3.168 0 1 0 2.662 3.586 3.168 3.168 0 0 0-2.662-3.564v-.022zM43.56 50.16a67.636 67.636 0 0 1-1.804 5.786 26.664 26.664 0 0 1-2.618 5.588 10.384 10.384 0 0 1-3.982 3.784 8.8 8.8 0 0 1-4.026.792 30.536 30.536 0 0 1-6.028-.726 47.872 47.872 0 0 1-6.05-1.65 34.606 34.606 0 0 1-5.632-2.464 9.768 9.768 0 0 1-2.618-1.958 10.494 10.494 0 0 1-2.2-5.148 31.328 31.328 0 0 1-.374-5.94c0-2.684.286-5.346.462-8.008a63.075 63.075 0 0 1-4.026-1.518l-.726-.198a4.664 4.664 0 0 1-2.574-2.2 4.4 4.4 0 0 1-.264-2.2c.032-.743.143-1.48.33-2.2a3.234 3.234 0 0 1 1.144-1.826 2.772 2.772 0 0 1 2.2-.352c.704.132 1.386.374 2.068.572.788.17 1.535.49 2.2.946a4.4 4.4 0 0 1 1.518 2.86c.206 1.641.28 3.297.22 4.95 1.07.293 2.149.572 3.234.836 3.8.94 7.649 1.674 11.528 2.2 2.024.25 4.048.455 6.072.616 2.046.154 4.114.242 6.182.33a6.754 6.754 0 0 1 5.082 1.716 5.764 5.764 0 0 1 .682 5.412zM8.8 38.5v-2.2-1.43-.748a2.596 2.596 0 0 0-.132-.616 2.2 2.2 0 0 0-.77-1.144 10.714 10.714 0 0 0-2.948-1.166 2.068 2.068 0 0 0-1.364-.154 1.562 1.562 0 0 0-.792 1.012 6.358 6.358 0 0 0-.33 1.672c-.074.496-.074 1 0 1.496a3.036 3.036 0 0 0 2.002 1.914c1.423.513 2.867.968 4.334 1.364zm31.614 8.602a1.122 1.122 0 0 0-.792-.638 10.054 10.054 0 0 0-2.464-.352c-4.004-.352-7.986-.858-11.924-1.606a123.802 123.802 0 0 1-11-2.596l-3.498-1.078c0 2.772-.132 5.544 0 8.294.088 1.611.331 3.21.726 4.774a6.6 6.6 0 0 0 1.958 3.63l.264.176h.132l.484.594c.616.352 1.276.66 1.914.924 1.353.506 2.734.932 4.136 1.276a46.508 46.508 0 0 0 8.8 1.804c1.247.192 2.515.192 3.762 0a3.982 3.982 0 0 0 1.804-1.034 9.68 9.68 0 0 0 1.65-2.068 26.4 26.4 0 0 0 2.266-5.302c.33-.968.66-1.958.968-2.926a19.8 19.8 0 0 0 .792-2.706c.087-.36.095-.736.022-1.1v-.066z"/>
            <g transform="rotate(-.14 50.344 26.78)">
                <use fill="#000" xlink:href="#b"/>
                <use fill="#E94D34" xlink:href="#b"/>
            </g>
        </g>
    </g>
</svg>
