<svg xmlns="http://www.w3.org/2000/svg" width="381" height="437" viewBox="0 0 381 437">
    <g fill="none" fill-rule="nonzero">
        <path fill="#2C1650" d="M0 0h381v437H0z"/>
        <g fill="#FFF">
            <path d="M184.379 100h97.936v4.316c-11.042.96-19.443 3.837-25.204 8.633-5.761 4.796-19.923 21.822-42.487 51.077 0-23.5-1.44-38.607-4.32-45.322-.327-.76-2.463-5.122-6.482-8.632-2.12-1.853-4.32-2.878-7.921-4.317-2.4-.959-6.241-1.439-11.522-1.439V100zM165.656 227.333l43.207-55.393c43.207 81.051 67.931 128.052 74.172 141.001 6.241 12.95 16.563 19.424 30.965 19.424v5.036c-42.247.959-68.891-.24-79.933-3.597-8.316-2.53-16.75-10.612-18.723-14.388-5.76-11.031-22.324-41.725-49.688-92.083zM154.854 240.282l-60.49 75.537H67l.11-3.139c7.152-1.667 25.176-7.267 27.254-20.556 2.61-16.683 2.16-114.787 2.16-120.184 0-8.254 1.83-37.792-3.6-52.516-3.36-9.113-12.002-14.388-25.924-15.827V100c35.526 0 55.689.48 60.49 1.439 17.884 3.573 24.397 22.042 25.204 24.46 1.44 4.316 2.16 42.444 2.16 114.383z"/>
        </g>
        <g fill="#FFF">
            <path d="M184.379 100h97.936v4.316c-11.042.96-19.443 3.837-25.204 8.633-5.761 4.796-19.923 21.822-42.487 51.077 0-23.5-1.44-38.607-4.32-45.322-.327-.76-2.463-5.122-6.482-8.632-2.12-1.853-4.32-2.878-7.921-4.317-2.4-.959-6.241-1.439-11.522-1.439V100zM165.656 227.333l43.207-55.393c43.207 81.051 67.931 128.052 74.172 141.001 6.241 12.95 16.563 19.424 30.965 19.424v5.036c-42.247.959-68.891-.24-79.933-3.597-8.316-2.53-16.75-10.612-18.723-14.388-5.76-11.031-22.324-41.725-49.688-92.083zM154.854 240.282l-60.49 75.537H67l.11-3.139c7.152-1.667 25.176-7.267 27.254-20.556 2.61-16.683 2.16-114.787 2.16-120.184 0-8.254 1.83-37.792-3.6-52.516-3.36-9.113-12.002-14.388-25.924-15.827V100c35.526 0 55.689.48 60.49 1.439 17.884 3.573 24.397 22.042 25.204 24.46 1.44 4.316 2.16 42.444 2.16 114.383z"/>
        </g>
    </g>
</svg>
