<svg xmlns="http://www.w3.org/2000/svg" width="315" height="391" viewBox="0 0 315 391">
    <defs>
        <radialGradient id="a" cx="-8.114%" cy="233.537%" r="263.251%" fx="-8.114%" fy="233.537%" gradientTransform="matrix(0 -.80563 1 0 -2.417 2.27)">
            <stop offset="0%" stop-color="#1DB0F9"/>
            <stop offset="100%" stop-color="#0F1529"/>
        </radialGradient>
    </defs>
    <g fill="none" fill-rule="evenodd">
        <path fill="url(#a)" fill-rule="nonzero" d="M0 0h315v391H0z"/>
        <g fill="#FFF">
            <path d="M80.517 212.009v5.491h-9.11c-1.706 0-3.048-.031-4.025-.094-.978-.062-2.195-.312-3.65-.748-1.457-.437-2.684-1.092-3.682-1.966-1.54-1.414-2.538-3.11-2.996-5.086-.457-1.976-.686-4.295-.686-6.957V173.82h5.866v28.704c0 2.413.27 4.306.81 5.678 1.082 2.538 3.35 3.807 6.802 3.807h10.67zm8.736-20.53c2.912-3.037 6.552-4.555 10.92-4.555 2.121 0 4.108.406 5.959 1.217a15.495 15.495 0 0 1 4.867 3.338 15.502 15.502 0 0 1 3.276 4.961c.79 1.893 1.186 3.92 1.186 6.084 0 2.163-.385 4.191-1.155 6.084-.77 1.893-1.84 3.546-3.213 4.96a15.035 15.035 0 0 1-4.867 3.34c-1.872.81-3.89 1.216-6.053 1.216-2.205 0-4.233-.406-6.084-1.217a15.127 15.127 0 0 1-4.836-3.338c-1.373-1.415-2.444-3.068-3.214-4.961-.77-1.893-1.154-3.92-1.154-6.084 0-4.41 1.456-8.091 4.368-11.045zm10.92.687c-2.912 0-5.252.956-7.02 2.87-1.768 1.914-2.652 4.41-2.652 7.488 0 3.078.884 5.574 2.652 7.488 1.768 1.914 4.108 2.87 7.02 2.87 2.953 0 5.304-.967 7.051-2.901 1.747-1.935 2.62-4.42 2.62-7.457s-.873-5.522-2.62-7.457c-1.747-1.934-4.098-2.901-7.051-2.901zm25.272-.687c2.912-3.037 6.552-4.555 10.92-4.555 2.121 0 4.108.406 5.959 1.217a15.495 15.495 0 0 1 4.867 3.338 15.502 15.502 0 0 1 3.276 4.961c.79 1.893 1.186 3.92 1.186 6.084 0 2.163-.385 4.191-1.155 6.084-.77 1.893-1.84 3.546-3.213 4.96a15.035 15.035 0 0 1-4.867 3.34c-1.872.81-3.89 1.216-6.053 1.216-2.205 0-4.233-.406-6.084-1.217a15.127 15.127 0 0 1-4.836-3.338c-1.373-1.415-2.444-3.068-3.214-4.961-.77-1.893-1.154-3.92-1.154-6.084 0-4.41 1.456-8.091 4.368-11.045zm10.92.687c-2.912 0-5.252.956-7.02 2.87-1.768 1.914-2.652 4.41-2.652 7.488 0 3.078.884 5.574 2.652 7.488 1.768 1.914 4.108 2.87 7.02 2.87 2.953 0 5.304-.967 7.051-2.901 1.747-1.935 2.62-4.42 2.62-7.457s-.873-5.522-2.62-7.457c-1.747-1.934-4.098-2.901-7.051-2.901zm21.84 39.561v-29.203c0-2.163.395-4.202 1.185-6.115.79-1.914 1.872-3.567 3.245-4.961 1.373-1.394 2.995-2.496 4.867-3.307 1.872-.811 3.87-1.217 5.99-1.217 2.122 0 4.109.406 5.96 1.217a15.495 15.495 0 0 1 4.867 3.338 15.502 15.502 0 0 1 3.276 4.961c.79 1.893 1.186 3.92 1.186 6.084 0 2.163-.385 4.191-1.155 6.084-.77 1.893-1.84 3.546-3.213 4.96a15.035 15.035 0 0 1-4.867 3.34c-1.872.81-3.89 1.216-6.053 1.216-2.663 0-5.138-.624-7.426-1.872v-5.616c2.039 1.498 4.451 2.246 7.239 2.246 1.497 0 2.86-.26 4.087-.78 1.227-.52 2.267-1.237 3.12-2.152.853-.916 1.508-2.008 1.965-3.276.458-1.27.687-2.652.687-4.15 0-1.498-.229-2.88-.687-4.15-.457-1.268-1.102-2.36-1.934-3.276a8.822 8.822 0 0 0-3.026-2.152c-1.186-.52-2.528-.78-4.025-.78-1.456 0-2.777.25-3.963.748a8.785 8.785 0 0 0-3.057 2.122c-.853.915-1.508 2.007-1.966 3.276-.457 1.269-.686 2.673-.686 4.212v29.203h-5.616zm51.792-44.803c7.072.291 10.608 3.224 10.608 8.798 0 6.948-4.555 10.421-13.666 10.421h-2.558v-4.805h2.995c2.787 0 4.722-.426 5.803-1.279 1.082-.853 1.623-2.277 1.623-4.274 0-1.29-.479-2.257-1.436-2.902-.956-.645-2.184-.967-3.681-.967-2.954 0-5.273 1.04-6.958 3.12-1.685 2.08-2.527 4.576-2.527 7.488 0 3.078.905 5.574 2.714 7.488 1.81 1.914 4.17 2.87 7.083 2.87 2.62 0 4.763-.644 6.427-1.934l3.744 3.682c-2.87 2.33-6.26 3.494-10.171 3.494-4.743 0-8.528-1.394-11.357-4.18-2.829-2.788-4.243-6.386-4.243-10.796 0-4.909 1.393-8.882 4.18-11.918 2.788-3.037 6.594-4.472 11.42-4.306zm15.912 30.576v-17.035c0-4.784.894-8.091 2.683-9.922.874-.915 1.934-1.601 3.182-2.059 1.248-.458 2.34-.728 3.276-.811.936-.083 2.216-.125 3.838-.125h5.491v5.242h-6.614c-.832 0-1.477.02-1.935.062-.457.042-.998.187-1.622.437a4.1 4.1 0 0 0-1.622 1.185c-.79.999-1.186 2.996-1.186 5.99V217.5h-5.491z"/>
            <g fill-rule="nonzero">
                <path d="M248.633 214.368c.03-.375.066-.799.134-1.164.047-.256.15-.597.501-.597.035 0 .07.004.105.008.022.002.044.005.08.005 0 0 .011-.01.026-.053.103-.295.535-.662 1.09-1.112.136-.11.3-.243.369-.311-.026-.177-.022-.394.101-.544a.432.432 0 0 1 .35-.154c.027 0 .056.002.12.008.135 0 .403-.055.774-.132.957-.197 2.738-.563 5.41-.62 3.889-.078 6.945 2.732 7.07 2.85l.09.084c.16.077.665.262 2.207.565 2.187.431 2.604 1.128 2.683 1.398.174.13.457.442.502.807.036.292.117.412.117.411l.038.049v2.06l-.004.038c-.119.547-.685.836-1.638.836-.304 0-.532-.031-.523-.031l-.335-.007a2.324 2.324 0 0 0 .14-.782 2.297 2.297 0 0 0-2.294-2.295 2.298 2.298 0 0 0-2.294 2.295 2.314 2.314 0 0 0 .06.513c.014.06.028.12.046.178-2.864-.062-6.509-.143-9.332-.214a2.259 2.259 0 0 0 .044-.352c.002-.042.006-.083.006-.125a2.298 2.298 0 0 0-2.293-2.295 2.296 2.296 0 0 0-2.291 2.243l-.003.052c0 .045.004.088.007.132.003.063.01.126.018.187-.54-.089-.945-.373-1.18-.833-.4-.786-.196-1.85-.052-2.076.078-.123.116-.6.15-1.022z"/>
                <path d="M267.639 218.927a1.95 1.95 0 1 1-3.577-1.553 1.95 1.95 0 0 1 3.577 1.553zM253.441 218.62a1.95 1.95 0 1 1-3.841-.47v-.005a1.95 1.95 0 0 1 3.9.005c0 .04-.004.077-.006.116a1.875 1.875 0 0 1-.053.353z"/>
            </g>
        </g>
    </g>
</svg>
