<svg xmlns="http://www.w3.org/2000/svg" width="253" height="361" viewBox="0 0 253 361">
    <g fill="none" fill-rule="evenodd">
        <path fill="#D0C5C5" fill-rule="nonzero" d="M0 0h253v361H0z"/>
        <path fill="#1E1C1C" d="M102.608 163.289a237.77 237.77 0 0 1-4.44 4.099c-.72.72-1.761 1.7-3.123 2.94-1.362 1.24-2.323 2.101-2.884 2.581-2.803 2.56-5.927 4.321-9.371 5.281-3.284.88-6.568.72-9.852-.48-4.806-1.76-8.651-4.72-11.535-8.882-.24-.4-.62-1-1.141-1.8-.52-.8-.901-1.4-1.141-1.8l-1.202-1.44c-.8 0-1.562.44-2.283 1.32-1.522 1.6-2.763 3.04-3.724 4.32-.4.48-1.021 1.32-1.863 2.52a110.99 110.99 0 0 1-1.982 2.762 11.43 11.43 0 0 1-2.523 2.28c-1.362.88-2.523.68-3.484-.6-.801-1.12-1.322-2.16-1.562-3.12-.561-2.801-.921-5.242-1.082-7.322-.24-3.361-.12-7.402.36-12.123.241-2.08.842-3.88 1.803-5.401 1.362-2.08 2.964-2.76 4.806-2.04.8.24 1.422.78 1.862 1.62.44.84.581 1.78.42 2.82a20.8 20.8 0 0 1-1.08 4.922c-1.442 4.08-2.444 8.161-3.004 12.242-.08.56-.16 2.08-.24 4.561l.24 1.32c.88-.48 1.842-1.44 2.883-2.88a519.1 519.1 0 0 0 2.764-3.601 151.11 151.11 0 0 1 3.003-3.84c.962-1.281 1.763-2.201 2.403-2.761 1.843-1.52 3.685-1.52 5.527 0 .56.48 1.242 1.24 2.043 2.28.08.08 1 1.4 2.763 3.96 1.762 2.481 4.045 4.642 6.848 6.482 4.086 2.8 8.41 3.04 12.976.72 2.484-1.28 5.047-3.16 7.69-5.64.56-.56 3.925-3.842 10.092-9.843.015 0 .03-.003.046-.008.132-.483.277-1 .435-1.552.48-1.44 1.282-2.64 2.403-3.601a4.597 4.597 0 0 1 2.763-1.02c1.042-.04 1.923.3 2.644 1.02.88.72 1.381 1.62 1.501 2.7a4.07 4.07 0 0 1-.78 2.941c-1.362 1.44-2.464 3.2-3.305 5.281-.84 2.08-1.401 3.821-1.682 5.221-.28 1.4-.62 3.421-1.02 6.062-.321 1.76-.522 4.8-.602 9.122-.08 2 .24 4.12.962 6.361.08.08.44.84 1.08 2.28 1.122-.96 1.683-1.48 1.683-1.56 1.282-2 2.363-3.76 3.244-5.28.8-1.361 2.062-3.622 3.785-6.782 1.722-3.161 3.063-5.542 4.025-7.142.56-1.04 1.561-2.56 3.003-4.56.641-.801 1.282-1.481 1.923-2.041.96-.8 1.902-1.14 2.823-1.02.921.12 1.702.7 2.343 1.74.48.72.881 1.56 1.201 2.52.08.56.2 1.12.36 1.68.161.56.321 1.201.481 1.921.16.72.28 1.28.36 1.68 1.603 6.242 2.564 9.923 2.884 11.043.24.88.841 2.36 1.803 4.44.56 1.281 1.241 2.001 2.042 2.161.801-.08 1.402-.6 1.802-1.56.641-1.68 1.042-2.96 1.202-3.84.72-4.242 1.241-7.883 1.562-10.923.88-8.082 1.081-16.364.6-24.845-.24-3.361-.44-8.962-.6-16.804 0-.96.04-2 .12-3.12 0-.48.12-.8.36-.96.24-.401.561-.561.962-.481.4.16.62.42.66.78.04.36.06 1.02.06 1.98v1.921c.08 1.2.24 2.84.481 4.921.24 2.08.4 3.56.48 4.441.882 9.122.922 18.804.12 29.046-.4 5.841-1.04 10.642-1.922 14.403-.32 1.2-.68 2.48-1.08 3.841-.321.72-.682 1.4-1.082 2.04-.881 1.36-1.983 2.14-3.304 2.34-1.322.201-2.664-.22-4.025-1.26-1.282-.96-2.523-2.48-3.725-4.56-2.643-4.401-4.325-9.282-5.046-14.643-.08-.56-.32-2.2-.72-4.921-.562-.24-1.042-.08-1.443.48-2.082 2.8-3.284 4.48-3.604 5.04-.48.72-.941 1.501-1.382 2.341-.44.84-.84 1.58-1.201 2.22-.36.64-.801 1.421-1.322 2.341-.52.92-.941 1.7-1.262 2.34-2.322 4.002-3.884 6.722-4.685 8.162a9.067 9.067 0 0 1-1.923 2.4c-1.682 1.441-3.204 1.321-4.565-.36-.641-.8-1.242-1.84-1.802-3.12-.801-1.68-1.402-4.08-1.803-7.201-.81-6.763-.57-13.93.715-21.503zm118.112-4.903c.08.32 0 .68-.24 1.08l-.842.72-6.848 5.162c-.64.56-4.085 3.72-10.333 9.482.24 1.28.4 1.96.48 2.04 2.324 8.722 3.805 15.203 4.446 19.444.641 4.001 1.082 7.642 1.322 10.922.72 8.722.76 17.084.12 25.086-.961 12.723-3.805 24.085-8.53 34.087-3.605 7.762-8.21 14.323-13.818 19.684-3.924 3.841-7.97 6.802-12.134 8.882-4.566 2.16-8.972 3.2-13.217 3.12-6.568-.16-11.614-3-15.138-8.521-2.083-3.36-3.405-7.402-3.965-12.123-.801-7.121.08-15.003 2.643-23.645 3.044-10.562 7.85-21.164 14.418-31.806 6.007-9.923 14.017-20.165 24.03-30.727 1.681-1.84 4.124-4.46 7.328-7.862 3.204-3.4 5.127-5.42 5.767-6.06 0-.08.441-.601 1.322-1.561-.56-1.76-.841-2.76-.841-3-1.842-5.922-3.004-9.563-3.484-10.923a12.75 12.75 0 0 0-1.682-3.48c-.801-1.201-1.803-1.401-3.004-.601-1.282.8-2.643 1.84-4.085 3.12-.64.56-2.063 1.861-4.265 3.901-2.203 2.04-3.945 3.581-5.227 4.621-1.682 1.44-4.325 3.441-7.93 6.002-1.601 1.2-3.324 2-5.166 2.4-.881.24-1.442.36-1.682.36-2.803.24-4.405-1-4.806-3.72-.16-.88-.12-1.92.12-3.121.32-2.56 1.202-4.961 2.644-7.202 4.645-7.361 10.212-13.202 16.7-17.523 2.323-1.6 4.606-2.521 6.849-2.761 1.04-.08 2.082 0 3.123.24 1.282.32 2.243 1.16 2.884 2.52.8 1.52.74 2.961-.18 4.321-.921 1.36-2.183 1.88-3.785 1.56-2.803-.48-5.927.28-9.371 2.281-5.047 2.88-9.692 7.322-13.938 13.323-.56.8-1.081 1.8-1.562 3-.24.64-.36 1.481-.36 2.521 0 .08.12.6.36 1.56.882.32 2.123.2 3.725-.36 1.762-.64 3.805-1.84 6.128-3.6 5.606-4.161 10.973-8.962 16.1-14.403 1.04-1.12 1.721-1.8 2.042-2.04 1.121-.96 2.383-1.441 3.785-1.441 1.401 0 2.663.52 3.784 1.56.881.8 1.682 1.84 2.403 3.121.4.8.961 2.2 1.682 4.2.32.961.761 2.321 1.322 4.082.56 1.76.921 2.92 1.081 3.48 0 .08.24.68.721 1.8.4-.32 1.121-.96 2.163-1.92.64-.64 2.062-1.94 4.265-3.9s3.865-3.501 4.986-4.621c1.682-1.44 3.404-2.44 5.167-3.001.64-.24 1.201-.36 1.682-.36.4 0 .68.2.84.6zm-16.58 47.77c-.722-7.361-2.404-15.723-5.047-25.085 0-.08-.24-.76-.72-2.04l-1.323 1.08c-8.89 8.642-16.82 17.363-23.789 26.165-8.97 11.203-15.86 22.205-20.665 33.007-4.406 9.762-7.049 18.724-7.93 26.886-.72 5.921-.44 11.202.841 15.843.801 3.041 2.043 5.601 3.725 7.682 2.322 3.04 5.406 4.921 9.251 5.641 3.124.56 6.608.24 10.453-.96 3.204-1.04 6.448-2.76 9.732-5.161 5.286-3.921 9.772-8.922 13.456-15.003 3.765-6.082 6.689-12.843 8.771-20.285 1.923-6.881 3.164-14.563 3.725-23.045.48-7.761.32-16.003-.48-24.725z"/>
        <text fill="#1E1C1C" font-family="DomaineDispNar-Regular, Domaine Display Narrow" font-size="17" font-style="condensed">
            <tspan x="43" y="219">nextwave girls</tspan>
        </text>
    </g>
</svg>
