<svg width="44px" height="44px" viewBox="0 0 44 44" version="1.1" xmlns="http://www.w3.org/2000/svg" xmlns:xlink="http://www.w3.org/1999/xlink">
    <g id="Symbols" stroke="none" stroke-width="1" fill="none" fill-rule="evenodd">
        <g id="item/blockbottom/social" transform="translate(-269.000000, -171.000000)" stroke="#505152">
            <g id="icon/email/default" transform="translate(270.000000, 172.000000)">
                <circle id="Oval" cx="21" cy="21" r="21"></circle>
                <path d="M31.7525259,13.3414167 L21.124566,20.6481391 L10.3496221,13.2403652 C10.5244754,13.0905203 10.7516666,13 11,13 L31,13 C31.3000484,13 31.5692322,13.1321474 31.7525259,13.3414167 L21.124566,20.6481391 L31.5644669,27.825571 C31.827457,27.6454109 32,27.3428552 32,27 L32,14 C32,13.7477637 31.906612,13.5173393 31.7525259,13.3414167 Z M21.124566,20.6481391 L10.5711311,27.9036256 C10.2334418,27.74307 10,27.3987966 10,27 L10,14 C10,13.6960486 10.1356076,13.4237701 10.3496221,13.2403652 L21.124566,20.6481391 L10.5711311,27.9036256 C10.7011003,27.96542 10.8465119,28 11,28 L31,28 C31.2094295,28 31.4038222,27.9356199 31.5644669,27.825571 L21.124566,20.6481391 Z" id="Combined-Shape"></path>
            </g>
        </g>
    </g>
</svg>