<svg xmlns="http://www.w3.org/2000/svg" width="150" height="128" viewBox="0 0 150 128">
    <path fill="#FF5145" fill-rule="nonzero" stroke="#FF5145" d="M138.47 13.602c-7.418-7.804-17.44-12.268-28.219-12.558-10.796-.302-21.035 3.614-28.859 11l-7.201 6.709-7.707-8.028C50.93-2.877 28.407-2.135 12.926 12.479c-15.765 14.89-15.918 39.38-.35 55.762l32.726 34.588 20.538 21.767v.003c1.523 1.604 3.42 2.401 5.376 2.401 1.878 0 3.8-.768 5.512-2.24a.742.742 0 0 0 .234-.143l4.88-4.576.576-.541.62-.585 16.4-15.339 5.116-4.825.453-.425-.002-.004 5.08-4.794 4.76-4.488 20.922-19.74c7.905-7.456 12.582-17.22 13.17-27.501.601-10.445-3.118-20.457-10.468-28.197zM14.42 14C29.36-.062 51.08-.788 66.015 12.23l8.27 8.589.001.003c.002.003.002.003.004.003l27.68 28.746a8.068 8.068 0 0 1 2.239 5.812 8.044 8.044 0 0 1-2.55 5.678 8.279 8.279 0 0 1-5.85 2.227 8.15 8.15 0 0 1-5.717-2.539L75.05 44.977c-.003-.004-.003-.01-.006-.014-.004-.003-.009-.003-.012-.006l-7.67-8.046a.855.855 0 0 0-.977-.175c-.362.175-8.994 4.13-20.536-7.987a.846.846 0 0 0-1.185-.033.83.83 0 0 0-.034 1.177c10.873 11.409 19.603 9.4 21.91 8.575l6.709 7.038-37.05 34.802c-2.235 2.105-3.04 5.129-2.443 7.923l-6.677-7.054c-.052-.054-.114-.088-.175-.123L14.136 67.6C-.893 51.84-.765 28.296 14.42 14zm46.354 102.054c.014.247.016.493.05.739l-.858-.91c.283.073.54.117.808.171zM39.947 94.077c.622.18 1.254.308 1.895.308.676 0 1.346-.133 2-.339a7.516 7.516 0 0 0-.458 3.877l-3.437-3.846zm9.737 11.811a7.257 7.257 0 0 0 1.573.188 7.25 7.25 0 0 0 2.322-.4 7.227 7.227 0 0 0-.382 3.878l-3.513-3.666zm18.079 17.362l-2.663-2.833c-.013-.019-.018-.036-.032-.052a6.639 6.639 0 0 1-1.751-4.599l.006-.019c.005-.033-.006-.068-.005-.099.056-1.639.725-3.235 2.002-4.414a6.355 6.355 0 0 1 4.588-1.675 6.427 6.427 0 0 1 4.437 2.107l6.401 7.015.096.105-4.526 4.255c-2.76 2.613-6.2 2.7-8.553.21zm26.72-37.08a5.969 5.969 0 0 1 2.026-4.138 6.22 6.22 0 0 1 4.134-1.555c1.71 0 3.355.697 4.5 1.904L112 89.803l-3.675 3.363-5.195 4.757-7.067-7.487c-.016-.017-.036-.03-.052-.041a5.659 5.659 0 0 1-1.528-4.226zm.557 4.265l7.223 7.734-10.305 9.446-7.314-7.807a6.76 6.76 0 0 1-1.848-4.953 6.802 6.802 0 0 1 2.27-4.786 7.231 7.231 0 0 1 4.833-1.838c1.944 0 3.802.791 5.108 2.162.01.012.017.029.033.042zm-10.968 9.821l6.507 7.63-9.237 9.422-6.59-7.783c-1.166-1.37-1.767-3.147-1.693-5.003.073-1.857.812-3.573 2.08-4.83 1.151-1.141 2.623-1.769 4.15-1.769 1.779-.002 3.521.848 4.783 2.333zm62.92-58.106c-.564 9.903-5.072 19.323-12.692 26.523l-20.949 19.809-6.675-7.464a7.678 7.678 0 0 0-5.636-2.471 7.624 7.624 0 0 0-5.17 2.013 7.754 7.754 0 0 0-2.517 5.31c-.044.814.072 1.6.27 2.359a8.484 8.484 0 0 0-3.251-.66 8.53 8.53 0 0 0-5.772 2.24 8.345 8.345 0 0 0-2.72 5.845 8.418 8.418 0 0 0 .427 2.97 8.232 8.232 0 0 0-3.013-.59c-2.019 0-3.968.765-5.48 2.156a8.344 8.344 0 0 0-2.721 5.841 8.368 8.368 0 0 0 .416 2.922c-.842-.332-1.729-.564-2.652-.609a8.28 8.28 0 0 0-6.02 2.189c-1.434 1.312-2.254 3.035-2.52 4.836-1.195-.257-2.548-.745-3.456-1.703-2.574-2.72-2.408-7.238.356-9.863L92.74 70.23a.837.837 0 0 0 .035-1.18.841.841 0 0 0-1.18-.034l-35.698 33.735c-2.734 2.58-7.064 2.46-9.65-.267-2.596-2.743-2.472-6.928.278-9.531.02-.02.029-.046.047-.066.063-.058.135-.095.197-.153l35.526-33.54a.834.834 0 1 0-1.147-1.213L45.622 91.521c-2.734 2.58-7.065 2.463-9.651-.267-2.587-2.73-2.469-7.053.263-9.635l36.921-34.863 14.428 15.206a9.767 9.767 0 0 0 6.865 3.062c2.619.035 5.114-.882 7.023-2.684a9.74 9.74 0 0 0 3.063-6.856 9.752 9.752 0 0 0-2.69-7.013L74.841 20.289l7.211-6.733c7.532-7.122 17.405-10.89 27.756-10.602 10.368.287 20.005 4.583 27.136 12.105 7.053 7.435 10.624 17.057 10.047 27.09z"/>
</svg>
