<svg xmlns="http://www.w3.org/2000/svg" width="135" height="135" viewBox="0 0 135 135">
    <g fill="#FF5145" fill-rule="nonzero">
        <path d="M67.503 114c.95 0 1.717-.746 1.717-1.667V85.591C85.236 84.725 98 71.956 98 56.338 98 40.16 84.317 27 67.5 27S37 40.16 37 56.338c0 15.62 12.768 28.39 28.786 29.253v26.742c0 .92.768 1.667 1.717 1.667zM40.434 56.338c0-14.34 12.142-26.005 27.066-26.005S94.566 42 94.566 56.338c0 13.78-11.224 25.06-25.346 25.92v-9.893l9.589-9.293c.67-.65.67-1.706.001-2.357a1.755 1.755 0 0 0-2.43-.002l-7.16 6.941V55.988c0-.92-.768-1.667-1.717-1.667-.949 0-1.717.746-1.717 1.667v11.666l-7.162-6.94a1.755 1.755 0 0 0-2.43.001c-.668.651-.668 1.707.002 2.357l9.59 9.293v9.893c-14.124-.856-25.352-12.137-25.352-25.92z"/>
        <path d="M3.397 67.51c0-35.363 28.95-64.134 64.536-64.134 14.384 0 28.35 4.783 39.643 13.524l-9.49.02a1.693 1.693 0 0 0-1.695 1.69 1.692 1.692 0 0 0 1.699 1.685h.003l14.182-.03a1.693 1.693 0 0 0 1.695-1.684L114 4.434a1.693 1.693 0 0 0-1.695-1.691h-.003c-.937 0-1.697.753-1.699 1.684l-.022 10.552A68.218 68.218 0 0 0 67.933 0C30.475 0 0 30.285 0 67.51c0 13.53 4.012 26.583 11.601 37.747a1.702 1.702 0 0 0 2.359.454c.778-.522.982-1.571.458-2.344C7.208 92.762 3.397 80.364 3.397 67.51zM121.142 29.289a1.69 1.69 0 0 0-.455 2.344c7.158 10.604 10.941 23.003 10.941 35.856 0 35.364-28.74 64.135-64.066 64.135a63.853 63.853 0 0 1-40.526-14.468l9.762-.02a1.686 1.686 0 0 0 1.682-1.692 1.686 1.686 0 0 0-1.686-1.684l-14.082.03a1.687 1.687 0 0 0-1.682 1.684L21 129.62a1.686 1.686 0 1 0 3.372.007l.022-10.275A67.226 67.226 0 0 0 67.562 135C104.747 135 135 104.715 135 67.49c0-13.53-3.983-26.583-11.517-37.748a1.688 1.688 0 0 0-2.341-.453z"/>
    </g>
</svg>
