<svg xmlns="http://www.w3.org/2000/svg" width="123" height="113" viewBox="0 0 123 113">
    <g fill="#FF5145" fill-rule="nonzero">
        <path d="M39.509 28.925c3.343-8.553 7.2-15.702 12.73-22.086 2.057-2.297 4.372-4.34 7.2-5.617 4.758-2.17 11.573 1.15 13.888 6.256 2.7 6.128 1.672 12.255.129 18.128-3.987 15.192-10.93 29.107-18.903 42.512-4.243 7.149-9.9 13.532-14.916 20.17-4.5 6-9.515 11.618-12.087 18.767-.643 1.787-2.314 3.064-4.243 2.936-2.443 0-1.414-2.298-1.8-3.574-.9-3.575-1.543-7.277-3.086-10.469-6.044-12.766-9.773-26.298-13.245-39.83C2.733 46.542-.353 36.84.033 26.627.29 20.498 1.576 14.498 4.019 9.01c2.7-6 7.972-9.575 14.659-8.937 7.586.766 11.958 6.766 14.659 13.15 1.928 4.978 4.5 9.702 6.172 15.702zm-14.145 67.79c3.472-4.086 6.815-7.788 9.901-11.873 12.216-15.958 24.946-31.66 30.347-51.832 2.057-7.915 3.214-15.574 1.414-23.617-.643-2.937-2.057-3.83-5.143-2.681-7.201 2.808-11.316 8.553-14.402 15.064-3.343 7.022-4.758 14.681-5.4 22.469-.129 1.915-.515 4.085-2.7 4.213-2.058.127-2.315-1.788-2.701-3.575-.257-1.404-.514-2.68-.643-4.213-.772-10.085-3.215-19.788-9.258-27.958-2.572-3.575-6.044-7.404-10.673-6.639-5.143.894-8.23 4.98-9.387 10.214-3.343 13.276.258 26.043 2.83 38.554 2.957 14.426 9.257 28.086 15.815 41.873zM100.844 62.255c3.713-1.28 6.913-.896 9.986-1.024 4.737-.128 9.603 1.152 11.14 5.378 1.792 4.61 1.407 10.116-2.434 14.342-4.993 5.634-11.522 9.22-18.308 11.908-12.035 4.994-24.07 9.732-35.081 16.647-.64.384-1.28.64-1.793 1.024-1.408 1.409-2.688 3.33-4.993 2.05-2.177-1.281-1.152-3.714-.896-5.379.896-4.738 2.176-9.476 3.713-14.214 2.56-8.067 4.993-16.134 8.322-23.817 4.225-9.604 9.602-18.568 19.973-23.05 3.2-1.408 6.402-1.664 8.834.257 3.201 2.433 4.61 6.146 3.457 10.244-.512 1.664-1.152 3.201-1.92 5.634zM63.97 104c1.409-.512 2.433-.768 3.201-1.28 9.602-5.25 19.717-9.348 29.96-13.446 7.81-3.073 14.98-7.427 19.077-15.366 2.048-4.098 1.536-6.019-2.817-7.427-5.506-1.665-10.115.384-14.34 3.841-4.609 3.842-7.938 8.708-11.523 13.446-1.024 1.28-2.304 1.664-3.713 1.28-.896-.256-1.664-1.152-1.408-1.92 1.024-2.306.256-4.995 2.689-7.171 6.145-5.763 11.267-12.293 11.65-21.385 0-1.28.513-2.69-.896-3.458-1.28-.768-2.304-.256-3.585.385-6.145 3.329-11.138 7.81-14.98 13.573-3.968 5.89-5.505 12.805-7.937 19.336-2.305 6.274-3.713 12.677-5.378 19.592z"/>
    </g>
</svg>
