<svg xmlns="http://www.w3.org/2000/svg" width="65" height="68" viewBox="0 0 65 68">
    <path fill="#FF5145" fill-rule="nonzero" d="M42.844 17.255c3.713-1.28 6.913-.896 9.986-1.024 4.737-.129 9.603 1.152 11.14 5.378 1.792 4.61 1.407 10.116-2.434 14.342-4.993 5.634-11.522 9.22-18.308 11.908-12.035 4.994-24.07 9.732-35.081 16.647-.64.384-1.28.64-1.793 1.024-1.408 1.409-2.688 3.33-4.993 2.05C-.816 66.298.209 63.865.465 62.2c.896-4.738 2.176-9.476 3.713-14.214C6.738 39.92 9.17 31.853 12.5 24.17c4.225-9.604 9.602-18.568 19.973-23.05 3.2-1.408 6.402-1.664 8.834.257 3.201 2.433 4.61 6.146 3.457 10.244-.512 1.664-1.152 3.201-1.92 5.634zM5.97 59c1.409-.512 2.433-.768 3.201-1.28 9.602-5.25 19.717-9.348 29.96-13.446 7.81-3.073 14.98-7.427 19.077-15.366 2.048-4.098 1.536-6.019-2.817-7.427-5.506-1.665-10.115.384-14.34 3.841-4.609 3.842-7.938 8.708-11.523 13.446-1.024 1.28-2.304 1.664-3.713 1.28-.896-.256-1.664-1.152-1.408-1.92 1.024-2.306.256-4.995 2.689-7.171 6.145-5.763 11.267-12.293 11.65-21.385 0-1.28.513-2.69-.896-3.458-1.28-.768-2.304-.256-3.585.385-6.145 3.329-11.138 7.81-14.98 13.573-3.968 5.89-5.505 12.805-7.937 19.336C9.043 45.682 7.635 52.085 5.97 59z"/>
</svg>
