<svg xmlns="http://www.w3.org/2000/svg" width="136" height="126" viewBox="0 0 136 126">
    <path fill="#FF5145" fill-rule="nonzero" d="M134.489 33.633H97.358c1.408-.553 2.792-1.147 4.098-1.85 15.725-8.467 25.248-20.468 21.681-27.32C122.077 2.424 119.46 0 113.01 0c-6.767 0-15.619 2.674-24.284 7.339-11.75 6.327-18.218 18.14-20.638 23.411-.03 0-.058-.018-.091-.018-.03 0-.057.015-.088.018-2.42-5.27-8.888-17.084-20.641-23.411C38.606 2.677 29.757 0 22.987 0c-6.45 0-9.067 2.428-10.127 4.462-1.82 3.494-.396 8.325 4.007 13.605 4.098 4.914 10.375 9.785 17.677 13.713 1.309.703 2.69 1.297 4.101 1.85H1.511C.677 33.63 0 34.318 0 35.166v89.297C0 125.312.677 126 1.511 126H134.49c.834 0 1.511-.688 1.511-1.537V35.17c0-.85-.677-1.536-1.511-1.536zm-1.511 3.073v39.951H69.51V36.706h63.467zM90.144 10.052c8.12-4.37 16.67-6.979 22.866-6.979 3.86 0 6.507 1.005 7.456 2.827 2.339 4.497-5.473 15.114-20.427 23.166-5.625 3.03-12.346 4.567-19.971 4.567-4.159 0-7.613-.48-9.572-.83 1.98-4.44 8.236-16.604 19.648-22.75zM35.958 29.066c-6.969-3.752-12.929-8.362-16.785-12.987-3.5-4.195-4.827-7.904-3.642-10.179.95-1.822 3.597-2.827 7.456-2.827 6.199 0 14.748 2.61 22.866 6.98 11.412 6.146 17.668 18.31 19.648 22.75a55.4 55.4 0 0 1-9.572.83c-7.622 0-14.343-1.537-19.97-4.567zm30.53 7.64v39.951H3.023V36.706H66.49zM3.023 79.727H66.49v43.2H3.022v-43.2zm66.49 43.2v-43.2h63.466v43.2H69.51z"/>
</svg>
