<svg xmlns="http://www.w3.org/2000/svg" width="30" height="31" viewBox="0 0 30 31">
    <g fill="#D4DEED" fill-rule="evenodd">
        <path fill-rule="nonzero" d="M21.93 26a6.95 6.95 0 0 0-.604-2h5a30.163 30.163 0 0 1-.745-1.606c-.609-1.42-1.074-2.817-1.34-4.142A11.527 11.527 0 0 1 24 16v-5A9 9 0 0 0 9.917 3.572a4.512 4.512 0 0 0-1.7-1.233A10.953 10.953 0 0 1 15 0c6.075 0 11 4.925 11 11v5c0 .569.07 1.191.203 1.86.235 1.174.658 2.444 1.216 3.746.317.739.657 1.441.996 2.082.202.382.358.656.442.798l.91 1.514h-7.838zM8.07 26H.235l.909-1.514c.084-.142.24-.416.442-.798.34-.64.68-1.343.996-2.082.558-1.302.981-2.572 1.216-3.747A9.56 9.56 0 0 0 4 16v-5c0-.25.008-.496.025-.741A4.473 4.473 0 0 0 6 10.973V16c0 .71-.084 1.461-.242 2.252-.265 1.325-.73 2.722-1.339 4.142-.24.559-.49 1.096-.745 1.606h5a6.95 6.95 0 0 0-.603 2z"/>
        <circle cx="15" cy="27" r="4"/>
    </g>
</svg>
