<svg xmlns="http://www.w3.org/2000/svg" width="44" height="44" viewBox="0 0 44 44">
    <g fill="none" fill-rule="evenodd">
        <path fill="#000" d="M0 0h44v44H0z"/>
        <g stroke="#FFF" stroke-width="2" transform="translate(11 11)">
            <path d="M8.455 17.086L5.212 18.48A2.002 2.002 0 0 0 4 20.319V22h14v-1.681a2 2 0 0 0-1.212-1.838l-3.251-1.388"/>
            <circle cx="11" cy="2" r="2" stroke-linecap="square"/>
            <circle cx="20" cy="7" r="2" stroke-linecap="square"/>
            <circle cx="2" cy="7" r="2" stroke-linecap="square"/>
            <path stroke-linecap="square" d="M11 18a4 4 0 0 1-4-4v-1a4 4 0 0 1 8 0v1a4 4 0 0 1-4 4z"/>
        </g>
    </g>
</svg>
