<svg xmlns="http://www.w3.org/2000/svg" viewBox="0 0 185 185" width="185" height="185"><style>tspan { white-space:pre }.shp0 { fill: #d12e4b } .shp1 { fill: #ffffff } </style><path class="shp0" d="M3.76 93C3.76 43.71 43.71 3.76 93 3.76C142.29 3.76 182.24 43.71 182.24 93C182.24 142.29 142.29 182.24 93 182.24C43.71 182.24 3.76 142.29 3.76 93ZM1 93C1 143.81 42.19 185 93 185C143.81 185 185 143.81 185 93C185 42.19 143.81 1 93 1C42.19 1 1 42.19 1 93Z" /><path class="shp0" d="M16.03 93C16.03 50.49 50.49 16.03 93 16.03C135.51 16.03 169.97 50.49 169.97 93C169.97 135.51 135.51 169.97 93 169.97C50.49 169.97 16.03 135.51 16.03 93Z" /><path class="shp1" d="M108.85 79.72L116.46 72.09C116.81 71.74 117 71.27 117 70.77C117 67.18 115.59 63.83 113.03 61.32C110.48 58.82 107.08 57.47 103.51 57.56L103.45 57.56C102.69 57.56 101.93 57.22 101.31 56.62C100.5 55.82 100.02 54.67 100.02 53.53L100.02 47.86C100.02 46.83 99.18 46 98.16 46L86.84 46C85.82 46 84.99 46.83 84.99 47.86L84.99 53.53C84.99 54.67 84.5 55.82 83.69 56.62C83.25 57.05 82.52 57.56 81.55 57.56L81.49 57.56C77.91 57.47 74.52 58.82 71.97 61.32C69.41 63.83 68 67.18 68 70.77C68 71.27 68.19 71.74 68.54 72.09L76.15 79.72C77.48 81.06 77.64 83.18 76.51 84.64C71.02 91.74 68 100.59 68 109.57L68 110.54C68 111.56 68.83 112.39 69.85 112.39L90.59 112.39L90.45 113.5C89.33 121.89 83.72 128.76 75.8 131.4L74.93 131.69C73.96 132.02 73.43 133.07 73.76 134.05C74.01 134.81 74.72 135.32 75.51 135.32C75.7 135.32 75.88 135.29 76.06 135.24C76.17 135.19 76.3 135.15 76.52 135.08C81.53 133.48 85.69 130.57 88.9 126.44L90.65 124.18L90.65 139.14C90.65 140.17 91.48 141 92.5 141C93.52 141 94.35 140.17 94.35 139.14L94.35 124.18L96.1 126.44C99.3 130.56 103.47 133.47 108.51 135.09C108.71 135.15 108.84 135.19 108.94 135.23C109.11 135.29 109.3 135.32 109.49 135.32C110.28 135.32 110.99 134.81 111.24 134.05C111.57 133.07 111.04 132.02 110.07 131.69L109.2 131.4C101.28 128.75 95.67 121.9 94.55 113.51L94.41 112.4L115.15 112.4C116.17 112.4 117 111.57 117 110.54L117 109.57C117 100.59 113.98 91.74 108.49 84.64C107.36 83.18 107.52 81.06 108.85 79.72ZM71.72 70.02L71.79 69.54C72.06 67.41 73.02 65.49 74.56 63.98C76.39 62.18 78.83 61.21 81.4 61.27L81.55 61.28C83.28 61.28 84.96 60.57 86.28 59.28C87.81 57.77 88.69 55.68 88.69 53.53L88.69 49.72L96.31 49.72L96.31 53.53C96.31 55.68 97.19 57.77 98.72 59.28C100.04 60.57 101.72 61.28 103.45 61.28L103.6 61.27C106.17 61.2 108.61 62.18 110.44 63.98C111.98 65.49 112.94 67.41 113.22 69.54L113.28 70.02L106.23 77.09C105.5 77.83 104.93 78.69 104.55 79.66L104.31 80.28L80.69 80.28L80.45 79.66C80.07 78.69 79.5 77.83 78.77 77.09L71.72 70.02ZM113.3 108.68L71.7 108.68L71.76 107.65C72.15 100.18 74.88 92.82 79.44 86.92C79.96 86.25 80.35 85.5 80.61 84.68L80.83 84L104.17 84L104.38 84.68C104.65 85.49 105.04 86.25 105.56 86.92C110.12 92.82 112.85 100.18 113.24 107.65L113.3 108.68Z" /></svg>