<svg xmlns="http://www.w3.org/2000/svg" viewBox="0 0 185 185" width="185" height="185"><style>tspan { white-space:pre }.shp0 { fill: #4bb29f } .shp1 { fill: #ffffff } </style><path class="shp0" d="M3.76 93C3.76 43.71 43.71 3.76 93 3.76C142.29 3.76 182.24 43.71 182.24 93C182.24 142.29 142.29 182.24 93 182.24C43.71 182.24 3.76 142.29 3.76 93ZM1 93C1 143.81 42.19 185 93 185C143.81 185 185 143.81 185 93C185 42.19 143.81 1 93 1C42.19 1 1 42.19 1 93Z" /><path class="shp0" d="M16.03 93C16.03 50.49 50.49 16.03 93 16.03C135.51 16.03 169.97 50.49 169.97 93C169.97 135.51 135.51 169.97 93 169.97C50.49 169.97 16.03 135.51 16.03 93Z" /><path class="shp1" d="M137.94 105.44C137.29 98.74 133.47 81.28 132.31 76.09L132.27 75.92L132.43 75.84C134.43 74.96 135.72 72.97 135.72 70.78L135.72 70.58C135.72 67.53 133.24 65.04 130.2 65.04L111.41 65.04L111.54 64.74C112.04 63.59 112.29 62.37 112.29 61.11C112.29 56.09 108.22 52 103.22 52C100.22 52 97.42 53.49 95.72 56L95.55 56.25L95.37 56C93.63 53.68 90.99 52.34 88.1 52.34C83.1 52.34 79.03 56.43 79.03 61.45C79.03 62.58 79.24 63.7 79.65 64.75L79.76 65.04L61.8 65.04C58.76 65.04 56.28 67.53 56.28 70.58L56.28 70.78C56.28 72.97 57.57 74.96 59.57 75.84L59.73 75.92L59.69 76.09C58.53 81.28 54.71 98.74 54.06 105.44C53.68 109.43 55.02 113.33 57.83 116.44C60.98 119.92 65.68 122 70.39 122L121.61 122C126.32 122 131.02 119.92 134.17 116.44C136.98 113.33 138.32 109.42 137.94 105.44ZM103.22 55.13C106.5 55.13 109.17 57.81 109.17 61.11C109.17 62.52 108.67 63.89 107.76 64.97L107.69 65.04L98.75 65.04L98.68 64.97C97.77 63.89 97.27 62.52 97.27 61.11C97.27 59.51 97.89 58.01 99.02 56.89C100.14 55.76 101.64 55.13 103.22 55.13ZM121.61 118.87L70.39 118.87C66.54 118.87 62.71 117.17 60.14 114.33C57.93 111.89 56.87 108.83 57.17 105.74C57.8 99.22 61.64 81.7 62.8 76.49L62.84 76.32L119.01 76.32L119.05 76.49C120.21 81.7 124.05 99.21 124.68 105.74C124.76 106.55 125.43 107.16 126.24 107.16C126.29 107.16 126.33 107.16 126.38 107.16C127.24 107.07 127.87 106.3 127.79 105.44C127.16 98.85 123.4 81.69 122.27 76.58L122.21 76.32L129.16 76.32L129.2 76.49C130.36 81.7 134.2 99.21 134.83 105.74C135.13 108.83 134.07 111.89 131.86 114.33C129.29 117.17 125.46 118.87 121.61 118.87ZM84.06 67.23C84.31 66.66 84.2 65.99 83.77 65.54C82.73 64.42 82.15 62.97 82.15 61.45C82.15 58.15 84.82 55.47 88.1 55.47C91.38 55.47 94.05 58.15 94.05 61.45C94.05 62.97 93.48 64.42 92.43 65.54C92.01 65.99 91.89 66.66 92.14 67.23C92.39 67.81 92.95 68.18 93.57 68.18L130.2 68.18C131.52 68.18 132.6 69.26 132.6 70.58L132.6 70.78C132.6 72.11 131.52 73.18 130.2 73.18L61.8 73.18C60.48 73.18 59.4 72.11 59.4 70.78L59.4 70.58C59.4 69.26 60.48 68.18 61.8 68.18L82.63 68.18C83.25 68.18 83.82 67.81 84.06 67.23Z" /></svg>