<svg xmlns="http://www.w3.org/2000/svg" width="282" height="256" viewBox="0 0 282 256">
    <g fill="none" fill-rule="evenodd">
        <path fill="#B28B67" d="M91.798 198.146c2.846 7.556 3.622 15.829.185 23.532-9.901 22.194-40.021 5.556-42.05-8.203-2.029-13.76 9.325-42.655 18.103-41.787 3.501.346 9.593 4.836 15.024 11.519l6.783-32.197 25.735 9.367-23.78 37.769z"/>
        <path fill="#191847" d="M49.383 207.428c-.288 1.583-.267 3.465-.278 5.058-.013 2.054.371 4.05.888 5.987a40.337 40.337 0 0 0 4.354 10.32c3.467 5.77 8.89 10.344 15.315 11.838 3.244.754 6.689.676 9.969-.348 2.963-.925 6.142-2.718 9.214-1.812 3.342.986 5.295 4.94 7.273 7.662 2.23 3.07 4.844 5.667 8.093 7.488 5.441 3.052 11.583 3.09 17.286-.171 6.069-3.47 11.83-9.702 11.462-17.361-.069-1.424-.356-2.708-.998-3.919-.59-1.11-1.622-2.44-1.518-3.834.112-1.482 1.871-2.805 2.75-3.859 1.26-1.51 2.438-3.146 2.942-5.101.829-3.212-.057-6.887-1.388-9.68-1.355-2.843-3.519-4.978-6.093-6.536-1.719-1.04-3.538-1.931-5.47-2.479-.96-.272-1.878-.314-2.858-.439-.953-.12-1.36-.532-1.933-1.283-2.66-3.49-6.077-5.71-10.204-6.837-3.483-.951-7.677-1.556-11.273-.26-3.993 1.44-5.214 4.984-5.863 9.01-.627-.654-2.655-1.656-1.938.302.284.775 1.142 1.36 1.656 1.943.6.678 1.168 1.48 1.507 2.353 1.369 3.529-2.98 8.112-6.251 7.938-4.86-.26-3.605-6.759-6.15-9.485-1.463-1.567-3.796-1.002-5.606-.217-2.424 1.052-4.476 2.868-6.375 4.785-1.563 1.578-3.076 3.205-4.653 4.768-.737.73-3.083 2.697-2.723 3.957-3.36-.52-6.38-3.084-8.462-5.762-.86-1.107-1.43-2.189-1.574-3.643-.03-.311-.022-1.2-.358-1.36-.627-.296-.671.58-.743.977"/>
        <path fill="#1F28CF" d="M145.921 74.614l-2.05-154.16.343-112.948-20.525-7.47L87.523 53.359z"/>
        <path fill="#2B44FF" d="M158.614 79.234c17.476-46.278 39.85-109.005 42.205-111.43 1.57-1.615 36.552-13.807 104.946-36.574l-4.053-21.784C223.955-72.98 182.484-62.082 177.298-57.857c-7.779 6.336-59.17 71.996-87.987 111.867l69.303 25.224z"/>
        <path fill="#191847" d="M328.386-73.893l-22.589 7.015-8.146-22.383c3.537-13.307 4.484-29.343 2.842-48.11l4.229-1.538 14.741 40.502 2.929 14.625 2.114-.77 3.88 10.66zM152.984-210.662l-9.146 21.813-22.383-8.147c-7.92-11.263-19.595-22.297-35.026-33.101l1.539-4.229 40.502 14.742 13.086 7.157.77-2.114 10.658 3.88z"/>
        <g>
            <path fill="#B28B67" d="M45.65 59.263l-24.88-37.37c-8.31-5.848-14.88-11.75-19.714-17.71C.08 2.318-.702-1.026 5.185 1.647c5.887 2.672 12.2 5.217 13.789 3.451 1.588-1.765-1.176-5.576 1.53-7.753 1.803-1.452 5.425 5.154 10.866 19.819l28.56 26.23-14.28 15.869zm149.966 66.398l-17.52-10.234c37.521-35.362 57.51-54.004 59.965-55.928 5.525-4.328 5.674-15.697 6.281-21.502 8.426.867 1.3 11.572 12.015 12.515 9.78.861 19.4-2.262 25.129 8.392.704 1.31.434 4.552-3.614 4.869-10.084.789-25.501 3.46-28.556 5.506-4.167 2.79-22.066 21.585-53.7 56.382z"/>
            <path fill="#69A1AC" d="M38.717 53.674c-4.486-1.277-8.977-3.733-13.45-7.31a5.113 5.113 0 0 1 3.256-9.104 282.846 282.846 0 0 0-2.178-3.201l14.953-14.413c29.512 31.148 58.47 57.073 63.091 92.444 1.551 11.871-12.547 45.147-16.543 57.664l-13.096.535c-3.91-38.668-13.918-78.043-36.033-116.615z"/>
            <path fill="#191847" d="M169.614 69.613C137.468 53.738 111.11 44.144 90.54 40.83c-2.549-.41-6.19 9.918-6.107 13.13 1.277 50.024.934 86.179-10.13 116.575 3.76-.503 9.374 1.26 16.846 5.29 32.613-23.604 55.445-55.996 78.466-106.213z"/>
            <path fill="#89C5CC" d="M177.72 66.702a5.1 5.1 0 0 1-.135 4.852l-1.712 2.967a5.1 5.1 0 0 1-5.58 2.417 86.482 86.482 0 0 0-2.657 4.435c-7.005 12.553-8.09 26.967-12.936 39.745 22.457-8.407 47.025-28.097 73.702-59.068l17.96 13.253a381.343 381.343 0 0 1-5.468 7.599c1.841 2.166 2.35 9.211.028 9.514a24.97 24.97 0 0 1-7.21-.113c-38.707 48.952-83.69 78.683-134.948 89.194l-5.754-2.095-6.36-2.315c20.766-45.959 9.054-167.063 58.23-248.95 34.193 4.434 71.32 42.873 121.658 41.28-14.55 34.89-62.47 64.655-88.817 97.285z"/>
            <path fill="#000" fill-opacity=".1" d="M94.753 178.828l11.658-14.932-6.447-16.72 13.632-6.335-9.088-50.316 14.511 52.196-13.484 6.482 5.741 14.793z"/>
            <path fill="#000" fill-opacity=".4" d="M117.43 77.1a4.539 4.539 0 0 1 2.708 5.82 4.539 4.539 0 0 1-5.815 2.717 4.539 4.539 0 0 1-2.707-5.82 4.539 4.539 0 0 1 5.815-2.717zm3.609-26.485a4.539 4.539 0 0 1 2.707 5.82 4.539 4.539 0 0 1-5.815 2.718 4.539 4.539 0 0 1-2.707-5.82 4.539 4.539 0 0 1 5.815-2.718zm7.869-24.934a4.539 4.539 0 0 1 2.707 5.82 4.539 4.539 0 0 1-5.815 2.718 4.539 4.539 0 0 1-2.707-5.82 4.539 4.539 0 0 1 5.815-2.718z"/>
        </g>
    </g>
</svg>
