<svg xmlns="http://www.w3.org/2000/svg" width="280" height="410" viewBox="0 0 280 410">
    <g fill="none" fill-rule="evenodd">
        <path fill="#B28B67" d="M130.615 58.517c-5.189-4.26-9.187-9.898-9.915-16.876-2.1-20.107 26.498-20.645 33.679-11.576 7.18 9.07 11.02 34.608 4.34 37.633-2.664 1.206-8.916.504-15.603-2.052l8.502 26.016-22.42 3.953 1.417-37.098z"/>
        <path fill="#191847" d="M139.564 20.766c-3.04.04-11.054 1.112-12.521 1.37-.938.166-1.916.558-2.623-.2-.578-.62-.62-1.834-.9-2.622-.323-.917-.711-1.81-1.102-2.699-1.11-2.532-2.528-4.877-4.308-6.999-3.34-3.982-7.7-6.794-12.786-7.98-5.618-1.31-11.619-.778-17.158.665-5.928 1.544-11.024 4.476-16.374 7.333-5.099 2.723-10.643 4.418-16.454 4.552-5.854.135-10.703-2.175-16.026-4.24-5.45-2.115-11.42-3.074-17.16-1.6-5.359 1.377-9.973 4.489-13.94 8.258C4.5 20.13 1.622 24.092.496 29.154-.715 34.598.268 40.167 4.523 44.04c6.166 5.613 15.783 5.65 23.508 4.116a43.119 43.119 0 0 0 12.703-4.703c5.3-2.97 9.59-7.175 14.395-10.82 2.255-1.71 4.633-3.208 7.186-4.435 2.478-1.191 4.987-1.98 7.623-.831 2.788 1.215 5.312 2.446 8.351 2.978 2.916.511 5.916.555 8.831.018 5.673-1.045 10.962-3.79 16.271-5.941 4.33-1.753 8.974-3.56 13.723-3.445 1.982.048 4.918.35 5.957 2.204-11.264 4.146-13.313 19.246-8.183 29.16 2.769 5.351 14.576 10.096 18.189 6.389 2.288-2.349.26-4.544-1.058-5.997-2.524-2.783-3.908-6.685-.643-9.508 2.816-2.435 6.913 1.445 6.975 1.43.853-.221 7.588-5.74 11.658-12.776 5.134-.597 5.318-4.061 3.624-6.569-1.693-2.508-9.87-4.598-14.07-4.544z"/>
        <path fill="#B28B67" d="M125.548 172.253c5.722 22.622 125.913 70.998 126.879 72.78.429.792-6.117 29.37-19.639 85.734l10.115 2.005c25.122-61.598 36.266-95.193 33.432-100.785-4.058-8.006-36.972-30.892-98.743-68.659l-52.044 8.925z"/>
        <path fill="#2F3676" d="M233.195 318.505l16.446 2.894c26.114-42.477 33.545-75.035 28.493-90.066-3.368-10.02-36.178-32.877-98.429-68.571l-55.255 9.743c11.243 52.741 118.558 74.397 120.299 76.422 1.741 2.025-7.565 26.506-11.554 69.578z"/>
        <path fill="#E4E4E4" d="M228.923 329.772c-1.506 2.563-2.38 4.53-2.622 5.9-.297 1.687-.45 4.199-.458 7.535l52.813 9.312c2.172-4.291 1.811-6.878-1.082-7.761a297.247 297.247 0 0 1-7.196-2.279L247.8 327.245a1 1 0 0 0-1.403.293l-2.225 3.503c-2.963.794-5.3 1.04-7.011.738-1.374-.242-3.168-1.123-5.382-2.643a2 2 0 0 0-2.856.636z"/>
        <path fill="#997659" d="M138 170.058l-27.844 124.191-30.169 106.163 11.187-1.973 84.745-235.067z"/>
        <path fill="#E4E4E4" d="M78.532 396.23c-.538 2.924-.687 5.071-.445 6.442.297 1.687 1.013 4.1 2.146 7.237l52.813-9.313c.573-4.775-.65-7.083-3.671-6.923-3.02.16-5.535.267-7.542.32L95.407 387.4a1 1 0 0 0-1.22.755l-.892 4.053c-2.512 1.759-4.624 2.79-6.335 3.091-1.374.242-3.361.028-5.962-.643a2 2 0 0 0-2.466 1.575z"/>
        <path fill="#5C63AB" d="M80.686 379.34l25.678.273c14.242-31.613 74.27-161.524 73.589-216.952l-55.337 9.757c-22.583 44.138-30.669 175-43.93 206.922z"/>
        <g>
            <path fill="#B28B67" d="M215.824 132.258l31.117-20.781c4.87-6.938 9.785-12.426 14.748-16.462 1.553-.815 4.336-1.47 2.11 3.446-2.226 4.916-4.346 10.186-2.877 11.512 1.47 1.327 4.643-.982 6.455 1.276 1.208 1.505-4.292 4.53-16.502 9.077l-21.844 23.849-13.207-11.917zM80.167 160.39l19.746.426c-12.873 39.182-19.816 59.97-20.83 62.364-2.28 5.385 2.205 13.727 4.107 18.201-6.494 2.773-5.623-7.905-13.818-4.263-7.48 3.325-13.233 9.486-21.714 4.04-1.043-.67-2.155-3.14.668-5.007 7.035-4.649 17.198-12.824 18.6-15.549 1.91-3.716 6.324-23.787 13.241-60.212z"/>
            <path fill="#D3670A" d="M138.492 76.418l7.807-2.802c20.536 13.939 34.906 53.592 47.546 56.948 11.95 3.172 26.738-4.544 44.173-14.517l7.95 11.748c-13.683 21.305-46.987 43.138-63.15 36.877-25.844-10.011-40.133-59.523-44.326-88.254z"/>
            <path fill="#DDE3E9" d="M121.261 183.9l71.228-12.56c3.255-.573 1.812-5.17.923-7.462-10.263-26.448-36.669-52.253-43.547-91.264l-21.115.397c-12.168 30.363-12.104 65.093-7.489 110.89z"/>
            <path fill="#FF8B46" d="M109.264 157.406c-9.896 28.786-18.772 49.82-26.628 63.1l-15.446-.296c-.913-61.416 19.165-110.405 60.235-146.965l.234-.041 7.9-1.393c29.546 59.702 42.027 100.751 37.444 123.15l-64.117 11.305c-1.687-15.5-1.291-32.277.378-48.86z"/>
        </g>
    </g>
</svg>
