<svg xmlns="http://www.w3.org/2000/svg" width="665" height="963" viewBox="0 0 665 963">
    <g fill="none" fill-rule="evenodd">
        <path fill="#B28B67" d="M511.465 109.79c-2.574-17.491-.4-35.598 10.5-50.598 31.408-43.22 87.982 5.957 85.941 36.4-2.04 30.444-39.649 87.4-57.981 81.615-7.311-2.308-18.233-14.67-26.73-31.442l-29.382 66.084-50.584-31.608 68.236-70.45z"/>
        <path fill="#191847" d="M509.314 30.367c-.62-2.643-.064-5.516.539-8.197.626-2.784 1.29-5.578 2.245-8.287 1.906-5.414 5.31-10.884 10.996-12.459 4.56-1.263 9.46-.047 13.395 2.012 2.623 1.371 4.973 3.328 6.878 5.617 1.89 2.271 2.966 5.115 4.667 7.527 3.287-5.064 7.509-9.874 12.832-12.625 5.122-2.647 10.573-2.523 15.491-.318 5.048 2.264 8.957 6.222 11.71 11.077.688 1.215 1.35 2.452 1.92 3.738.476 1.078.914 2.29 1.742 3.125.923.93 1.85.639 3.047.288a20.813 20.813 0 0 1 4.278-.759c6.345-.485 12.87 1.762 16.705 6.826 1.767 2.333 3.084 5.244 3.365 8.296.251 2.72-.576 6.27.557 8.765.481 1.058 1.513.698 2.594.632 1.625-.1 3.25-.316 4.875-.386 2.283-.099 4.525.162 6.645.89 3.104 1.065 6.759 3.554 5.31 7.597-.544 1.518-1.66 2.808-2.596 4.096a387.623 387.623 0 0 1-3.888 5.28c-.997 1.325-1.997 2.583-3.122 3.795-.599.645-1.895 1.738-2.04 2.67-.181 1.163 1.956 1.773 2.71 2.288 1.49 1.019 2.856 2.246 3.86 3.784.779 1.191 1.464 2.657 1.14 4.204-.198.95-.77 1.697-1.4 2.408-.757.854-.89 1.475-1.37 2.513 2.685.27 11.205 2.464 9.796 6.71-.469 1.414-2.014 2.377-3.179 3.088-2.042 1.249-4.27 2.164-6.476 2.986-4.602 1.716-9.412 2.67-14.195 3.067 2.757 4.09.617 9.733-4.56 10.657-2.285.408-4.433-.525-6.222-1.76-.655-.453-1.465-1.32-2.07-1.534-.324-.115-.782-.064-1.194-.284-2.712-1.446-5.255-3.908-7.435-6.074-3.885-3.86-6.83-8.69-8.285-14.152-.373-1.401-.813-2.348-2.03-3.091-1.066-.652-2.287-1.01-3.362-1.645-2.845-1.678-4.513-4.628-6.543-7.166-2.359 3.421-5.782 6.673-9.198 8.942-2.786 1.85-5.467.696-8.014-.58-8.143-4.08-15.354-9.711-23.06-14.511 6.398 6.345 13.665 11.854 19.811 18.456 2.778 2.985-1.18 3.646-3.585 4.317-3.96 1.106-7.701 3.203-11.013 5.806-.67-7.04-5.154-14.206-11.778-16.31-7.319-2.326-17.103 3.447-16.91 12.113.113 5.032 3.482 9.052 6.044 12.784-4.533 1.144-7.837 4.954-11.713 7.48-1.911 1.245-4.295 2.514-6.5 1.987-.815-.195-1.618-.67-2.494-.452-1.085.27-1.719.935-2.926.995-4.82.241-9.953-3.217-11.022-8.13-.966-4.442 2.464-8.374 6.461-9.768-2.644-3.73-7.962-9.727-3.05-14.425-7.43-5.36-18.383-29.726-2.222-32.43-3.69-6.804-3.998-17.987 4.025-22.663 6.177-3.6 14.246-1.894 19.814 1.19"/>
        <path fill="#0E12CB" d="M242.22 612.784c59.654 16.676 111.122 25.014 154.403 25.014 43.28 0 83.482-12.84 120.604-38.522C458.85 582.16 410.775 573.601 373 573.601c-37.775 0-81.368 13.061-130.78 39.183z"/>
        <path fill="#784931" d="M448.264 661.835a14.056 14.056 0 0 1-1.447-2.822C438.844 637.937 311.124 410.569 298.4 369h143.794c9.674 31.605 53.217 229.945 59.345 269.516 19.335 62.42 59.143 264.575 64.225 278.58 5.346 14.732-24.735 30.08-32.75 11.968-12.754-28.82-43.144-108.562-56.675-157.252-12.686-45.647-23.015-86.713-28.075-109.977z"/>
        <path fill="#915B3C" d="M330.62 689.595c-58.391 14.75-271.974 41.416-286.631 45.599-15.078 4.302-28.298-26.76-9.661-33.488C63.982 691 145.692 666.263 195.233 656.168c39.848-8.12 76.21-14.745 100.622-18.625-2.069-68.538-11.523-233.018-5.326-268.543H417.76c-5.942 34.066-56.174 282.629-65.51 307.51-2.963 8.882-11.803 12.807-21.63 13.085z"/>
        <path fill="#E4E4E4" d="M39.154 694.006c-9.42-1.972-16.176-2.597-20.27-1.876-4.396.775-10.68 2.644-18.852 5.605l24.405 138.407c12.444 1.514 18.454-1.686 18.03-9.602-.425-7.915-.71-14.502-.855-19.761l17.511-70.845a1 1 0 0 0-.753-1.216l-12.181-2.71c-4.59-6.587-7.28-12.124-8.07-16.609-.733-4.154.116-10.448 2.547-18.882a2 2 0 0 0-1.512-2.511zM525.085 923.41c-3.578 8.934-5.367 15.48-5.367 19.637 0 4.463.749 10.976 2.246 19.539h140.542c3.653-11.993 1.544-18.467-6.324-19.423-7.87-.957-14.406-1.82-19.61-2.59l-66.728-29.548a1 1 0 0 0-1.329.531l-4.783 11.526c-7.285 3.375-13.204 5.063-17.758 5.063-4.219 0-10.27-1.929-18.153-5.788a2 2 0 0 0-2.736 1.053z"/>
        <path fill="#2227FF" d="M290.94 369c56.066-16.032 109.115-16.032 159.147 0 17.406 79.376 59.702 110.88 67.14 232.577-84.547 41.987-188.987-29.945-276.02 11.001C216.34 555.305 251.153 417.376 290.94 369z"/>
        <g>
            <path fill="#B28B67" d="M570.534 421.75l41.13 89.236c15.99 15.483 28.202 30.488 36.634 45.017 1.476 4.362 2.032 11.848-9.798 4.053-11.83-7.796-24.625-15.465-28.664-12.2-4.04 3.264.647 12.44-5.949 16.21-4.397 2.512-9.988-12.996-16.773-46.524l-52.879-66.457 36.299-29.336zM275.44 318.831l48.395 18.795C256.87 422.63 221.06 467.624 216.41 472.613c-10.467 11.223-6.876 35.814-6.192 48.55-18.532.998-6.797-24.536-30.31-22.924-21.462 1.472-41.203 11.488-57.268-9.558-1.975-2.587-2.506-9.678 6.145-11.74 21.551-5.136 53.995-16.15 59.902-21.607 8.056-7.442 36.974-52.943 86.754-136.502z"/>
            <path fill="#191847" d="M491.153 168.578l21.375 4.263c1.46 99.405 31.696 200.825 90.71 304.26l-95.3 53.933c-47.548-133.274-60.874-257.06-16.785-362.456z"/>
            <path fill="#DDE3E9" d="M307.096 386.744l178.59 68.555c-2.805-116.36 9.271-209.654 36.23-279.885l-50.794-28.697c-68.445 51.756-112.543 130.898-164.026 240.027z"/>
            <path fill="#2F3676" d="M469.966 146.318l.036-.03 3.517 1.35c4.152 1.76 10.461 4.48 18.927 8.162l-1.245 42.152c-16.012 45.828-43.014 140.207-81.007 283.135l-117.07-44.939c-3.333 9.6-6.5 19.364-9.503 29.293l-87.047-33.414c69.34-141.718 160.461-236.973 273.364-285.764l.028.055z"/>
            <path fill="#000" fill-opacity=".1" d="M347.428 317.796c-19.357 60.383-26.655 104.33-21.896 131.84l-32.728-12.564c14.89-43.074 33.098-82.832 54.624-119.276z"/>
            <path fill="#FFF" fill-opacity=".2" d="M346.397 375.253l68.015-4.644-10.288 26.803z"/>
        </g>
    </g>
</svg>
