<svg width="122px" height="85px" viewBox="0 0 122 85" version="1.1" xmlns="http://www.w3.org/2000/svg" xmlns:xlink="http://www.w3.org/1999/xlink">
    <g id="Page-1" stroke="none" stroke-width="1" fill="none" fill-rule="evenodd">
        <g id="Group-3" fill="#FFFFFF">
            <path d="M62.593062,72.9812136 C62.4800985,71.6138606 61.7392341,70.2700572 60.2222958,69.4664245 C58.7273634,68.6745667 57.2133593,68.8408862 55.9590244,69.9315306 C54.3261885,71.3518704 52.7388315,72.8413874 51.2791085,74.436878 C50.0541148,75.7762658 50.0218395,77.4291586 50.7861769,79.0481988 C51.5270413,80.6142523 52.803382,81.4811747 54.5418461,81.4944214 C57.0153064,81.5135555 62.6091997,75.7909843 62.593062,72.9812136 M36.618795,54.1650227 C36.2373598,52.2339492 35.5229024,50.7076359 33.9414136,50.1527466 C32.8059105,49.7568177 31.0028958,49.6140478 30.1930797,50.2498891 C27.5758477,52.3016546 25.1581356,54.6536784 22.9017999,57.1087321 C21.3467182,58.8013651 21.8161768,61.355033 23.5854491,62.9549391 C25.1992132,64.4135472 27.3675254,64.3458419 29.1221271,62.7179705 C31.0557099,60.9223078 33.0230351,59.1487228 34.8260497,57.2235368 C35.61386,56.3845796 36.0334387,55.195321 36.618795,54.1650227 M57.4554239,63.9145884 C57.1869522,61.8775415 56.3111184,60.524907 54.7736413,59.6844779 C53.3095171,58.8852608 51.7162918,58.9956499 50.5059688,60.1407529 C46.9322148,63.5260188 43.3819337,66.9451373 39.9710232,70.4937791 C38.3631273,72.1643342 38.7680354,74.9711612 40.5123677,76.5121931 C42.2170894,78.0193724 44.3927369,77.8883773 46.1693444,76.1618917 C49.3235198,73.098962 52.5143716,70.0728287 55.5922598,66.9348344 C56.3991419,66.1105957 56.8451276,64.9301682 57.4554239,63.9145884 M47.9180779,58.0566066 C47.5498463,56.1152302 46.7326948,54.8391321 45.2333613,54.0016468 C43.7956441,53.2024297 42.2478976,53.280438 41.1138616,54.3357578 C37.4667547,57.7298548 33.8783301,61.193129 30.4204737,64.780039 C28.7949731,66.4653127 29.1925459,69.2544774 30.9339441,70.8013967 C32.6078576,72.2850263 34.8451215,72.1922995 36.6041244,70.4981947 C39.7700362,67.4440961 42.9564868,64.4120753 46.0211716,61.2593625 C46.861796,60.3939119 47.2975123,59.1354761 47.9180779,58.0566066 M2.66226376,39.0211093 C6.68787171,41.5247342 10.5697079,43.9429915 14.4559454,46.3538896 C16.8296457,47.8242724 17.6467971,47.6299876 19.1505319,45.1999554 C22.021565,40.5621412 24.8720592,35.9110802 27.73429,31.2688504 C30.4820901,26.8106024 33.2284233,22.3538262 35.9835587,17.9014656 C36.819782,16.5517748 36.8432549,15.2359367 35.4554177,14.3425209 C31.3153792,11.6828794 27.1107902,9.12038027 22.7624294,6.41511127 C16.057973,17.2906459 9.43273777,28.0381292 2.66226376,39.0211093 M97.0117166,2.63391645 C92.5812005,5.67329648 88.2519115,8.58462515 83.9959754,11.5989837 C82.6345453,12.5645204 82.5978689,13.7670257 83.6497497,15.3213043 C90.0343874,24.7691398 96.4292944,34.2096161 102.835938,43.6427331 C104.068267,45.4590019 105.284458,45.6753645 107.149089,44.4228161 C109.585873,42.7846418 111.994783,41.1037837 114.418363,39.4464753 C116.045331,38.335225 117.678167,37.2328058 119.343278,36.1038932 C111.849544,24.8736415 104.509852,13.8715274 97.0117166,2.63391645 M102.435431,47.1266133 C100.314065,43.9900909 98.2484467,40.9448234 96.191631,37.8951404 C91.1346811,30.3930968 86.0894676,22.8836939 81.0119789,15.3963689 C80.7875189,15.0652016 80.3063238,14.7605276 79.9160863,14.716372 C73.01211,13.936289 66.1081337,13.8303154 59.7513701,17.0919455 C53.3344571,20.3859564 47.1009265,24.0435155 40.8131146,27.5862698 C37.6075923,29.3922356 36.4808915,32.6568094 38.254565,35.4489178 C39.9563526,38.1291653 42.8655292,39.3714107 46.4715585,37.240165 C52.7344303,33.5384504 59.0134398,29.8647009 65.2411022,26.1041121 C66.4264853,25.3887907 67.2759121,25.4049811 68.3952776,26.2218605 C71.6594823,28.6047933 75.0058422,30.8758651 78.3243281,33.1837334 C82.8369994,36.3246714 87.3526048,39.4626657 91.8696773,42.5962444 C94.6644233,44.536149 97.4665047,46.4672224 100.293526,48.4218455 C101.090139,47.940549 101.83247,47.4931051 102.435431,47.1266133 M61.7069588,79.4559026 C62.7236302,80.1933018 63.7314992,80.8732987 64.682153,81.6283602 C66.0435831,82.7101734 67.4871685,83.2150196 69.0393161,82.1611716 C70.6501462,81.0675835 71.5083753,79.5648199 71.2648436,77.4983358 C71.0169107,75.3979991 69.5718583,74.2190434 68.0901294,73.038616 C67.3580673,72.4557615 66.5878617,71.7301371 67.4739649,70.9117859 C67.7967178,70.6129993 68.9953044,70.9044266 69.5483854,71.2871088 C71.577327,72.6853708 73.465431,74.2882206 75.4753009,75.7144479 C77.6318766,77.2466486 79.983571,76.7830144 81.4726352,74.6532406 C83.304991,72.034811 82.72697,68.8924012 80.033451,66.8921506 C77.6729542,65.1421153 75.2669786,63.4509542 72.9754335,61.6126076 C72.5573219,61.2784966 72.5998666,60.363003 72.4296879,59.713915 C73.06199,59.744824 73.6957592,59.7433521 74.320726,59.8243041 C74.5202459,59.8493256 74.6860235,60.1054284 74.873807,60.2452546 C78.0441199,62.581088 81.1953611,64.9434149 84.3935482,67.2380364 C86.729105,68.9130071 89.4064864,68.2536162 90.8236647,65.742632 C92.240843,63.2316478 91.5953374,60.3365096 89.1365477,58.5673402 C85.9882406,56.3036276 82.7680476,54.1385293 79.656417,51.8262455 C79.2251019,51.5039093 79.2397724,50.5781127 79.0475878,49.9334403 C79.6769558,49.9481588 80.3165932,49.8981158 80.9298236,50.0026175 C81.2437741,50.0556042 81.5122457,50.3794123 81.8012562,50.5810564 C84.7823187,52.6769775 87.7457764,54.7979202 90.7473777,56.8614605 C93.2927238,58.6085521 96.1960322,57.7092489 97.4092894,54.8582662 C98.5110502,52.2722175 97.8391375,49.8392416 95.3407372,48.0612411 C87.6548188,42.5918289 79.9395593,37.1621567 72.2169644,31.7442594 C70.3963451,30.4681614 68.5302469,28.3884306 66.6377417,28.3354439 C64.7408354,28.2809852 62.7735102,30.2768203 60.856065,31.4057329 C56.2612384,34.1124737 51.6561425,36.8015523 47.0965253,39.5656955 C44.6450709,41.0537407 42.0703836,41.0140006 39.6790786,39.8762569 C37.1337324,38.6663923 35.4158072,36.4571383 35.2280237,33.52226 C35.0108991,30.1517126 36.316581,27.4479155 39.3651281,25.7287891 C42.9447503,23.7094044 46.509702,21.6576389 50.0790548,19.6176483 C51.7808424,18.6447523 53.4796959,17.664497 55.570254,16.4649354 C54.8968742,16.3398278 54.6929531,16.2677069 54.4904991,16.2691787 C49.6213326,16.3000877 44.7506991,16.3192218 39.8829997,16.4119486 C39.5030316,16.4193079 39.0042317,16.8623362 38.7827059,17.2347154 C38.1562721,18.2870916 37.7088193,19.4498568 37.0750501,20.4978174 C33.6098584,26.2336353 30.1358644,31.9650377 26.6090562,37.6625873 C24.2074818,41.5409246 21.7120157,45.3589158 19.1622684,49.3535295 C20.6351949,50.3897153 22.2841684,51.5510086 23.9331419,52.712302 C25.3605896,51.3964639 26.6516009,50.199846 27.9499475,49.0120592 C31.2654993,45.9756229 36.4471491,47.2119809 38.0902544,51.436204 C38.2971097,51.9690154 38.4423484,52.5224328 38.6653413,53.2200919 C40.8424558,51.4509225 43.1281326,50.6664239 45.7615022,51.6981941 C48.3802013,52.7240769 49.4848962,54.90095 49.9807619,57.4869988 C55.9384856,55.4926356 60.9000767,59.8390227 58.969428,66.5462647 C65.4215504,68.0298943 66.947291,75.0874377 61.7069588,79.4559026 M100.124814,51.6010517 C100.274454,56.4773064 98.6196125,58.7336598 93.4306273,60.2952976 C94.1040071,63.0079259 93.9308942,65.6381303 92.1190772,67.9356956 C90.2793861,70.2700572 87.7941893,70.7734315 84.8028575,70.2538668 C84.8703422,73.2696971 84.2057648,75.9690787 81.6413469,77.7146985 C79.0710607,79.46179 76.4450264,79.2042154 74.0522543,77.6411057 C73.4580957,79.1968562 73.1177382,80.8350305 72.2741797,82.1479249 C70.2569745,85.2859192 66.7785793,85.8525833 63.7036251,83.758134 C62.4463562,82.9029864 61.2184284,82.0080987 60.0037041,81.1500074 C53.7173594,85.3197719 50.3460594,84.4337153 47.9063415,78.0414502 C42.6073269,81.9271467 37.5547782,79.0599737 36.595322,73.5728992 C34.2318911,74.3603415 31.8713943,74.4780899 29.7896386,72.8619934 C27.7122841,71.2503124 27.0447726,68.9880717 27.1489337,66.462369 C19.7138823,64.8919 17.5587736,59.9037843 22.0963849,54.293074 C19.7124152,52.6181033 17.4003314,50.8548213 14.9532781,49.3020146 C10.343781,46.3789111 5.66386502,43.5647248 0.994218479,40.7343482 C-0.0884705403,40.0793728 -0.283589293,39.3640514 0.392724579,38.2704633 C7.28936561,27.1167481 14.1728031,15.9542018 21.0342347,4.77988065 C21.7002792,3.69512371 22.4235389,3.48023292 23.4959586,4.14992683 C27.9264746,6.9214293 32.5975882,9.376483 36.7112196,12.5586329 C38.6638742,14.0687559 40.3509913,13.9907476 42.3916693,14.0187128 C47.7787074,14.0908337 53.1642784,14.2924778 58.5513164,14.4381914 C59.0721221,14.4514381 59.6574784,14.5736021 60.1093323,14.3910921 C66.2152289,11.9124887 72.5543878,11.6490267 78.9918396,12.3393266 C80.1552168,12.4644342 80.9459612,12.3437421 81.4476952,11.0705878 C81.720568,10.3744005 82.4731689,9.79448974 83.128944,9.33968663 C87.3790118,6.39744901 91.6804268,3.53174784 95.9202252,0.574791669 C97.1437518,-0.278884078 97.9080892,-0.237672146 98.7795218,1.07816599 C106.3158,12.4556031 113.891689,23.805075 121.482249,35.1442439 C122.206976,36.2290008 122.261257,36.9678719 121.059736,37.756786 C114.14549,42.2886268 107.26352,46.8719824 100.124814,51.6010517" id="handshake_icon"></path>
        </g>
    </g>
</svg>