<svg width="71px" height="70px" viewBox="0 0 71 70" version="1.1" xmlns="http://www.w3.org/2000/svg" xmlns:xlink="http://www.w3.org/1999/xlink">
    <g id="Page-1" stroke="none" stroke-width="1" fill="none" fill-rule="evenodd">
        <g id="r2" transform="translate(-524.000000, -1068.000000)" fill="#2E4E91">
            <g id="OurBenefits" transform="translate(0.000000, 835.000000)">
                <g id="Usfl" transform="translate(250.000000, 73.000000)">
                    <g id="FB-rank" transform="translate(258.000000, 160.000000)">
                        <path d="M51.5,70 C31.8938914,70 16,54.3299662 16,35 C16,15.6700338 31.8938914,0 51.5,0 C71.1061086,0 87,15.6700338 87,35 C87,54.3299662 71.1061086,70 51.5,70 Z M36.4885714,41.21 L36.4885714,46.25 L40.7485714,46.25 L40.7485714,41.21 L44.4050714,41.21 L44.4050714,37.43 L40.7485714,37.43 L40.7485714,21.47 L35.9205714,21.47 L25.8030714,37.045 L25.8030714,41.21 L36.4885714,41.21 Z M36.4885714,27.42 L36.4885714,37.43 L30.1340714,37.43 L36.4175714,27.42 L36.4885714,27.42 Z M48.0260714,43.8 C48.0260714,44.1733352 48.1029873,44.5233317 48.2568214,44.85 C48.4106555,45.1766683 48.6177368,45.4566655 48.8780714,45.69 C49.1384061,45.9233345 49.440153,46.1099993 49.7833214,46.25 C50.1264898,46.3900007 50.4874029,46.46 50.8660714,46.46 C51.6470753,46.46 52.315652,46.1916694 52.8718214,45.655 C53.4279909,45.1183307 53.7060714,44.4766704 53.7060714,43.73 C53.7060714,42.9833296 53.4220743,42.3533359 52.8540714,41.84 C52.2860686,41.3266641 51.6234085,41.07 50.8660714,41.07 C50.0850675,41.07 49.4164909,41.3383307 48.8603214,41.875 C48.304152,42.4116694 48.0260714,43.0533296 48.0260714,43.8 Z M57.6110714,21.47 L57.6110714,25.46 L69.8940714,25.46 L59.6345714,46.25 L64.6400714,46.25 L74.6865714,25.32 L74.6865714,21.47 L57.6110714,21.47 Z" id="Combined-Shape"></path>
                    </g>
                </g>
            </g>
        </g>
    </g>
</svg>