<?xml version="1.0" encoding="UTF-8"?>
<svg width="758px" height="697px" viewBox="0 0 758 697" version="1.1" xmlns="http://www.w3.org/2000/svg" xmlns:xlink="http://www.w3.org/1999/xlink">
    <!-- Generator: Sketch 52.1 (67048) - http://www.bohemiancoding.com/sketch -->
    <title>Group 11</title>
    <desc>Created with Sketch.</desc>
    <g id="Careers" stroke="none" stroke-width="1" fill="none" fill-rule="evenodd">
        <g transform="translate(-914.000000, -253.000000)" id="Group-11">
            <g transform="translate(900.000000, 197.000000)">
                <g id="Scene/Wireframe">
                    <path d="M748.509888,203.489686 C748.045161,203.151735 746.94261,203.031902 746.429682,202.930664 C744.297638,202.510366 742.101326,202.32737 739.927751,202.32737 C733.225438,202.337405 726.414295,202.995303 719.823237,204.134006 C715.638574,204.856838 710.57963,207.289494 706.416793,205.968386 C699.164568,203.666483 691.835041,203.779527 684.954477,207.065768 C678.66384,210.070728 673.88834,215.77782 671.101494,221.944466 C670.681027,222.875381 668.97521,226.301526 668.492294,228.611103 C668.28585,229.083349 668.087591,229.558842 667.908733,230.041418 C667.401262,231.411522 666.946236,232.805828 666.523344,234.20279 C666.342667,234.798706 665.888248,236.114501 666.427852,236.368923 C665.565698,237.960097 664.80146,239.599971 664.164848,241.292973 C662.313519,246.216727 660.289396,251.617745 659.638839,256.836357 C659.397836,258.768729 659.388741,260.712316 659.612465,262.648524 C659.723114,263.605413 659.677339,265.529815 660.326077,266.257369 C661.702978,267.801318 662.40992,265.639907 662.254708,264.610411 C661.069397,256.764045 663.358169,249.395828 666.070743,242.020232 C667.824761,237.250843 670.706795,232.887585 673.935328,228.936068 C676.548166,225.737487 679.351078,223.218645 682.932779,221.097966 C687.31267,218.504745 691.995407,216.408268 696.635096,214.305298 C699.68659,212.921618 702.741722,211.575126 705.878401,210.383 C706.575946,210.117657 707.673344,209.437623 708.446676,209.434967 C710.082163,209.429064 712.399734,210.635947 713.979441,211.084876 C719.175409,212.56212 724.437766,214.453465 729.80774,215.207878 C733.252115,215.692225 736.479132,215.147077 739.700389,213.999519 C740.029609,213.882638 740.581339,213.581286 741.257361,213.150952 C743.6489,212.230958 745.911298,211.07307 747.881158,209.402795 C749.016146,208.440299 750.045942,207.196521 750.985097,206.058113 C751.266115,205.717801 751.390406,205.327608 751.39465,204.956895 C751.607461,204.845622 751.748728,204.715754 751.780559,204.564045 C752.014892,203.443642 749.877998,203.422981 748.509888,203.489686" id="Twisted-Leaf" fill="#89C5CC"></path>
                    <path d="M94.1388225,279.047896 C92.0665823,278.96678 90.0022808,278.926631 87.9368365,278.950988 C86.3624567,278.969959 83.9389165,278.555547 82.6423062,279.465566 C81.2951457,280.410696 81.4721,282.460425 81.7462777,283.913745 C83.1958083,291.599255 86.2609494,298.483882 92.3244901,304.126031 C101.660654,312.813912 112.151795,317.453196 124.441789,319.817309 C133.074849,321.478001 140.922665,319.948529 147.001292,314.224612 C151.94993,322.787466 155.820352,332.200414 157.949742,341.631159 C159.000285,346.284636 159.44656,350.858825 159.481434,355.556711 C159.503256,358.565777 159.453068,361.564893 159.24242,364.550594 C159.15121,365.848027 158.550747,367.793858 159.121163,369.045506 C159.790432,370.515361 161.858955,370.736132 162.735989,369.53936 C163.465911,368.543321 163.244096,366.522506 163.35407,365.314254 C163.536138,363.307109 163.698825,361.297778 163.792074,359.277884 C163.943934,356.008497 164.02184,352.726942 163.875522,349.433401 C163.545707,342.033519 161.569138,334.540288 158.990263,327.427192 C154.042981,313.780922 146.409358,301.526293 134.904508,291.695386 C127.830496,285.650272 119.9044,283.004054 110.967485,281.400299 C105.403449,280.401826 99.743831,279.2673 94.1388225,279.047896" id="Fill-16" fill="#DDE3E9" transform="translate(122.753776, 324.591679) rotate(-39.000000) translate(-122.753776, -324.591679) "></path>
                    <path d="M146.087258,317.327579 C143.887383,304.139922 141.591707,291.023636 137.822204,278.030421 C135.600416,270.373668 132.843066,262.855708 130.308286,255.27302 C130.54603,256.221111 130.760907,257.174371 130.952405,258.129224 C130.085127,255.863408 128.373156,253.662282 127.349303,251.398283 C126.207308,248.873313 125.266122,246.260016 124.367645,243.663651 C122.613564,238.59634 120.947091,233.523853 118.999995,228.5064 C116.830255,222.916311 114.368228,217.406416 112.057666,211.859296 C110.096669,207.151454 108.239501,202.21641 105.749839,197.69991 C104.39303,195.238188 103.159631,192.602655 101.824096,190.095156 C101.377052,189.256051 97.4575688,179.923334 97.4843991,179.924364 C98.0728021,179.946938 100.439949,184.119428 100.82907,184.734017 C101.966241,186.528966 102.945597,188.388994 103.934782,190.252957 C104.245721,188.096718 104.789487,185.994937 105.699058,184.036654 C105.979707,183.432111 107.941153,178.969716 108.637995,178.99645 C108.986043,179.009802 106.106403,187.468142 105.729403,188.205922 C105.423247,188.805219 104.835094,189.557305 104.645249,190.200187 C104.338449,191.238357 104.507378,190.982353 104.831896,191.941953 C105.426643,193.700799 106.658689,195.448171 107.457542,197.145847 C107.894957,198.052516 109.008108,201.179596 110.027524,202.60013 C112.699039,207.4462 114.692224,213.306583 116.785093,218.502129 C117.093285,216.000784 117.701636,213.60094 118.58319,211.269906 C118.792165,210.71632 120.426065,205.568074 120.95559,205.588389 C121.551446,205.611248 119.597633,213.882102 119.315918,214.592238 C118.792794,215.911268 117.938562,217.17456 117.513261,218.521173 C117.046605,219.999221 118.022544,221.383231 118.670687,222.938191 C121.055031,228.658864 123.174771,234.425581 125.133925,240.262606 C135.028057,236.33822 136.531496,223.728691 136.821103,214.398469 C137.02949,207.673975 135.692895,200.766791 133.763154,194.161934 C131.187853,185.347071 127.10065,176.775457 122.796582,168.508869 C117.781473,158.876614 111.063515,150.187712 103.072502,142.490661 C98.8931185,138.464893 94.1746446,134.93381 89.3925368,131.611199 C87.0565548,129.987928 84.6685836,128.62337 81.9784911,127.666912 C80.765726,127.236261 79.5254502,126.910544 78.2743164,126.649498 C77.3236816,126.451197 75.3635266,125.520965 74.5891695,125.709283 C68.2639619,127.193756 63.5712204,129.886473 60.0553435,135.091982 C56.7268787,140.019433 54.7750331,145.988106 53.7908994,151.879023 C52.695339,158.43895 52.6300381,165.09282 54.0540883,171.791735 C55.1405098,176.902788 56.8662005,181.938778 58.5922126,186.926054 C64.7308636,204.664466 75.0226344,223.824129 92.544019,234.097655 C98.2155276,237.423445 104.444453,239.47918 110.803433,240.686295 C112.301801,240.970697 113.798246,241.243999 115.308842,241.384824 C116.327247,241.48009 119.642098,240.948205 120.394132,241.404928 C121.425173,242.030984 122.134978,245.385514 122.621721,246.610622 C126.320097,255.922052 129.66966,265.323955 132.745978,274.798247 C136.018705,284.878312 138.70273,295.032534 141.008826,305.284293 C141.989526,309.644738 142.949078,313.997257 143.79245,318.375907 C143.989059,319.394622 143.951907,322.573603 144.9976,323.506809 C145.658872,324.096983 146.553062,323.899747 146.905994,323.221863 C147.519833,322.043246 146.312498,318.67781 146.087258,317.327579" id="Leaf" fill="#C1DEE2" transform="translate(100.027183, 224.770529) rotate(-37.000000) translate(-100.027183, -224.770529) "></path>
                    <path d="M739.996483,243.861811 C737.024864,243.212632 733.743739,243.262317 730.716786,243.31587 C714.483243,243.536626 698.54218,251.222352 688.167355,263.502912 C679.335194,273.957617 676.906578,286.955785 675.161732,300.095273 C674.988737,301.39988 674.914553,302.696156 674.816958,304.003441 C674.79598,304.283998 674.764664,304.534209 674.731221,304.769841 C674.045018,305.383319 673.685043,306.098547 674.091231,306.884286 C672.579579,310.192364 671.300815,313.584342 670.20356,317.08283 C666.974121,327.380447 663.689043,337.87383 665.712687,348.702215 C666.185459,342.743271 667.179951,336.64985 668.369328,330.788788 C668.437736,330.452298 668.511616,330.118485 668.588536,329.785863 C668.596441,329.750756 668.603738,329.715649 668.611643,329.68084 C669.032729,327.885927 669.579988,326.144864 670.245517,324.431173 C670.252509,324.41243 670.259198,324.393984 670.266495,324.375538 C670.35436,324.150021 670.447699,323.925694 670.539821,323.701367 C670.730449,323.236945 670.926247,322.773415 671.133901,322.312266 C671.204133,322.155177 671.271628,321.996601 671.336387,321.836835 C672.305341,319.462064 672.714569,316.786207 673.582584,314.329024 C673.790238,313.770289 674.007318,313.213637 674.234735,312.65996 C674.248112,312.627531 674.261794,312.595102 674.275475,312.562673 C674.89023,311.072714 675.56944,309.600903 676.287566,308.144563 C676.677945,307.851213 676.886511,307.123489 677.223076,306.462111 C677.2927,306.331799 677.836919,305.462756 677.998968,304.962037 C678.421878,304.143868 678.843268,303.325402 679.269219,302.508721 C679.256449,302.513482 679.24368,302.518242 679.23091,302.523002 C679.657165,301.73875 680.084635,300.957771 680.508762,300.180065 C680.6021,300.009291 680.69635,299.838219 680.790296,299.66685 C680.942617,299.394028 681.094937,299.121504 681.246954,298.849574 C682.668917,296.304922 684.176617,293.811144 685.742387,291.348308 C686.3012,290.469447 687.636209,289.20917 687.892205,288.22231 C687.90163,288.185418 687.903758,288.151501 687.909535,288.116097 C691.307105,283.344241 695.21849,278.942792 699.909113,275.455312 C699.342091,276.068194 698.136904,278.148127 697.818277,278.559889 C696.843243,279.820761 695.7846,280.994461 694.722004,282.182442 C692.819061,284.310572 690.961115,286.506239 689.310215,288.828052 C686.291167,293.074198 683.686515,297.542885 681.224455,302.101422 C681.201045,302.128199 681.175506,302.153487 681.153312,302.180859 C679.915897,303.706222 679.136964,306.011672 678.246147,307.756603 C681.771411,306.123836 685.669419,305.060217 689.287413,303.610422 C692.895374,302.165091 696.405131,300.55553 699.79358,298.665412 C704.297222,296.153486 708.968995,293.317268 713.224242,290.107668 C718.100629,287.082824 722.198387,282.919388 725.815468,278.550369 C730.095038,273.381032 734.017065,268.166472 736.442641,261.889781 C737.634146,258.805435 738.57148,255.589289 739.127253,252.335656 C739.151575,252.193741 739.182587,252.039926 739.216335,251.88016 C739.784876,250.756442 740.29322,249.607436 740.719778,248.431951 C741.397164,246.567717 742.996986,244.516941 739.996483,243.861811" id="Fill-10" fill="#69A1AC"></path>
                    <path d="M97.5709478,269.665077 C97.2094168,268.341431 96.992335,266.972863 97.092715,265.588061 C97.118218,265.238024 97.4118089,262.695477 97.6960147,262.695477 C98.3578693,262.695477 97.446289,269.257442 97.5709478,269.665077 M86.0524466,275.39226 C86.0925545,275.408341 86.8212816,276.808991 87.0603328,277.215669 C87.568167,278.080763 88.1097237,278.924883 88.6660466,279.74826 C87.6222428,278.391657 86.6857926,277.082829 86.0524466,275.39226 M125.147749,233.720475 C125.767726,233.197519 125.428542,231.891034 124.693177,232.61236 C124.099488,233.19684 124.081808,233.138935 123.33551,233.101614 C122.729491,233.071304 122.084855,232.883112 121.475812,232.808243 C120.183981,232.649456 118.899361,232.582277 117.59962,232.67298 C114.813564,232.867053 112.102649,233.5307 109.522709,234.562814 C105.020492,236.364206 100.475702,238.698507 96.8940282,241.949112 C91.199083,247.117598 86.6256791,254.192429 83.927094,261.246904 C82.2555997,265.615801 81.3557611,270.000758 82.8751111,274.544728 C83.6342045,276.815695 84.8357728,278.976733 86.5796171,280.682899 C87.0355849,281.128723 87.6364854,281.474118 88.063141,281.942109 C88.7191763,282.661626 88.5688931,282.431136 88.1424701,283.457822 C87.6767315,284.578829 87.2151804,285.701193 86.7566536,286.825141 C85.5564811,289.768124 84.3749196,292.744358 83.5034627,295.798176 C83.2163891,296.803146 82.9956169,297.823498 82.8355629,298.854933 C82.7141265,299.634843 82.0092375,302.602029 82.6227003,303.399356 C83.6432773,304.726424 84.0780752,302.688661 84.110877,301.991537 C84.1394913,301.380819 84.1927651,300.768744 84.2690699,300.161644 C84.4612278,298.633039 84.8087869,297.132482 85.2603347,295.658163 C85.7481737,294.064867 86.3460499,292.501428 86.9402039,290.943192 C87.494577,289.490135 88.0747728,288.046578 88.6663678,286.607771 C88.9948508,285.808408 89.3272885,285.010629 89.6597263,284.21285 C89.773253,283.940289 89.8316448,283.370964 90.1322113,283.60462 C90.7891772,281.901169 91.8588406,280.283444 92.7456515,278.684267 C93.8320646,276.725671 94.9405782,274.771146 96.1891391,272.905063 C97.0896756,271.559221 98.0381352,270.241652 99.0759273,268.991263 C99.6824111,268.260663 100.330769,267.573945 101.019607,266.915726 C101.398106,266.554271 102.690403,265.003726 103.211742,265.003726 C102.987713,265.003726 101.974347,266.972953 101.816387,267.205478 C101.185244,268.136032 100.500129,269.022478 99.8008231,269.905531 C98.5031759,271.544292 97.2990486,273.242541 96.2098438,275.019053 C96.5241359,275.206113 97.8310886,274.344322 98.220755,274.178071 C99.0947709,273.805533 99.9932136,273.487054 100.913757,273.24141 C102.535234,272.808479 104.517066,272.31538 106.117839,272.31538 C105.646052,272.31538 104.551031,273.085338 104.059935,273.294565 C103.272925,273.629555 102.465909,273.935141 101.647725,274.190285 C100.892354,274.425751 100.123258,274.605347 99.3490427,274.770694 C98.5743627,274.935814 97.174588,274.942147 96.4696989,275.354721 C96.4271264,275.379602 96.4713274,275.779057 96.3045269,275.886046 C96.1365633,275.99394 95.6554707,275.958654 95.6163877,275.988285 C95.0392162,276.421669 94.6355916,277.677486 94.2882651,278.295217 C93.3870307,279.896882 92.50906,281.510988 91.6224817,283.120343 C91.3477378,283.61887 90.9822657,283.959968 91.2239751,284.364173 C91.4819692,284.795068 92.7007526,285.062427 93.1769598,285.219404 C94.945231,285.802753 96.7369984,285.995921 98.5806439,285.689658 C102.033902,285.116487 105.031193,283.621811 107.7335,281.506011 C118.08397,273.402006 126.573347,263.204369 129.164919,250.256463 C130.237606,244.89594 131.393345,236.53566 125.147749,233.720475" id="Leave-the-Leaf!" fill="#89C5CC" transform="translate(106.055894, 268.119347) scale(-1, 1) rotate(-302.000000) translate(-106.055894, -268.119347) "></path>
                    <g id="Background-Shape-2" opacity="0.6" stroke-width="1" transform="translate(42.931926, 363.519973)" fill="#DDE3E9">
                        <path d="M728.424011,148.405891 C739.046671,214.737014 481.429089,258.002536 259.691665,227.808571 C37.95424,197.614607 -63.7683769,79.7037702 42.0410253,16.8762414 C147.850428,-45.9512875 717.801352,82.0747679 728.424011,148.405891 Z" id="Background-Shape"></path>
                    </g>
                    <g id="Mobile3" stroke-width="1" transform="translate(170.167647, 98.948895)">
                        <rect id="Container" fill="#F2F2F2" x="0" y="0" width="138.5208" height="263.1024" rx="6.9696"></rect>
                        <circle id="Touch" fill="#FFFFFF" cx="68.8248" cy="233.4816" r="13.068"></circle>
                        <g id="Camera" transform="translate(55.756800, 13.939200)" fill="#FFFFFF">
                            <circle id="Lens" cx="1.7424" cy="1.7424" r="1.7424"></circle>
                            <rect id="Sensor" x="7.8408" y="0" width="18.2952" height="3.4848" rx="1.7424"></rect>
                        </g>
                        <g id="Rows" transform="translate(12.196800, 24.393600)">
                            <g id="Row">
                                <rect id="Background" fill="#FFFFFF" x="0" y="0" width="114.1272" height="47.0448" rx="3.4848"></rect>
                                <g id="Text" transform="translate(33.976800, 14.113440)" fill="#DDE3E9">
                                    <rect id="Name" x="0" y="0" width="63.5976" height="7.05672" rx="2.6136"></rect>
                                    <rect id="Name" x="0" y="11.7612" width="42.6888" height="7.05672" rx="2.6136"></rect>
                                </g>
                                <circle id="Avatar" fill="#C5CFD6" cx="18.2952" cy="23.5224" r="10.4544"></circle>
                            </g>
                            <g id="Row" transform="translate(0.000000, 54.014400)">
                                <rect id="Background" fill="#FFFFFF" x="0" y="0" width="114.1272" height="36.5904" rx="3.4848"></rect>
                                <g id="Text" transform="translate(33.976800, 10.977120)" fill="#DDE3E9">
                                    <rect id="Name" x="0" y="0" width="63.5976" height="5.48856" rx="2.6136"></rect>
                                    <rect id="Name" x="0" y="9.1476" width="42.6888" height="5.48856" rx="2.6136"></rect>
                                </g>
                                <circle id="Avatar" fill="#C5CFD6" cx="18.2952" cy="18.2952" r="10.4544"></circle>
                            </g>
                            <g id="Row" transform="translate(0.000000, 97.574400)">
                                <rect id="Background" fill="#FFFFFF" x="0" y="0" width="114.1272" height="36.5904" rx="3.4848"></rect>
                                <g id="Text" transform="translate(33.976800, 10.977120)" fill="#DDE3E9">
                                    <rect id="Name" x="0" y="0" width="63.5976" height="5.48856" rx="2.6136"></rect>
                                    <rect id="Name" x="0" y="9.1476" width="42.6888" height="5.48856" rx="2.6136"></rect>
                                </g>
                                <circle id="Avatar" fill="#AFB9C5" cx="18.2952" cy="18.2952" r="10.4544"></circle>
                            </g>
                            <g id="Row" transform="translate(0.000000, 141.134400)">
                                <rect id="Background" fill="#FFFFFF" x="0" y="0" width="114.1272" height="36.5904" rx="3.4848"></rect>
                                <g id="Text" transform="translate(33.976800, 10.977120)" fill="#DDE3E9">
                                    <rect id="Name" x="0" y="0" width="63.5976" height="5.48856" rx="2.6136"></rect>
                                    <rect id="Name" x="0" y="9.1476" width="42.6888" height="5.48856" rx="2.6136"></rect>
                                </g>
                                <circle id="Avatar" fill="#C5CFD6" cx="18.2952" cy="18.2952" r="10.4544"></circle>
                            </g>
                        </g>
                    </g>
                    <g id="Mobile3" stroke-width="1" transform="translate(195.493228, 125.349786)">
                        <g id="Group" transform="translate(0.000000, 189.921600)" fill="#89C5CC">
                            <path d="M10.5762486,0 C9.42206035,0 8.27139095,0.0231758912 7.11865162,0.0831485921 C6.23996991,0.12909378 4.89721179,-0.053060593 4.15369596,0.494622309 C3.38120123,1.06344813 3.43439821,2.22793501 3.55507464,3.05027256 C4.19302447,7.39900491 5.75001948,11.2551479 9.00724806,14.3361184 C14.022461,19.080264 19.7718752,21.4907599 26.5752934,22.5641696 C31.3543284,23.3181993 35.7661592,22.2712182 39.2841979,18.8726974 C41.8546265,23.643475 43.8046996,28.9229023 44.7831516,34.2513243 C45.2658573,36.8805682 45.4132357,39.4780977 45.3283689,42.1553197 C45.273723,43.8701323 45.1791276,45.580879 44.9953185,47.2875598 C44.9156265,48.0291883 44.5374519,49.151796 44.8278619,49.8525617 C45.168571,50.6755092 46.3175844,50.7552017 46.8334089,50.0534195 C47.2627106,49.4693463 47.1838466,48.322343 47.2720253,47.6311322 C47.4181617,46.4829091 47.5535346,45.3338728 47.6504069,44.180364 C47.807721,42.3132817 47.9240505,40.4409136 47.9155639,38.5667159 C47.8958996,34.3558191 46.9596741,30.1284552 45.6790136,26.1312239 C43.2222237,18.4626468 39.2359687,11.6473084 33.0363466,6.29997975 C29.2243791,3.01184937 24.8616054,1.68025211 19.9118019,0.965458836 C16.8301027,0.520441065 13.6981043,0 10.5762486,0" id="Fill-16"></path>
                            <path d="M28.3760882,30.492 C15.9188884,30.492 7.52895008,40.5318504 3.56205931,50.9665898 C2.06669755,54.8998272 1.71621577,59.2188392 1.13989967,63.3488276 C0.954866508,64.6741727 1.02341242,66.6937933 0.4854494,67.8744976 C0.290215948,68.3026738 -0.15737255,68.456627 0.0566294256,69.0399453 C0.186173043,69.3932253 0.440364141,69.609592 0.822058799,69.6797329 C1.60564468,69.8239773 2.71359962,68.970597 3.38539038,68.6337624 C8.95760197,65.8392241 12.6186882,61.5182307 15.6053316,56.2315127 C17.4566833,52.9547065 19.3351678,49.5530734 20.4349625,45.9556799 C21.1067532,43.7581314 21.4978321,41.4436815 21.7275426,39.1639057 C21.8179171,38.2661424 21.9054355,37.3469803 21.9001314,36.4436691 C21.8948272,35.547491 21.4778396,35.073743 21.1781552,34.2936737 C25.3347713,32.7202599 30.0264943,32.2914893 34.2369679,33.9219669 C38.1312326,35.4299951 41.3661509,38.3442088 43.1775175,42.0054027 C43.6481587,42.9570595 44.0110848,43.9610247 44.2754762,44.9850019 C44.448473,45.655699 44.4568372,46.5259211 44.7775342,47.1322233 C45.5552039,48.6022091 47.1913296,47.6194447 47.0342452,46.2511037 C46.596245,42.4339752 44.412568,38.6017882 41.6215661,35.9479279 C38.1014478,32.6009808 33.3299585,30.492 28.3760882,30.492" id="Fill-18"></path>
                        </g>
                        <rect id="Container" fill="#DDE3E9" x="41.8176" y="0" width="138.5208" height="263.1024" rx="6.9696"></rect>
                        <circle id="Touch" fill="#FFFFFF" cx="110.6424" cy="233.4816" r="13.068"></circle>
                        <g id="Camera" transform="translate(97.574400, 13.939200)" fill="#FFFFFF">
                            <circle id="Lens" cx="1.7424" cy="1.7424" r="1.7424"></circle>
                            <rect id="Sensor" x="7.8408" y="0" width="18.2952" height="3.4848" rx="1.7424"></rect>
                        </g>
                        <g id="Rows" transform="translate(54.014400, 24.393600)">
                            <g id="Row">
                                <rect id="Container" fill="#FFFFFF" x="0" y="0" width="114.1272" height="47.0448" rx="3.4848"></rect>
                                <g id="Text-Stuff" transform="translate(7.840800, 14.113440)" fill="#DDE3E9">
                                    <rect id="Label" x="0" y="0" width="63.5976" height="7.05672" rx="2.6136"></rect>
                                    <rect id="Label" x="0" y="11.7612" width="42.6888" height="7.05672" rx="2.6136"></rect>
                                </g>
                                <g id="Check" transform="translate(95.832000, 17.424000)">
                                    <circle id="Background" fill="#DDE3E9" cx="6.0984" cy="6.0984" r="6.0984"></circle>
                                    <circle id="Indicator" fill="#F2F2F2" cx="6.0984" cy="6.0984" r="2.6136"></circle>
                                </g>
                            </g>
                            <g id="Row" transform="translate(0.000000, 54.014400)">
                                <rect id="Background" fill="#FFFFFF" x="0" y="0" width="114.1272" height="36.5904" rx="3.4848"></rect>
                                <g id="Text" transform="translate(33.976800, 10.977120)" fill="#DDE3E9">
                                    <rect id="Name" x="0" y="0" width="63.5976" height="5.48856" rx="2.6136"></rect>
                                    <rect id="Name" x="0" y="9.1476" width="42.6888" height="5.48856" rx="2.6136"></rect>
                                </g>
                                <circle id="Avatar" fill="#C5CFD6" cx="18.2952" cy="18.2952" r="10.4544"></circle>
                            </g>
                            <g id="Row" transform="translate(0.000000, 97.574400)">
                                <rect id="Container" fill="#FFFFFF" x="0" y="0" width="114.1272" height="36.5904" rx="3.4848"></rect>
                                <g id="Text-Stuff" transform="translate(7.840800, 10.977120)">
                                    <rect id="Label" fill="#DDE3E9" x="0" y="0" width="63.5976" height="5.48856" rx="2.6136"></rect>
                                    <rect id="Label" fill="#AFB9C5" x="0" y="9.1476" width="42.6888" height="5.48856" rx="2.6136"></rect>
                                </g>
                                <g id="Check" transform="translate(95.832000, 12.196800)">
                                    <circle id="Background" fill="#DDE3E9" cx="6.0984" cy="6.0984" r="6.0984"></circle>
                                    <circle id="Indicator" fill="#F2F2F2" cx="6.0984" cy="6.0984" r="2.6136"></circle>
                                </g>
                            </g>
                            <g id="Row" transform="translate(0.000000, 141.134400)">
                                <rect id="Background" fill="#FFFFFF" x="0" y="0" width="114.1272" height="36.5904" rx="3.4848"></rect>
                                <g id="Text" transform="translate(33.976800, 10.977120)" fill="#DDE3E9">
                                    <rect id="Name" x="0" y="0" width="63.5976" height="5.48856" rx="2.6136"></rect>
                                    <rect id="Name" x="0" y="9.1476" width="42.6888" height="5.48856" rx="2.6136"></rect>
                                </g>
                                <circle id="Avatar" fill="#C5CFD6" cx="18.2952" cy="18.2952" r="10.4544"></circle>
                            </g>
                        </g>
                    </g>
                    <g id="Web" stroke-width="1" transform="translate(335.682140, 153.908076)">
                        <rect id="Container" fill="#F2F2F2" x="0" y="0" width="291.852" height="301.4352" rx="6.9696"></rect>
                        <rect id="Background" fill="#FFFFFF" x="216.9288" y="37.4616" width="60.984" height="70.5672" rx="6.9696"></rect>
                        <g id="Profile-Info" transform="translate(225.640800, 50.529600)" fill="#DDE3E9">
                            <circle id="Avatar" cx="21.78" cy="13.9392" r="13.9392"></circle>
                            <rect id="Name" x="0" y="31.3632" width="43.56" height="5.2272" rx="2.6136"></rect>
                            <rect id="Name" x="6.9696" y="40.0752" width="29.6208" height="5.2272" rx="2.6136"></rect>
                        </g>
                        <path d="M6.9696,0 L284.8824,-1.77635684e-15 C288.731604,-2.4834441e-15 291.852,3.12039621 291.852,6.9696 L291.852,23.5224 L0,23.5224 L0,6.9696 C-4.7139151e-16,3.12039621 3.12039621,-1.06926957e-15 6.9696,-1.77635684e-15 Z" id="Header" fill="#C5CFD6"></path>
                        <g id="Buttons" transform="translate(7.840800, 8.712000)" fill="#F2F2F2">
                            <circle id="buttons" cx="3.4848" cy="3.4848" r="3.4848"></circle>
                            <circle id="buttons" cx="13.9392" cy="3.4848" r="3.4848"></circle>
                            <circle id="buttons" cx="24.3936" cy="3.4848" r="3.4848"></circle>
                        </g>
                        <g id="Components" transform="translate(216.928800, 114.998400)">
                            <rect id="Background" fill="#FFFFFF" x="0" y="0" width="60.984" height="169.0128" rx="6.9696"></rect>
                            <g id="Rows" transform="translate(15.681600, 15.681600)">
                                <rect id="Data" fill="#DDE3E9" x="0" y="0" width="29.6208" height="22.6512" rx="3.4848"></rect>
                                <rect id="Data" fill="#AFB9C5" x="0" y="29.6208" width="29.6208" height="21.78" rx="3.4848"></rect>
                                <rect id="Data" fill="#DDE3E9" x="0" y="58.3704" width="29.6208" height="21.78" rx="3.4848"></rect>
                                <rect id="Data" fill="#DDE3E9" x="0" y="115.8696" width="29.6208" height="21.78" rx="3.4848"></rect>
                                <rect id="Data" fill="#C5CFD6" x="0" y="87.12" width="29.6208" height="21.78" rx="3.4848"></rect>
                            </g>
                        </g>
                        <g id="Rows" transform="translate(13.939200, 38.332800)">
                            <g id="Row">
                                <rect id="Container" fill="#FFFFFF" x="0" y="0" width="196.02" height="40.9464" rx="3.4848"></rect>
                                <g id="Text-Stuff" transform="translate(7.840800, 12.283920)" fill="#DDE3E9">
                                    <rect id="Label" x="0" y="0" width="145.4904" height="6.14196" rx="2.6136"></rect>
                                    <rect id="Label" x="0" y="10.2366" width="97.6579397" height="6.14196" rx="2.6136"></rect>
                                </g>
                                <g id="Check" transform="translate(168.972898, 14.374800)">
                                    <circle id="Background" fill="#DDE3E9" cx="6.0984" cy="6.0984" r="6.0984"></circle>
                                    <circle id="Indicator" fill="#F2F2F2" cx="6.0984" cy="6.0984" r="2.6136"></circle>
                                </g>
                            </g>
                            <g id="Row" transform="translate(0.000000, 47.916000)">
                                <rect id="Container" fill="#FFFFFF" x="0" y="0" width="196.02" height="33.9768" rx="3.4848"></rect>
                                <g id="Text-Stuff" transform="translate(7.840800, 10.193040)" fill="#DDE3E9">
                                    <rect id="Label" x="0" y="0" width="145.4904" height="5.09652" rx="2.54826"></rect>
                                    <rect id="Label" x="0" y="8.4942" width="97.6579397" height="5.09652" rx="2.54826"></rect>
                                </g>
                                <g id="Check" transform="translate(168.972898, 10.890000)">
                                    <circle id="Background" fill="#DDE3E9" cx="6.0984" cy="6.0984" r="6.0984"></circle>
                                    <circle id="Indicator" fill="#F2F2F2" cx="6.0984" cy="6.0984" r="2.6136"></circle>
                                </g>
                            </g>
                            <g id="Row" transform="translate(0.000000, 88.862400)">
                                <rect id="Container" fill="#FFFFFF" x="0" y="0" width="196.02" height="33.9768" rx="3.4848"></rect>
                                <g id="Text-Stuff" transform="translate(7.840800, 10.193040)" fill="#DDE3E9">
                                    <rect id="Label" x="0" y="0" width="145.4904" height="5.09652" rx="2.54826"></rect>
                                    <rect id="Label" x="0" y="8.4942" width="97.6579397" height="5.09652" rx="2.54826"></rect>
                                </g>
                                <g id="Check" transform="translate(168.972898, 10.890000)">
                                    <circle id="Background" fill="#DDE3E9" cx="6.0984" cy="6.0984" r="6.0984"></circle>
                                    <circle id="Indicator" fill="#AFB9C5" cx="6.0984" cy="6.0984" r="2.6136"></circle>
                                </g>
                            </g>
                            <g id="Row" transform="translate(0.000000, 211.701600)">
                                <rect id="Container" fill="#FFFFFF" x="0" y="0" width="196.02" height="33.9768" rx="3.4848"></rect>
                                <g id="Text-Stuff" transform="translate(7.840800, 10.193040)" fill="#DDE3E9">
                                    <rect id="Label" x="0" y="0" width="145.4904" height="5.09652" rx="2.54826"></rect>
                                    <rect id="Label" x="0" y="8.4942" width="97.6579397" height="5.09652" rx="2.54826"></rect>
                                </g>
                                <g id="Check" transform="translate(168.972898, 10.890000)">
                                    <circle id="Background" fill="#DDE3E9" cx="6.0984" cy="6.0984" r="6.0984"></circle>
                                    <circle id="Indicator" fill="#F2F2F2" cx="6.0984" cy="6.0984" r="2.6136"></circle>
                                </g>
                            </g>
                            <g id="Row" transform="translate(0.000000, 170.755200)">
                                <rect id="Container" fill="#FFFFFF" x="0" y="0" width="196.02" height="33.9768" rx="3.4848"></rect>
                                <g id="Text-Stuff" transform="translate(7.840800, 10.193040)" fill="#DDE3E9">
                                    <rect id="Label" x="0" y="0" width="145.4904" height="5.09652" rx="2.54826"></rect>
                                    <rect id="Label" x="0" y="8.4942" width="97.6579397" height="5.09652" rx="2.54826"></rect>
                                </g>
                                <g id="Check" transform="translate(168.972898, 10.890000)">
                                    <circle id="Background" fill="#DDE3E9" cx="6.0984" cy="6.0984" r="6.0984"></circle>
                                    <circle id="Indicator" fill="#F2F2F2" cx="6.0984" cy="6.0984" r="2.6136"></circle>
                                </g>
                            </g>
                            <g id="Row" transform="translate(0.000000, 129.808800)">
                                <rect id="Container" fill="#FFFFFF" x="0" y="0" width="196.02" height="33.9768" rx="3.4848"></rect>
                                <g id="Text-Stuff" transform="translate(7.840800, 10.193040)" fill="#DDE3E9">
                                    <rect id="Label" x="0" y="0" width="145.4904" height="5.09652" rx="2.54826"></rect>
                                    <rect id="Label" x="0" y="8.4942" width="97.6579397" height="5.09652" rx="2.54826"></rect>
                                </g>
                                <g id="Check" transform="translate(168.972898, 10.890000)">
                                    <circle id="Background" fill="#DDE3E9" cx="6.0984" cy="6.0984" r="6.0984"></circle>
                                    <circle id="Indicator" fill="#F2F2F2" cx="6.0984" cy="6.0984" r="2.6136"></circle>
                                </g>
                            </g>
                        </g>
                    </g>
                    <path d="M742.88464,317.338016 C739.448351,315.007865 734.878749,314.397243 730.76659,314.397243 C714.705267,314.397243 699.608369,320.356294 686.566426,329.235407 C679.420089,334.10061 673.02715,340.296253 667.383104,346.747001 C664.125353,350.470662 661.220495,354.499007 659.163932,358.979198 C657.776163,362.003124 656.82364,365.153818 656.178009,368.403667 C655.391156,372.364234 654.766113,376.40513 654.483347,380.431591 C654.372043,382.017136 653.450724,390.430596 656.086971,390.573053 C656.071851,390.780464 656.068313,390.978147 656.084397,391.155434 C650.360251,400.105777 646.823594,410.595224 643.543968,420.540258 C640.69058,429.194389 638.147945,437.921632 636.497355,446.874485 C634.324341,458.661424 632.897004,470.625651 632.218239,482.582033 C632.072513,485.151601 631.972468,487.722424 631.886255,490.295443 C631.813231,492.49004 631.739243,494.684638 631.667184,496.879235 C631.586762,499.338665 631.153767,502.170242 631.544942,504.615238 C631.88529,506.744568 633.72825,506.422313 633.809638,504.303338 C633.908075,501.744438 633.89199,499.180519 634.003938,496.619737 C634.15288,493.221154 634.306326,489.822572 634.47264,486.424931 C635.630401,462.822498 639.973855,439.567109 647.989719,417.272209 C651.233638,408.250011 654.950763,399.709155 659.728176,391.363159 C663.928479,384.025033 668.980937,376.920989 674.145343,370.304563 C679.164989,363.874839 684.383761,357.593847 690.534146,352.146263 C695.525162,347.72569 701.015118,343.874633 706.658521,340.291233 C713.82641,335.740126 720.980467,331.299471 728.74477,327.805812 C732.780689,325.989951 736.892848,324.364242 740.960293,322.621806 C741.692137,322.308337 742.476738,322.004281 743.180595,321.641234 C745.528608,320.430346 744.755588,318.60664 742.88464,317.338016" id="Fill-1" fill="#C1DEE2"></path>
                    <path d="M689.865486,402.370784 C683.351272,402.370784 677.554637,403.21723 671.552504,405.806027 C666.371458,408.040312 661.649833,410.998134 657.06561,414.218359 C650.617373,418.747348 645.538319,424.018531 641.983102,431.002746 C639.859112,435.175149 638.301076,441.079241 639.72746,445.630146 C641.407767,450.99018 646.021346,455.460527 652.097628,454.51605 C655.855014,453.932601 659.299461,451.445389 662.155256,449.104483 C665.571557,446.303927 668.306292,442.936506 670.564356,439.196507 C674.247896,433.095759 676.41244,426.198914 679.541527,419.823916 C681.026323,416.798272 682.461181,413.751008 684.239546,410.87552 C685.119952,409.451549 686.057255,408.041201 687.392845,406.982995 C688.107399,406.41702 691.120269,405.437299 689.968084,404.166149 C706.861038,404.387978 721.82642,417.361878 725.069303,433.420951 C725.371347,434.91778 725.607413,436.426751 725.856795,437.932761 C726.014173,438.883754 725.950617,442.39067 726.800757,442.998109 C728.675667,444.338265 727.88757,440.267151 727.807065,439.681036 C727.599145,438.166141 727.377303,436.652431 727.144566,435.141386 C725.878284,426.92245 722.219258,419.28193 716.117251,413.420485 C709.139379,406.717926 699.724577,402.370784 689.865486,402.370784" id="Fill-20" fill="#89C5CC" transform="translate(683.608353, 428.506784) scale(-1, 1) translate(-683.608353, -428.506784) "></path>
                    <g id="Plant" stroke-width="1" transform="translate(56.628000, 388.109600)">
                        <path d="M8.65786017,31.1335257 C24.9201075,58.4155705 43.8604561,84.8320906 55.2348075,114.661001 C54.7764495,111.14508 54.290438,107.632802 53.7464481,104.125521 C50.8603622,85.5334484 47.2734269,67.077041 43.5041685,48.6432593 C41.5846381,39.2576729 39.5545044,29.9060999 37.4723024,20.5553266 C36.3524296,15.533023 35.2462874,10.5076594 34.1033392,5.49013836 C33.8264921,4.27402366 33.5886238,2.15136681 33.2420249,0 C44.2960885,36.2738739 54.955933,72.5750997 62.7532308,109.721011 C63.7761324,114.596015 64.6472099,119.462358 65.3607417,124.320234 C65.6048318,123.212034 65.8449167,122.103647 66.1076998,120.998485 C69.2626314,107.749882 73.9951305,94.6067269 79.6299995,82.2190258 C82.323801,76.2949298 85.4180118,70.5005685 89.0611652,65.1014039 C91.3329676,61.7358661 96.690584,57.7351934 98.7630309,54.2883923 C87.4289084,75.0765114 83.3363673,101.086759 76.7920405,123.687168 C75.1946972,129.202315 73.5874311,134.708507 72.012594,140.2244 C81.8817159,120.432297 97.1938736,104.170679 118.4832,97.1236119 C92.7132912,114.150672 77.2562473,143.969312 66.8403228,174.4663 C66.8060013,174.827977 66.7651951,175.189659 66.7299203,175.551908 C69.7949372,169.734881 73.6557872,164.473397 78.888461,160.78833 C90.0878233,152.899502 102.511576,155.197652 113.37536,161.964664 C104.849118,156.544798 89.4397125,161.480107 82.2656769,166.988736 C77.129845,170.932057 72.7406951,176.222323 68.929188,181.383492 C68.0159056,182.620662 66.7699174,184.064155 65.4536042,185.604355 C63.6080791,197.58405 60.6005951,209.481641 56.3426477,221.2848 C57.0453204,217.896929 56.5372737,212.478603 56.7321345,209.953379 C56.7533447,209.679979 56.7705494,209.406392 56.7915693,209.133756 C56.1443349,211.718021 55.5190179,214.272911 54.9169469,216.786605 C56.1137782,211.989901 56.7642487,206.982543 57.2720261,201.923431 C57.402806,199.749229 57.5303436,197.575029 57.6651289,195.401014 C57.6224103,191.274926 57.4524674,187.132534 57.1650325,182.983552 C56.1458397,178.951194 55.0047079,175.147695 54.0636226,171.98462 C50.6676904,160.571245 45.6893645,149.636943 39.5619286,139.436294 C33.971313,130.127671 27.2793486,121.695843 19.5538954,114.070222 C15.3891778,109.960603 11.0305983,106.046532 6.73340305,102.078084 C5.17951273,100.643446 2.40208964,97.1160207 0,95.277248 C17.4941207,104.921897 35.5004009,115.356022 48.2623965,130.895715 C46.7661989,125.150183 45.1411143,119.485958 43.4220638,113.935233 C34.7008955,85.7735275 23.6890917,56.5866407 8.65786017,31.1335257 Z" id="Fill-19" fill="#DDE3E9"></path>
                        <path d="M26.136,185.5656 C26.136,216.840381 28.6126576,242.1936 61.8552,242.1936 C95.0977424,242.1936 97.5744,216.840381 97.5744,185.5656" id="Base" fill="#C5CFD6"></path>
                    </g>
                    <g id="Graph" stroke-width="1" transform="translate(579.543851, 56.912023)">
                        <rect id="Value" fill="#DDE3E9" x="0" y="27.8784" width="5.2272" height="21.78" rx="2.6136"></rect>
                        <rect id="Value" fill="#DDE3E9" x="12.1968" y="13.9392" width="5.2272" height="35.7192" rx="2.6136"></rect>
                        <rect id="Value" fill="#DDE3E9" x="24.3936" y="6.9696" width="5.2272" height="42.6888" rx="2.6136"></rect>
                        <rect id="Value" fill="#DDE3E9" x="36.5904" y="13.9392" width="5.2272" height="35.7192" rx="2.6136"></rect>
                        <rect id="Value" fill="#C5CFD6" x="48.7872" y="0" width="5.2272" height="49.6584" rx="2.6136"></rect>
                    </g>
                    <g id="Pie-Chart" stroke-width="1" transform="translate(52.839293, 363.519973) scale(-1, 1) translate(-52.839293, -363.519973) translate(35.415293, 346.095973)">
                        <path d="M34.848,17.6473652 C34.848,7.94307909 27.0054576,0 17.424,0 L17.424,17.6473652 L29.3315616,30.492 C32.7187872,27.3516514 34.848,22.7448067 34.848,17.6473652 Z" id="Value" fill="#F2F2F2"></path>
                        <path d="M17.8850564,17.424 L0.2892384,17.424 C0.2892384,21.9725352 2.14471741,26.2344456 5.07794027,29.3315616 C8.30413349,32.7187872 12.8984016,34.848 17.8850564,34.848 C22.4784447,34.848 26.6829654,33.0106392 29.9100384,30.1060584 L17.8850564,17.424 Z" id="Value" fill="#AFB9C5"></path>
                        <path d="M0,17.424 C0,7.8425424 7.8425424,0 17.424,0 L17.424,17.424 L0,17.424 Z M26.136,0 L19.1664,15.6816 L34.848,8.712 C33.297264,4.6469808 29.8150776,1.550736 26.136,0 Z" id="Value" fill="#C5CFD6"></path>
                    </g>
                    <g id="Chart" stroke-width="1" transform="translate(712.513284, 339.414811)">
                        <path d="M32.9021511,32.3903448 C31.2280716,34.1675928 28.8565682,35.2836 26.2189426,35.2836 C21.150821,35.2836 17.0423127,31.1880888 17.0423127,26.136 C17.0423127,21.0839112 21.150821,16.9884 26.2189426,16.9884 L26.2189426,0 C11.8011461,0 0,11.7638136 0,26.136 C0,40.5081864 11.8011461,52.272 26.2189426,52.272 C33.7922842,52.272 40.6367392,49.0781808 45.3024,43.9973424 L32.9021511,32.3903448 Z" id="Value" fill="#F2F2F2"></path>
                        <path d="M26.136,0 L26.136,16.9884 C31.1880888,16.9884 35.2836,21.0839112 35.2836,26.136 L52.272,26.136 C52.272,11.7638136 40.5081864,0 26.136,0 Z" id="Value" fill="#AFB9C5"></path>
                        <path d="M34.9324746,26.136 C34.9324746,29.1041639 33.5346421,31.7425319 31.3632,33.4460346 L42.0456814,47.0448 C48.263902,42.1763196 52.272,34.6295766 52.272,26.136 L34.9324746,26.136 Z" id="Value" fill="#C5CFD6"></path>
                    </g>
                    <g id="Chart" stroke-width="1" transform="translate(510.556967, 67.288427)">
                        <path d="M25.309347,24.8325977 C24.0215935,26.1951545 22.1973602,27.05076 20.1684174,27.05076 C16.2698623,27.05076 13.1094713,23.9108681 13.1094713,20.0376 C13.1094713,16.1643319 16.2698623,13.02444 20.1684174,13.02444 L20.1684174,0 C9.07780467,0 0,9.01892376 0,20.0376 C0,31.0562762 9.07780467,40.0752 20.1684174,40.0752 C25.9940648,40.0752 31.2590301,37.6266053 34.848,33.7312958 L25.309347,24.8325977 Z" id="Value" fill="#F2F2F2"></path>
                        <path d="M20.0376,0 L20.0376,13.02444 C23.9108681,13.02444 27.05076,16.1643319 27.05076,20.0376 L40.0752,20.0376 C40.0752,9.01892376 31.0562762,0 20.0376,0 Z" id="Value" fill="#AFB9C5"></path>
                        <path d="M27.070556,20.0376 C27.070556,22.263723 26.0221816,24.2424989 24.3936,25.5201259 L32.4054611,35.7192 C37.0691265,32.0678397 40.0752,26.4077825 40.0752,20.0376 L27.070556,20.0376 Z" id="Value" fill="#C5CFD6"></path>
                    </g>
                    <g id="Image" stroke-width="1" transform="translate(94.569098, 62.421774)">
                        <path d="M41.8236984,45.2904627 C41.8202136,45.2991747 41.8167288,45.3078867 41.8115016,45.3183411 C41.8167288,45.3096291 41.8236984,45.2747811 41.8236984,45.2904627" id="Fill-35" fill="#C5CFD6"></path>
                        <path d="M41.8155844,45.3037026 C41.8155844,45.305445 41.813842,45.3089298 41.813842,45.3124146 C41.813842,45.3037026 41.8295236,45.2775666 41.8155844,45.3037026" id="Fill-37" fill="#C5CFD6"></path>
                        <path d="M41.876095,45.1563012 C41.8638982,45.1911492 41.8482166,45.2242548 41.8342774,45.2591028 C41.841247,45.2416788 41.8482166,45.2277396 41.8551862,45.2103156 C41.6739766,45.6633396 41.788975,45.368874 41.876095,45.1563012" id="Fill-39" fill="#C5CFD6"></path>
                        <path d="M41.8370932,45.2612358 C41.8301236,45.2769174 41.823154,45.2943414 41.8161844,45.310023 C41.7656548,45.4075974 41.8370932,45.2612358 41.8370932,45.2612358" id="Fill-41" fill="#C5CFD6"></path>
                        <polygon id="Fill-43" fill="#C5CFD6" points="41.8176 45.3032712 41.8176 45.3032712 41.8176 45.3015288"></polygon>
                        <path d="M41.8167288,45.3041424 C41.8167288,45.3024 41.8167288,45.3024 41.8184712,45.3006576 C41.8167288,45.3024 41.8167288,45.3024 41.8167288,45.3041424" id="Fill-45" fill="#C5CFD6"></path>
                        <path d="M41.8084626,45.3166449 C41.7980082,45.3375537 41.8572498,45.2364945 41.8084626,45.3166449" id="Fill-47" fill="#C5CFD6"></path>
                        <path d="M41.8158576,45.3041424 L41.8193424,45.3006576 C41.8176,45.3024 41.8176,45.3041424 41.8158576,45.3041424" id="Fill-49" fill="#C5CFD6"></path>
                        <rect id="Photo-Background" fill="#DDE3E9" x="0" y="0" width="82.764" height="54.8856" rx="3.4848"></rect>
                        <g id="icons8-night_landscape" transform="translate(6.969600, 15.681600)">
                            <polygon id="Mountains" fill="#AFB9C5" points="24.3936 0 0 39.204 48.7872 39.204"></polygon>
                            <polygon id="Mountains" fill="#C5CFD6" points="48.3516 10.4544 27.0072 39.204 69.696 39.204"></polygon>
                        </g>
                        <circle id="Sun" fill="#FFFFFF" cx="64.4688" cy="18.2952" r="7.8408"></circle>
                    </g>
                    <g id="Image" stroke-width="1" transform="translate(661.591981, 513.801973) scale(-1, 1) translate(-661.591981, -513.801973) translate(599.736781, 472.855573)">
                        <path d="M61.8612984,67.0704627 C61.8578136,67.0791747 61.8543288,67.0878867 61.8491016,67.0983411 C61.8543288,67.0896291 61.8612984,67.0547811 61.8612984,67.0704627" id="Fill-35" fill="#C5CFD6"></path>
                        <path d="M61.8531844,67.0837026 C61.8531844,67.085445 61.851442,67.0889298 61.851442,67.0924146 C61.851442,67.0837026 61.8671236,67.0575666 61.8531844,67.0837026" id="Fill-37" fill="#C5CFD6"></path>
                        <path d="M61.913695,66.9363012 C61.9014982,66.9711492 61.8858166,67.0042548 61.8718774,67.0391028 C61.878847,67.0216788 61.8858166,67.0077396 61.8927862,66.9903156 C61.7115766,67.4433396 61.826575,67.148874 61.913695,66.9363012" id="Fill-39" fill="#C5CFD6"></path>
                        <path d="M61.8746932,67.0412358 C61.8677236,67.0569174 61.860754,67.0743414 61.8537844,67.090023 C61.8032548,67.1875974 61.8746932,67.0412358 61.8746932,67.0412358" id="Fill-41" fill="#C5CFD6"></path>
                        <polygon id="Fill-43" fill="#C5CFD6" points="61.8552 67.0832712 61.8552 67.0832712 61.8552 67.0815288"></polygon>
                        <path d="M61.8543288,67.0841424 C61.8543288,67.0824 61.8543288,67.0824 61.8560712,67.0806576 C61.8543288,67.0824 61.8543288,67.0824 61.8543288,67.0841424" id="Fill-45" fill="#C5CFD6"></path>
                        <path d="M61.8460626,67.0966449 C61.8356082,67.1175537 61.8948498,67.0164945 61.8460626,67.0966449" id="Fill-47" fill="#C5CFD6"></path>
                        <path d="M61.8534576,67.0841424 L61.8569424,67.0806576 C61.8552,67.0824 61.8552,67.0841424 61.8534576,67.0841424" id="Fill-49" fill="#C5CFD6"></path>
                        <rect id="Photo-Background" fill="#DDE3E9" x="0" y="0" width="123.7104" height="81.8928" rx="3.4848"></rect>
                        <g id="icons8-night_landscape" transform="translate(9.583200, 23.522400)">
                            <polygon id="Mountains" fill="#AFB9C5" points="36.3515114 0 0.584395429 58.3704 72.1186274 58.3704"></polygon>
                            <polygon id="Mountains" fill="#C5CFD6" points="73.2294074 15.6349286 41.6092034 58.3704 104.849611 58.3704"></polygon>
                        </g>
                        <circle id="Sun" fill="#FFFFFF" cx="96.2676" cy="27.4428" r="11.7612"></circle>
                    </g>
                </g>
                <g id="Group-2" transform="translate(20.000000, 229.000000)">
                    <g id="Group" transform="translate(0.000000, 77.429875)">
                        <g id="Head/Front/Rad" transform="translate(90.479700, 0.000000)">
                            <g id="Head" stroke-width="1" transform="translate(65.958081, 37.941531)" fill="#B28B67">
                                <path d="M10.0919209,42.2131682 C4.46360852,35.5932879 0.654248948,27.4805333 1.29079517,18.3899588 C3.12486208,-7.80251744 39.5119816,-2.04050638 46.5900297,11.1792064 C53.6680778,24.3989192 52.8270217,57.931817 43.6792752,60.2945484 C40.0311665,61.2368025 32.2596103,58.9286574 24.3499793,54.1515067 L29.3147027,89.3461858 L0,89.3461858 L10.0919209,42.2131682 Z"></path>
                            </g>
                            <path d="M116.534027,47.6125837 C117.480865,46.672388 117.997342,45.3304169 118.444117,44.0561594 C118.908092,42.7324564 119.358914,41.3951132 119.666956,40.0173368 C120.28248,37.2644632 120.288326,34.0986098 118.328432,31.9610042 C116.756627,30.246852 114.398189,29.4780106 112.221541,29.3109189 C110.77138,29.1994837 109.281982,29.4029898 107.891855,29.860909 C106.512633,30.3151745 105.323745,31.2205392 103.986682,31.7824645 C103.935642,28.8158547 103.428496,25.7117473 101.926506,23.1786993 C100.481179,20.7414976 98.1768169,19.3738295 95.5524953,19.0120003 C92.8589202,18.6406717 90.1990725,19.2722591 87.7876826,20.5789119 C87.1839639,20.9061536 86.5858663,21.2489841 86.013514,21.6369975 C85.534249,21.9619252 85.0359842,22.3532269 84.4736376,22.4853658 C83.8467595,22.6328499 83.5360186,22.2700464 83.1285927,21.8117619 C82.6509016,21.2744376 82.1127263,20.8011732 81.5431845,20.381617 C79.0248791,18.5268008 75.7207274,17.7641705 72.8032031,18.8759642 C71.4589451,19.3882003 70.1517872,20.258125 69.2398009,21.4568745 C68.4268604,22.5254337 67.8469756,24.2204654 66.7249806,24.9649494 C66.2488635,25.2809867 65.9126022,24.8622829 65.4790939,24.5528221 C64.8279321,24.0878393 64.2069,23.5747506 63.5478684,23.1224337 C62.6221663,22.4869491 61.6199033,22.0116143 60.546588,21.7628035 C58.9753453,21.3985385 56.8039813,21.4839112 56.3547336,23.5460089 C56.1860971,24.3205743 56.3153851,25.1489695 56.3699109,25.9293807 C56.4446731,27.0009846 56.5226956,28.0722232 56.6155581,29.1422438 C56.6860482,29.954685 56.7752007,30.7393587 56.9282103,31.5371854 C57.0098303,31.9624657 57.2652585,32.7552991 57.0832434,33.1811883 C56.855809,33.7135193 55.8061028,33.4108786 55.3576421,33.4293902 C54.4718506,33.4660481 53.5823492,33.6216919 52.7633378,34.0009366 C52.1285899,34.2949305 51.4612389,34.7272744 51.1933317,35.4562914 C51.02863,35.9041023 51.0720258,36.3640918 51.1498235,36.8248121 C51.2431357,37.3777251 51.136445,37.6709882 51.0667419,38.2288945 C49.8770674,37.6418811 45.7544665,36.337664 45.2357405,38.4740518 C45.0630567,39.1854097 45.4563171,39.989204 45.7563777,40.5891268 C46.2826361,41.6413666 46.9725843,42.6031186 47.6779347,43.5202966 C49.1492322,45.4336923 50.9057502,47.0840281 52.7956036,48.4954178 C50.581406,49.4817708 50.0034324,52.3911407 51.9204924,54.1245352 C52.7669353,54.8898448 53.905007,55.0602248 54.9727011,55.0112664 C55.3634881,54.9933637 55.9268466,54.842835 56.2343272,54.9110357 C56.3998158,54.9476936 56.5769966,55.0882358 56.8062298,55.1039464 C58.3130534,55.2073435 60.0140338,54.8435657 61.4870177,54.5085297 C64.1116766,53.9115297 66.5964795,52.6655268 68.6256267,50.7678416 C69.1461514,50.2810589 69.5761745,50.000827 70.2768031,50.0080124 C70.8907525,50.0142236 71.4931221,50.1828986 72.1065094,50.1984873 C73.7294673,50.2400167 75.1927827,49.4449911 76.6998311,48.9158265 C76.7921315,50.9558808 77.3719038,53.2027293 78.2047434,55.0380596 C78.8838989,56.5347002 80.3021321,56.7522118 81.6957444,56.8834982 C86.1522456,57.3036633 90.6244863,56.8347834 95.0866087,56.8409945 C90.7671528,57.8193095 86.3036812,58.2225463 82.022562,59.373799 C80.0874016,59.8940731 81.5651073,61.2009695 82.3925505,62.1069431 C83.7550212,63.5988339 84.768077,65.4473172 85.4707292,67.3946915 C87.5837449,64.6347543 91.3185942,62.8162306 94.6274677,63.6641118 C98.2835076,64.6007757 100.857913,69.5549495 98.5200484,73.1166106 C97.1627492,75.1841887 94.7116735,75.9823808 92.6721834,76.8706953 C94.2632128,78.5282165 94.6480414,80.9762572 95.605672,83.0383549 C96.0779667,84.0552764 96.7409331,85.2050676 97.7971598,85.5594678 C98.1879469,85.6906324 98.6461885,85.7018368 98.9544561,86.0210405 C99.3363616,86.4162394 99.4273129,86.8580827 99.9150098,87.1977467 C101.861075,88.5534797 104.900917,88.4489864 106.625844,86.6797865 C108.185732,85.0797487 107.77988,82.5477968 106.477107,80.9255938 C108.550886,80.0594446 112.329019,78.9454588 111.504836,75.7081165 C115.998437,75.4091293 126.908771,68.1065366 120.877654,62.7703169 C124.187539,60.895893 127.228393,56.3149964 125.102336,52.2769045 C123.465213,49.1674385 119.65785,47.7774833 116.534027,47.6125837" id="hair" fill="#191847" transform="translate(85.501216, 53.240535) scale(-1, 1) translate(-85.501216, -53.240535) "></path>
                        </g>
                        <g id="Bottom/Sitting/Skinny-Jeans-1" transform="translate(0.000000, 230.473725)">
                            <g id="Objects/Seat/Cube" transform="translate(12.222110, 51.543208)" stroke-width="1">
                                <g id="Seat" transform="translate(67.233913, 0.000000)">
                                    <polygon id="Seat-Stuff" fill="#C5CFD6" points="33.7668778 0 128.205529 0 140.58 152.040533 0 152.040533"></polygon>
                                    <polygon id="Seat-Stuff" fill-opacity="0.1" fill="#000000" points="33.7668778 0 62.8121233 0 80.1963347 152.040533 0 152.040533"></polygon>
                                </g>
                            </g>
                            <path d="M315.273356,25.4723172 C325.340462,19.4025163 342.230679,27.2009645 342.219083,35.8819456 C342.184385,61.8554211 318.577466,184.268318 317.344918,192.006684 C316.112369,199.74505 302.908683,201.789045 302.139789,192.032044 C300.916349,176.507009 298.643349,122.76257 300.917578,97.8862607 C301.856332,87.6178427 302.867319,77.8385442 303.862616,69.1140351 C291.475206,91.5758392 272.317448,123.735603 246.38934,165.593327 L232.31368,159.136187 C243.366859,122.569869 252.430299,96.7550217 259.504001,81.6916449 C271.615896,55.8994867 282.972779,33.8119417 287.752524,26.0317832 C295.271066,13.7935887 308.358291,18.0636761 315.273356,25.4723172 Z" id="Skin" fill="#B28B67"></path>
                            <path d="M255.301415,151.303674 L261.395748,26.7961396 C265.877707,5.27155077 304.064445,15.3141217 304.063887,26.8523052 C304.062622,53.0475537 288.495151,143.517351 288.494774,151.321791 L255.301415,151.303674 Z" id="LegLower" fill="#1F28CF" transform="translate(279.682651, 82.735228) rotate(20.000000) translate(-279.682651, -82.735228) "></path>
                            <g id="Accessories/Shoe/Flat-Sneaker" transform="translate(263.386472, 163.220158) rotate(30.000000) translate(-263.386472, -163.220158) translate(226.109037, 138.675773)" fill="#E4E4E4">
                                <path d="M3.42779696,30.5109379 C1.96759899,34.2811004 1.2375,37.0895052 1.2375,38.9361523 C1.2375,41.1230876 1.60926258,44.3143702 2.35278773,48.51 C4.9415617,48.51 28.2073092,48.51 72.1500303,48.51 C73.9638132,42.6336287 72.9167926,39.4611649 69.0089683,38.9926086 C65.101144,38.5240524 61.854848,38.1009836 59.2700802,37.7234023 L26.6779186,23.4842491 C26.1267831,23.2434641 25.4848047,23.4950529 25.2440197,24.0461885 C25.242027,24.0507495 25.2400656,24.0553241 25.2381357,24.0599121 L23.0957262,29.1529274 C19.478103,30.8070664 16.5384086,31.6341359 14.2766429,31.6341359 C12.3827654,31.6341359 9.74521826,30.861614 6.36400137,29.3165701 L6.36400379,29.3165648 C5.26993551,28.8166314 3.97774179,29.2982728 3.47780833,30.3923411 C3.45997317,30.431372 3.44329543,30.4709216 3.42779696,30.5109379 Z" id="shoe"></path>
                            </g>
                            <g id="Accessories/Shoe/Flat-Sneaker" transform="translate(295.775064, 154.629623)" fill="#E4E4E4">
                                <path d="M3.42779696,30.5109379 C1.96759899,34.2811004 1.2375,37.0895052 1.2375,38.9361523 C1.2375,41.1230876 1.60926258,44.3143702 2.35278773,48.51 C4.9415617,48.51 28.2073092,48.51 72.1500303,48.51 C73.9638132,42.6336287 72.9167926,39.4611649 69.0089683,38.9926086 C65.101144,38.5240524 61.854848,38.1009836 59.2700802,37.7234023 L26.6779186,23.4842491 C26.1267831,23.2434641 25.4848047,23.4950529 25.2440197,24.0461885 C25.242027,24.0507495 25.2400656,24.0553241 25.2381357,24.0599121 L23.0957262,29.1529274 C19.478103,30.8070664 16.5384086,31.6341359 14.2766429,31.6341359 C12.3827654,31.6341359 9.74521826,30.861614 6.36400137,29.3165701 L6.36400379,29.3165648 C5.26993551,28.8166314 3.97774179,29.2982728 3.47780833,30.3923411 C3.45997317,30.431372 3.44329543,30.4709216 3.42779696,30.5109379 Z" id="shoe"></path>
                            </g>
                            <path d="M345.605063,44.7113124 C345.605063,77.3148115 330.184704,153.365947 330.174946,160.544957 L296.997275,160.570545 C301.853458,92.7108671 303.575425,58.4155039 302.163174,57.6844556 C300.044797,56.5878832 215.324048,66.1778345 189.914917,66.1778345 C153.274825,66.1778345 138.117552,42.9777048 136.887633,-4.40536496e-13 L209.470293,-4.40536496e-13 C224.248775,1.58785838 301.334689,17.1997926 329.962869,22.5666139 C342.219083,24.8642419 345.605063,35.7298877 345.605063,44.7113124 Z" id="Leg-and-Butt" fill="#2B44FF"></path>
                        </g>
                        <g id="Body/Jacket-2" transform="translate(24.453973, 100.525774)">
                            <path d="M241.898516,94.8834653 L286.166637,75.4306304 C293.92138,67.6984113 301.409689,61.8215672 308.631565,57.8000981 C310.791043,57.1121723 314.480411,56.9043418 310.544144,62.6571821 C306.607878,68.4100223 302.726084,74.6382836 304.298913,76.6544584 C305.871742,78.6706331 310.427884,76.4453252 312.227876,79.7240208 C313.427871,81.9098179 305.747857,84.5244877 289.187833,87.5680304 L256.033624,113.00295 L241.898516,94.8834653 Z M62.9281676,100.241382 L87.9630968,105.211698 C62.7862044,152.160378 49.2842892,177.043206 47.4573514,179.860181 C43.3467412,186.198376 47.1820237,197.814435 48.598761,203.931532 C39.7109454,206.001688 43.2160269,192.616267 31.968668,195.411021 C21.7026004,197.961943 12.998213,204.508518 3.42552538,195.679417 C2.24861969,194.593931 1.38706908,191.201009 5.39973674,189.460796 C15.3967552,185.125289 30.166508,177.007141 32.5614247,173.855349 C35.8273214,169.557316 45.9495691,145.019328 62.9281676,100.241382 Z" id="Skin" fill="#B28B67"></path>
                            <path d="M150.609387,12.0710899 L160.975438,9.34414456 C185.84445,29.588096 199.875257,82.2233863 215.770448,87.9623794 C230.798708,93.3883651 250.706376,85.1237019 274.278273,74.2537297 L283.188955,90.26379 C263.171023,116.135498 217.832973,140.480048 197.728303,130.605574 C165.585116,114.818344 152.769601,49.5077981 150.609387,12.0710899 Z" id="Coat-Back" fill="#D3670A" transform="translate(216.899171, 71.098412) rotate(5.000000) translate(-216.899171, -71.098412) "></path>
                            <path d="M109.953871,139.359971 C152.312691,139.359971 183.470951,139.359971 203.428651,139.359971 C207.699971,139.359971 206.895123,133.18857 206.277677,130.074447 C199.151613,94.1337071 171.334159,55.3913286 171.334159,4.23059011 L144.371632,0 C122.070158,35.8893571 114.357922,80.0764224 109.953871,139.359971 Z" id="Shirt" fill="#DDE3E9"></path>
                            <path d="M100.630705,102.971334 C81.5752424,137.364717 65.5580953,162.126307 52.5792633,177.256103 L32.9861613,173.416149 C45.6071464,95.0956648 82.1558349,37.2902818 142.632227,6.87980963e-14 L142.940032,5.81549342e-14 L153.307947,0 C177.5131,82.560939 184.186032,137.571454 173.326744,165.031544 L89.1848065,165.031544 C90.5160157,144.938587 94.784386,123.689552 100.630706,102.97133 Z" id="Coat-Front" fill="#FF8B46"></path>
                        </g>
                    </g>
                    <g id="Head/Front/Airy" transform="translate(532.799100, 63.797855) scale(-1, 1) translate(-532.799100, -63.797855) translate(449.532234, 0.000000)">
                        <g id="Head" stroke-width="1" transform="translate(66.355419, 38.240283)" fill="#B28B67">
                            <path d="M10.1527156,42.5455553 C4.49049773,35.87355 0.658190206,27.6969155 1.29857104,18.5347617 C3.14368655,-7.86395458 39.7500056,-2.05657336 46.8706925,11.2672317 C53.9913794,24.5910367 53.1452567,58.3879731 43.9424033,60.7693087 C40.2723181,61.718982 32.4539453,59.3926626 24.4966659,54.5778965 L29.4912973,90.0496991 L0,90.0496991 L10.1527156,42.5455553 Z"></path>
                        </g>
                        <path d="M96.4168199,34.1513567 C92.5299523,33.5114871 82.0643899,33.0715589 80.1343532,33.0718429 C78.9009687,33.0718429 77.5643555,33.3547148 76.833858,32.2178314 C76.2356397,31.2868537 76.454789,29.7123143 76.2762542,28.6319485 C76.0689509,27.3769179 75.7744955,26.1380757 75.4766555,24.9023576 C74.6291091,21.3860566 73.3474948,18.0407284 71.5542502,14.8998857 C68.1894486,9.0072912 63.2601412,4.39159589 57.0370916,1.70573381 C50.1650555,-1.25987599 42.3887818,-1.93893872 34.9969361,-1.33741012 C27.0866909,-0.693848374 19.9261223,1.92754393 12.4575602,4.39443597 C5.34042669,6.74516881 -2.11403314,7.67046633 -9.55777526,6.52250667 C-17.0576444,5.36602677 -22.7245005,1.28540222 -29.0504967,-2.58761261 C-35.5265411,-6.55264597 -42.9274123,-9.1459215 -50.5832525,-8.54978906 C-57.7297188,-7.9931337 -64.316325,-5.030932 -70.2257401,-1.07385086 C-75.754676,2.62847526 -80.3167603,7.08285412 -82.8923989,13.352043 C-85.6632129,20.095809 -85.6606745,27.4981892 -81.1042311,33.4580936 C-74.4998561,42.0970439 -62.2390606,44.3310495 -52.0386068,44.1089554 C-46.1384991,43.9808678 -40.3438765,42.89965 -34.7734799,40.9328958 C-27.3446862,38.3097994 -20.9250509,33.8639408 -13.9751703,30.2567573 C-10.7135973,28.5640706 -7.34230867,27.1738523 -3.80856189,26.1724406 C-0.379453954,25.2002818 2.99803967,24.7543895 6.1027954,26.8338949 C9.38721405,29.0338196 12.3303578,31.1948352 16.0877665,32.5719892 C19.6923067,33.8931936 23.5103552,34.632182 27.3506854,34.6023612 C34.822632,34.5444236 42.1882476,32.2073231 49.4452756,30.6418719 C55.3631521,29.3655407 61.6950713,28.0934696 67.7283044,29.3203835 C70.2458416,29.8324496 73.9231495,30.8895268 74.8324638,33.5160312 C59.5283986,36.300444 53.5177432,55.3005681 57.8321916,69.2484768 C60.1607584,76.7766724 74.1580933,85.5770535 79.6004413,81.6193674 C83.0483253,79.1120594 80.9551053,75.820418 79.6004413,73.6474741 C77.0061877,69.4861913 76.1185908,64.1408799 80.9190035,61.243716 C85.059712,58.7450151 89.4133817,64.6787666 89.4957389,64.6722344 C90.6337921,64.582204 100.46756,58.9992623 107.242848,50.8523344 C113.926694,51.2500785 114.94073,46.8258738 113.344759,43.2077058 C111.748787,39.5895379 101.787246,35.0360411 96.4168199,34.1513567 Z" id="hair" fill="#191847"></path>
                    </g>
                    <g id="Bottom/Standing/Shorts" transform="translate(542.595202, 377.879601) scale(-1, 1) translate(-542.595202, -377.879601) translate(359.190405, 231.199063)">
                        <polygon id="Leg" fill="#997659" points="156.443009 9.9475983e-14 202.435833 150.977628 224.715905 279.374376 242.185019 279.374376 218.642518 9.9475983e-14"></polygon>
                        <path d="M139.989271,0 C143.113215,82.8948327 139.436755,125.653489 138.737579,133.184845 C138.038403,140.716201 128.464395,189.549916 105.799092,281.902651 L124.413738,275.483349 C160.234136,190.782224 172.440451,146.761553 176.548779,135.639283 C180.657108,124.517013 191.568624,79.303919 209.283329,0 L139.989271,0 Z" id="Leg" fill="#B28B67"></path>
                        <g id="Accessories/Shoe/Flat-Sneaker" transform="translate(102.665725, 244.216627)" fill="#E4E4E4">
                            <path d="M3.42779696,30.5109379 C1.96759899,34.2811004 1.2375,37.0895052 1.2375,38.9361523 C1.2375,41.1230876 1.60926258,44.3143702 2.35278773,48.51 C4.9415617,48.51 28.2073092,48.51 72.1500303,48.51 C73.9638132,42.6336287 72.9167926,39.4611649 69.0089683,38.9926086 C65.101144,38.5240524 61.854848,38.1009836 59.2700802,37.7234023 L26.6779186,23.4842491 C26.1267831,23.2434641 25.4848047,23.4950529 25.2440197,24.0461885 C25.242027,24.0507495 25.2400656,24.0553241 25.2381357,24.0599121 L23.0957262,29.1529274 C19.478103,30.8070664 16.5384086,31.6341359 14.2766429,31.6341359 C12.3827654,31.6341359 9.74521826,30.861614 6.36400137,29.3165701 L6.36400379,29.3165648 C5.26993551,28.8166314 3.97774179,29.2982728 3.47780833,30.3923411 C3.45997317,30.431372 3.44329543,30.4709216 3.42779696,30.5109379 Z" id="shoe"></path>
                        </g>
                        <g id="Accessories/Shoe/Flat-Sneaker" transform="translate(217.553560, 244.216627)" fill="#E4E4E4">
                            <path d="M3.42779696,30.5109379 C1.96759899,34.2811004 1.2375,37.0895052 1.2375,38.9361523 C1.2375,41.1230876 1.60926258,44.3143702 2.35278773,48.51 C4.9415617,48.51 28.2073092,48.51 72.1500303,48.51 C73.9638132,42.6336287 72.9167926,39.4611649 69.0089683,38.9926086 C65.101144,38.5240524 61.854848,38.1009836 59.2700802,37.7234023 L26.6779186,23.4842491 C26.1267831,23.2434641 25.4848047,23.4950529 25.2440197,24.0461885 C25.242027,24.0507495 25.2400656,24.0553241 25.2381357,24.0599121 L23.0957262,29.1529274 C19.478103,30.8070664 16.5384086,31.6341359 14.2766429,31.6341359 C12.3827654,31.6341359 9.74521826,30.861614 6.36400137,29.3165701 L6.36400379,29.3165648 C5.26993551,28.8166314 3.97774179,29.2982728 3.47780833,30.3923411 C3.45997317,30.431372 3.44329543,30.4709216 3.42779696,30.5109379 Z" id="shoe"></path>
                        </g>
                        <polygon id="Bottom" fill="#69A1AC" points="150.331954 0 169.88733 76.9215125 229.617171 76.9215125 220.711208 0"></polygon>
                        <path d="M139.332055,-3.55271368e-15 C132.897651,19.3661896 131.67544,45.0066938 135.665422,76.9215125 L196.617474,76.9215125 L213.377942,-3.55271368e-15 L139.332055,-3.55271368e-15 Z" id="Bottom" fill="#89C5CC"></path>
                    </g>
                    <g id="Body/Turtle-Neck" transform="translate(540.962519, 215.931200) scale(-1, 1) rotate(8.000000) translate(-540.962519, -215.931200) translate(384.224888, 101.422230)">
                        <path d="M243.72268,113.02868 L278.331154,146.811276 C288.400945,151.1092 296.651704,155.854975 303.083431,161.048603 C304.52983,162.794358 306.104471,166.139315 299.299235,164.642494 C292.493999,163.145674 285.268635,161.877488 283.989604,164.091952 C282.710572,166.306417 286.479343,169.699763 284.115534,172.597928 C282.539661,174.530037 277.239878,168.384375 268.216182,154.160941 L232.227946,132.930207 L243.72268,113.02868 Z M74.4873848,82.4542622 L101.23964,82.5547233 C80.8642704,148.608668 70.0483705,183.193466 68.7919406,186.309118 C65.9649734,193.319336 71.9472161,203.995775 74.5054606,209.733214 C66.1733437,213.463865 67.0611397,199.64774 56.5503985,204.540698 C46.9566814,209.006762 39.6587646,217.098972 28.5746107,210.255531 C27.2118791,209.41417 25.7185473,206.246295 29.3266257,203.770768 C38.3156649,197.603327 51.269415,186.809195 53.0196706,183.256223 C55.4064569,178.411111 62.5623616,144.810457 74.4873848,82.4542622 Z" id="Skin" fill="#B28B67"></path>
                        <path d="M149.983411,11.8717705 L160.349462,9.14482518 C182.058359,66.3339192 270.735797,98.8526434 277.882748,120.316095 C280.503723,128.18731 275.077142,132.75695 278.278133,134.944242 L265.475513,146.160883 C262.922456,143.659209 258.411941,149.03856 247.785994,146.48139 C237.160046,143.924221 156.058112,81.305928 149.983411,11.8717705 Z" id="Clothes-Back" fill="#D4364B" transform="translate(214.303601, 78.167356) rotate(5.000000) translate(-214.303601, -78.167356) "></path>
                        <path d="M173.776746,14.350505 C172.561414,92.2758545 217.581117,112.154563 207.552913,143.416379 C199.271552,169.232603 120.005281,196.984934 106.288742,171.678942 C100.736462,161.435399 98.2173699,149.046559 97.9315476,135.577212 C94.4258875,145.925212 91.6532998,154.8336 89.6137815,162.302385 C86.0953274,175.187084 72.4550315,177.235164 72.4550315,182.198812 L54.4841344,177.235164 C55.703058,170.491842 47.2311429,167.208245 49.5026842,152.143075 C59.6805099,84.6423543 87.0264713,35.7131783 131.540568,5.35554707 L132.037922,-1.7671021 C132.20562,-4.16700252 134.287069,-5.97656047 136.686969,-5.80886291 C136.687109,-5.80885314 136.687249,-5.80884337 136.687389,-5.80883358 L136.68736,-5.8084142 L170.65243,-3.43132527 C173.052151,-3.26340755 174.861458,-1.18204384 174.693772,1.21769278 L173.776746,14.350505 Z" id="Clothes-Front" fill="#FF4C64"></path>
                    </g>
                </g>
            </g>
        </g>
    </g>
</svg>