<?xml version="1.0" encoding="UTF-8"?>
<svg width="284px" height="301px" viewBox="0 0 284 301" version="1.1" xmlns="http://www.w3.org/2000/svg" xmlns:xlink="http://www.w3.org/1999/xlink">
    <!-- Generator: Sketch 52.1 (67048) - http://www.bohemiancoding.com/sketch -->
    <title>Human 2</title>
    <desc>Created with Sketch.</desc>
    <defs>
        <path d="M163.21978,305.737801 C199.20674,305.737801 231.489746,289.877913 253.461599,264.76591 C265.029823,251.54439 295.112681,282.152487 300,264.76591 C301.070566,260.957385 315.478147,213.244346 300,169.663768 C273.459112,94.9347155 209.535172,0.0401917551 163.21978,0.0401917551 C73.018439,0.0401917551 -40.9120879,277.257383 17.4154674,305.737801 C52.2529242,322.748378 75.1061865,267.390273 79.7524362,271.899232 C101.334576,292.843648 130.771514,305.737801 163.21978,305.737801 Z" id="path-1"></path>
    </defs>
    <g id="Careers" stroke="none" stroke-width="1" fill="none" fill-rule="evenodd">
        <g transform="translate(-750.000000, -1669.000000)" id="Column">
            <g transform="translate(675.000000, 1664.000000)">
                <g id="Human-2" transform="translate(60.000000, 0.000000)">
                    <ellipse id="Background" fill="#DDAAC4" cx="163.21978" cy="185.859243" rx="119.868132" ry="119.878559"></ellipse>
                    <mask id="mask-2" fill="white">
                        <use xlink:href="#path-1"></use>
                    </mask>
                    <g id="Mask"></g>
                    <g id="A-Human/Standing" mask="url(#mask-2)">
                        <g transform="translate(-15.989011, -9.981967)">
                            <g id="Head/Front/Afro" transform="translate(97.415994, 0.000000)">
                                <path d="M72.4679953,92.3157423 C86.0455727,92.3157423 90.983565,76.0606067 98.6973926,67.1402294 C104.216478,60.7578824 113.635851,62.6609897 116.423992,53.7258427 C123.435025,31.257613 104.67005,15.443999 80.1899948,15.443999 C55.7099394,15.443999 39.2039975,29.31301 35.6399977,50.1618429 C32.0759979,71.0106759 47.9879399,92.3157423 72.4679953,92.3157423 Z" id="Hair-Back" fill="#191847"></path>
                                <g id="Head" stroke-width="1" transform="translate(64.151996, 36.827998)" fill="#B28B67">
                                    <path d="M9.81558074,40.974268 C4.34138457,34.5486723 0.636334094,26.6740163 1.2554502,17.8502381 C3.03929611,-7.57352395 38.4300519,-1.98062024 45.3142866,10.8511116 C52.1985213,23.6828435 51.3804953,56.2315954 42.4832353,58.5249838 C38.9350203,59.439584 31.3762674,57.1991799 23.6832204,52.5622322 L28.5119982,86.7239944 L0,86.7239944 L9.81558074,40.974268 Z"></path>
                                </g>
                                <path d="M85.9871601,61.4473566 C84.9512297,60.8992879 83.7642352,60.5879961 82.5026367,60.5879961 C78.4631881,60.5879961 75.188568,63.7793102 75.188568,67.7159956 C75.188568,69.3227526 75.7340744,70.8053409 76.6544413,71.997456 C74.921441,74.8539546 73.7386601,77.8551965 73.3509629,80.9405406 C67.3441933,80.9405406 45.4214904,58.2119962 67.2607423,36.8279976 C89.0999943,15.443999 120.660417,45.9707973 111.176788,47.7510947 C105.724186,48.7746746 94.7428132,53.9802316 85.9871631,61.4473543 Z" id="Hair" fill="#191847"></path>
                            </g>
                            <g id="Bottom/Standing/Shorts" transform="translate(0.000000, 222.155986)">
                                <polygon id="Leg" fill="#997659" points="152.06399 9.9475983e-14 196.769422 146.152706 218.425849 270.446167 235.405983 270.446167 212.522464 9.9475983e-14"></polygon>
                                <path d="M136.070811,0 C139.107313,80.2456908 135.533761,121.637871 134.854156,128.928541 C134.17455,136.219211 124.868529,183.492305 102.837654,272.893644 L120.931255,266.67949 C155.748999,184.685231 167.613645,142.071367 171.606977,131.304541 C175.600308,120.537715 186.206399,76.769535 203.425249,0 L136.070811,0 Z" id="Leg" fill="#B28B67"></path>
                                <g id="Accessories/Shoe/Flat-Sneaker" transform="translate(99.791994, 236.411985)" fill="#E4E4E4">
                                    <path d="M3.18162038,30.1774841 C1.85254008,33.72543 1.18799992,36.3801134 1.18799992,38.1415345 C1.18799992,40.2838384 1.54489198,43.4099925 2.25867608,47.5199969 C4.74389892,47.5199969 27.0790151,47.5199969 69.2640247,47.5199969 C71.0052561,41.7635519 70.0001163,38.6558325 66.2486053,38.1968386 C62.4970942,37.7378448 59.3806502,37.3234101 56.8992734,36.9535346 L25.7558296,23.0696321 C25.1565678,22.8024782 24.4541991,23.0717048 24.1870452,23.6709666 C24.182475,23.6812183 24.1780502,23.6915343 24.1737723,23.7019114 L22.1718957,28.5579679 C18.6989777,30.1783488 15.8768712,30.9885393 13.7055763,30.9885393 C11.9414508,30.9885393 9.50517844,30.2760657 6.39675935,28.8511186 L6.39676585,28.8511044 C5.20389435,28.3042737 3.7935871,28.8279933 3.24675644,30.0208648 C3.22318724,30.0722793 3.20146137,30.124519 3.18162038,30.1774841 Z" id="shoe"></path>
                                </g>
                                <g id="Accessories/Shoe/Flat-Sneaker" transform="translate(211.463986, 236.411985)" fill="#E4E4E4">
                                    <path d="M3.18162038,30.1774841 C1.85254008,33.72543 1.18799992,36.3801134 1.18799992,38.1415345 C1.18799992,40.2838384 1.54489198,43.4099925 2.25867608,47.5199969 C4.74389892,47.5199969 27.0790151,47.5199969 69.2640247,47.5199969 C71.0052561,41.7635519 70.0001163,38.6558325 66.2486053,38.1968386 C62.4970942,37.7378448 59.3806502,37.3234101 56.8992734,36.9535346 L25.7558296,23.0696321 C25.1565678,22.8024782 24.4541991,23.0717048 24.1870452,23.6709666 C24.182475,23.6812183 24.1780502,23.6915343 24.1737723,23.7019114 L22.1718957,28.5579679 C18.6989777,30.1783488 15.8768712,30.9885393 13.7055763,30.9885393 C11.9414508,30.9885393 9.50517844,30.2760657 6.39675935,28.8511186 L6.39676585,28.8511044 C5.20389435,28.3042737 3.7935871,28.8279933 3.24675644,30.0208648 C3.22318724,30.0722793 3.20146137,30.124519 3.18162038,30.1774841 Z" id="shoe"></path>
                                </g>
                                <polygon id="Bottom" fill="#69A1AC" points="146.123991 0 165.131989 74.4632651 223.189923 74.4632651 214.533249 0"></polygon>
                                <path d="M135.431991,-3.55271368e-15 C129.177693,18.7472875 127.989693,43.5683759 131.867992,74.4632651 L191.113925,74.4632651 L207.405249,-3.55271368e-15 L135.431991,-3.55271368e-15 Z" id="Bottom" fill="#89C5CC"></path>
                            </g>
                            <g id="Body/Lab-Coat" transform="translate(26.135998, 97.415994)">
                                <path d="M226.146326,105.268699 L262.008029,135.671578 C272.067476,139.155135 280.392751,143.196249 286.983855,147.79492 C288.505264,149.389225 290.259483,152.525172 283.556669,151.535695 C276.853854,150.546219 269.758999,149.806888 268.668408,152.040453 C267.577817,154.274017 271.463708,157.308044 269.367188,160.278002 C267.969509,162.257974 262.411895,156.659574 252.694348,143.482804 L216.345117,125.34188 L226.146326,105.268699 Z M63.7565588,92.1126659 L84.7981502,95.1684576 C62.211867,144.17289 50.1030929,170.089272 48.4718277,172.917603 C44.8014812,179.28135 49.1180552,190.365486 50.8055113,196.233162 C42.2775747,198.695768 45.001109,185.519879 34.2180762,188.806198 C24.3758238,191.805798 16.2538618,198.605739 6.5060168,190.519858 C5.30757653,189.525746 4.29803751,186.275024 8.10723214,184.380976 C17.5973251,179.662213 31.5309757,171.02748 33.6969153,167.845121 C36.6505609,163.505407 46.6704421,138.261255 63.7565588,92.1126659 Z" id="Skin" fill="#B28B67"></path>
                                <path d="M146.099365,10.9421234 L158.712184,5.5104567 C180.181995,47.9828511 210.184587,88.2695996 257.23469,120.399082 L248.016709,140.079361 C207.44361,120.726209 169.373876,106.265546 151.568678,73.4566471 C145.592793,62.4451324 146.89094,24.6644989 146.099365,10.9421234 Z" id="Coat-Back" fill="#C5CFD6" transform="translate(201.667027, 72.794909) rotate(5.000000) translate(-201.667027, -72.794909) "></path>
                                <path d="M106.919993,130.679992 C144.268722,134.639991 173.666269,134.639991 195.112633,130.679992 C197.769694,130.189374 198.18888,125.740749 196.956671,122.72154 C177.767976,75.7045856 164.609628,34.6796501 164.609628,2.02273303 C161.088744,3.79778413 154.926865,4.06379773 146.123991,2.82077381 C122.4664,36.4747769 111.591848,75.088895 106.919993,130.679992 Z" id="Shirt" fill="#323337"></path>
                                <path d="M140.242674,7.0832229e-14 L150.101919,6.48370246e-14 C152.397544,13.5014659 159.638098,196.331942 181.990413,256.139871 L61.0457543,256.139871 C63.6678001,201.350831 84.3514052,135.535812 105.304086,80.4612267 C86.776784,97.4153849 70.6287166,126.142956 56.8598844,166.643941 L34.2056318,160.828635 C51.0498113,88.2459205 85.6814624,34.8973539 138.100585,0.782935741 C138.214094,0.520709504 138.327072,0.259728062 138.439511,7.1942452e-14 L139.312004,7.13873405e-14 C139.63314,-0.206110188 139.954936,-0.411505955 140.277394,-0.616187301 L140.242674,7.20534743e-14 Z" id="Coat-Front" fill="#DDE3E9"></path>
                            </g>
                        </g>
                    </g>
                </g>
            </g>
        </g>
    </g>
</svg>