<?xml version="1.0" encoding="UTF-8"?>
<svg width="302px" height="290px" viewBox="0 0 302 290" version="1.1" xmlns="http://www.w3.org/2000/svg" xmlns:xlink="http://www.w3.org/1999/xlink">
    <!-- Generator: Sketch 52.1 (67048) - http://www.bohemiancoding.com/sketch -->
    <title>Human</title>
    <desc>Created with Sketch.</desc>
    <defs>
        <path d="M160.21978,296.734175 C215.153946,296.734175 261.45713,259.776698 275.627071,209.366448 C278.533371,199.027143 323.604396,164.936819 323.604396,153.668471 C323.604396,87.4602403 226.421121,0.0401924418 160.21978,0.0401924418 C94.018439,0.0401924418 -43.9120879,268.25327 14.4154674,296.734175 C49.2529242,313.745043 72.1061865,258.385992 76.7524362,262.895028 C98.3345762,283.839802 127.771514,296.734175 160.21978,296.734175 Z" id="path-1"></path>
        <path d="M61.0840399,14.3163441 C61.5976268,12.8364951 65.0979727,8.25158664 58.8639444,3.88353394 C57.7436724,3.09858293 55.8929793,3.88095951 54.289463,3.38552341 C53.0829605,3.01275211 52.6762132,1.32954432 51.2931957,1.03589869 C49.8584375,0.731267325 48.2953502,2.11195266 46.6737542,1.99061962 C45.6801373,1.91627399 44.1470401,0.367821131 43.1126352,0.284415336 C41.2660471,0.135521858 39.5885279,1.87851966 37.7850842,1.99061962 C36.7395753,2.05560723 35.5265644,0.37340803 34.4889176,0.284415336 C31.9634387,0.0678202564 29.6633506,1.24518014 27.4378666,1.6022335 C25.3867631,1.93130951 24.4330141,6.13459815 22.9221631,7.12799954 C18.1810568,10.2453298 14.4664231,11.1169563 10.6191797,14.3163441 C6.04578416,18.1197271 5.17046792,20.9493762 3.27582517,23.4838075 C1.38118242,26.0182387 0.210866017,34.9477259 1.31576319,40.6704487 C1.96751788,44.0461579 3.66598756,53.2652966 7.46026918,56.8346423 C12.6536233,61.7201196 23.2191345,63.1676261 24.1570596,62.515795 C28.5008559,59.4969811 38.2380276,42.7999078 45.1439971,36.8988343 C50.2222958,32.5594849 57.9024387,23.4838075 61.0840399,14.3163441 Z" id="path-3"></path>
    </defs>
    <g id="Careers" stroke="none" stroke-width="1" fill="none" fill-rule="evenodd">
        <g transform="translate(-267.000000, -1680.000000)" id="Column">
            <g transform="translate(195.000000, 1673.000000)">
                <g id="Human" transform="translate(63.000000, 0.000000)">
                    <ellipse id="Background" fill="#AADDC7" cx="160.21978" cy="176.853568" rx="119.868132" ry="119.880607"></ellipse>
                    <mask id="mask-2" fill="white">
                        <use xlink:href="#path-1"></use>
                    </mask>
                    <g id="Mask"></g>
                    <g id="A-Human/Standing" mask="url(#mask-2)">
                        <g transform="translate(-18.989011, -18.990987)">
                            <g id="Head/Front/Turban2" transform="translate(97.415994, 0.000000)" stroke-width="1">
                                <g id="Head" transform="translate(64.151996, 36.827998)" fill="#B28B67">
                                    <path d="M9.81558074,40.974268 C4.34138457,34.5486723 0.636334094,26.6740163 1.2554502,17.8502381 C3.03929611,-7.57352395 38.4300519,-1.98062024 45.3142866,10.8511116 C52.1985213,23.6828435 51.3804953,56.2315954 42.4832353,58.5249838 C38.9350203,59.439584 31.3762674,57.1991799 23.6832204,52.5622322 L28.5119982,86.7239944 L0,86.7239944 L9.81558074,40.974268 Z"></path>
                                </g>
                                <g id="Turban" transform="translate(47.519997, 26.135998)">
                                    <mask id="mask-4" fill="white">
                                        <use xlink:href="#path-3"></use>
                                    </mask>
                                    <use id="Path" fill="#FF9B21" xlink:href="#path-3"></use>
                                    <path d="M26.0832002,49.7084183 C29.2024414,42.8004689 33.2133891,33.936015 36.8413122,24.8431214 C39.4428452,18.3227345 42.2104068,9.97308693 45.1439971,-0.205821352 L48.6747001,-0.205821352 C43.1125457,15.6460265 38.9286916,26.7159171 36.1231378,33.0038503 C31.6102105,43.1184259 28.3675699,50.7997289 25.7842149,55.9551193 C30.1120845,49.6110111 36.7682767,39.2625068 43.8640971,25.3464072 C46.5544603,20.0701515 49.7217113,11.9914462 53.3658501,1.11029121 L56.6519344,2.51606704 C51.1348214,16.2883067 46.872209,25.8924278 43.8640971,31.3284303 C34.0589924,49.0473766 24.69639,59.7382959 21.4238258,62.7724852 C20.8575825,63.2974831 20.6682803,63.419736 20.8040302,63.1512445 C20.7590446,63.1442102 20.7260325,63.1171535 20.7045336,63.0706981 C20.4743014,63.4187907 20.2452396,63.72394 20.0160345,63.9860858 C16.7158972,67.7605098 25.1603018,46.7199828 31.3843642,24.6529369 C33.2900797,17.8963351 35.1697045,9.3031388 37.0232386,-1.12665204 L40.5346001,-1.495711 C36.659885,14.8507022 33.6560692,26.2972826 31.5231525,32.8440301 C29.3604691,39.4821435 27.598691,45.105966 26.0832002,49.7084183 Z" id="Shade" fill-opacity="0.2" fill="#000000" mask="url(#mask-4)"></path>
                                </g>
                            </g>
                            <g id="Bottom/Standing/Sprint" transform="translate(0.000000, 222.155986)">
                                <path d="M246.473776,-11.4741808 C223.753501,7.04974139 232.396926,169.461359 230.880411,171.506121 C230.206404,172.414904 194.200255,180.147847 122.861965,194.70495 L125.941202,207.275175 C209.388835,203.133637 253.544442,197.965873 258.408023,191.771882 C265.371278,182.903861 273.977489,133.308088 284.226658,42.9845615 L246.473776,-11.4741808 Z" id="Leg" fill="#B28B67" transform="translate(203.544311, 97.900497) rotate(-55.000000) translate(-203.544311, -97.900497) "></path>
                                <path d="M134.885616,181.476267 L140.309357,201.721523 C202.513165,208.864083 243.520088,200.023024 257.953909,186.292917 C267.576457,177.139513 276.204831,127.678531 283.839032,37.9099712 L243.452556,-19.7678933 C189.368425,21.0351105 221.606309,154.606849 220.224173,157.663132 C218.842037,160.719416 186.037349,163.1361 134.885616,181.476267 Z" id="Pant" fill="#2F3676" transform="translate(209.362324, 92.244175) rotate(-55.000000) translate(-209.362324, -92.244175) "></path>
                                <g id="Accessories/Shoe/Flat-Sneaker" transform="translate(265.380074, 222.487582) rotate(20.000000) translate(-265.380074, -222.487582) translate(229.146076, 198.727583)" fill="#E4E4E4">
                                    <path d="M3.18162038,30.1774841 C1.85254008,33.72543 1.18799992,36.3801134 1.18799992,38.1415345 C1.18799992,40.2838384 1.54489198,43.4099925 2.25867608,47.5199969 C4.74389892,47.5199969 27.0790151,47.5199969 69.2640247,47.5199969 C71.0052561,41.7635519 70.0001163,38.6558325 66.2486053,38.1968386 C62.4970942,37.7378448 59.3806502,37.3234101 56.8992734,36.9535346 L25.7558296,23.0696321 C25.1565678,22.8024782 24.4541991,23.0717048 24.1870452,23.6709666 C24.182475,23.6812183 24.1780502,23.6915343 24.1737723,23.7019114 L22.1718957,28.5579679 C18.6989777,30.1783488 15.8768712,30.9885393 13.7055763,30.9885393 C11.9414508,30.9885393 9.50517844,30.2760657 6.39675935,28.8511186 L6.39676585,28.8511044 C5.20389435,28.3042737 3.7935871,28.8279933 3.24675644,30.0208648 C3.22318724,30.0722793 3.20146137,30.124519 3.18162038,30.1774841 Z" id="shoe"></path>
                                </g>
                                <polygon id="Leg" fill="#997659" points="154.43999 0 92.9657907 147.581559 32.5462209 272.349327 46.801153 272.349327 202.760328 0"></polygon>
                                <g id="Accessories/Shoe/Flat-Sneaker" transform="translate(28.511998, 236.411985)" fill="#E4E4E4">
                                    <path d="M3.18162038,30.1774841 C1.85254008,33.72543 1.18799992,36.3801134 1.18799992,38.1415345 C1.18799992,40.2838384 1.54489198,43.4099925 2.25867608,47.5199969 C4.74389892,47.5199969 27.0790151,47.5199969 69.2640247,47.5199969 C71.0052561,41.7635519 70.0001163,38.6558325 66.2486053,38.1968386 C62.4970942,37.7378448 59.3806502,37.3234101 56.8992734,36.9535346 L25.7558296,23.0696321 C25.1565678,22.8024782 24.4541991,23.0717048 24.1870452,23.6709666 C24.182475,23.6812183 24.1780502,23.6915343 24.1737723,23.7019114 L22.1718957,28.5579679 C18.6989777,30.1783488 15.8768712,30.9885393 13.7055763,30.9885393 C11.9414508,30.9885393 9.50517844,30.2760657 6.39675935,28.8511186 L6.39676585,28.8511044 C5.20389435,28.3042737 3.7935871,28.8279933 3.24675644,30.0208648 C3.22318724,30.0722793 3.20146137,30.124519 3.18162038,30.1774841 Z" id="shoe"></path>
                                </g>
                                <path d="M38.0023935,246.430256 L69.6770104,252.370256 C94.1677352,216.364337 196.662419,68.7279804 207.899987,2.84217094e-14 L137.38515,2.84217094e-14 C99.8571917,49.6833709 61.3471123,209.82873 38.0023935,246.430256 Z" id="Pant" fill="#5C63AB"></path>
                            </g>
                            <g id="Body/Jacket-2" transform="translate(26.135998, 97.415994)">
                                <path d="M235.223985,92.2090941 L278.270648,73.3045539 C285.811419,65.790274 293.093109,60.0790737 300.115717,56.1709532 C302.21561,55.5024172 305.80318,55.3004445 301.975524,60.8911361 C298.147868,66.4818277 294.373182,72.5345401 295.902613,74.4938873 C297.432044,76.4532344 301.862471,74.2906487 303.612798,77.4769315 C304.779682,79.60112 297.311577,82.1420932 281.208482,85.099851 L248.969073,109.817866 L235.223985,92.2090941 Z M61.1918361,97.4159937 L85.5359945,102.246217 C61.0537899,147.871608 47.9244234,172.053092 46.1478949,174.790669 C42.1507058,180.950216 45.8801641,192.238867 47.2578104,198.183548 C38.6152299,200.195355 42.0235982,187.187214 31.0865796,189.903196 C21.1037762,192.382218 12.6395626,198.744272 3.33100733,190.164027 C2.18657515,189.109136 1.34879669,185.811846 5.2507457,184.120682 C14.9719237,179.907376 29.3341453,172.018044 31.6629808,168.955088 C34.838764,164.778199 44.6817157,140.931834 61.1918361,97.4159937 Z" id="Skin" fill="#B28B67"></path>
                                <path d="M146.456924,11.7340894 L156.537046,9.08345881 C180.718709,28.7556269 194.359599,79.906861 209.815838,85.4833023 C224.429087,90.755602 243.787793,82.7228221 266.709741,72.1579655 L275.373692,87.7163816 C255.906857,112.860022 211.818737,136.520846 192.269401,126.925685 C161.014075,111.585016 148.555593,48.1156696 146.456924,11.7340894 Z" id="Coat-Back" fill="#CC3C4F" transform="translate(210.915308, 69.096176) rotate(5.000000) translate(-210.915308, -69.096176) "></path>
                                <path d="M106.919993,135.431991 C148.110036,135.431991 178.408569,135.431991 197.815591,135.431991 C201.969056,135.431991 201.186415,129.434537 200.586006,126.408188 C193.656566,91.4804685 166.606659,53.8300769 166.606659,4.11134733 L140.388089,0 C118.701964,34.8777851 111.202526,77.8194003 106.919993,135.431991 Z" id="Shirt" fill="#DDE3E9"></path>
                                <path d="M97.8540741,100.068999 C79.3243956,133.492976 63.7491981,157.556639 51.1284816,172.259989 L32.0759979,168.528267 C44.3487413,92.4153126 79.8889682,36.2392235 138.696679,6.40551482e-14 L138.995991,5.37119727e-14 L149.077831,0 C172.615109,80.2338887 179.10392,133.693885 168.544264,160.37999 L86.7239944,160.37999 C88.0184726,140.85337 92.1690688,120.203257 97.8540759,100.068995 Z" id="Coat-Front" fill="#FF4B63"></path>
                            </g>
                        </g>
                    </g>
                </g>
            </g>
        </g>
    </g>
</svg>