<?xml version="1.0" encoding="UTF-8"?>
<svg width="291px" height="289px" viewBox="0 0 291 289" version="1.1" xmlns="http://www.w3.org/2000/svg" xmlns:xlink="http://www.w3.org/1999/xlink">
    <!-- Generator: Sketch 52.1 (67048) - http://www.bohemiancoding.com/sketch -->
    <title>Human 3</title>
    <desc>Created with Sketch.</desc>
    <defs>
        <path d="M162.21978,305.737801 C198.20674,305.737801 230.489746,289.877913 252.461599,264.76591 C264.029823,251.54439 294.112681,282.152487 299,264.76591 C300.070566,260.957385 314.478147,213.244346 299,169.663768 C292.738675,152.034256 329.465086,84.3441067 319.764696,65.980684 C288.346484,6.50411012 197.608795,0.0401917551 162.21978,0.0401917551 C72.018439,0.0401917551 -41.9120879,277.257383 16.4154674,305.737801 C51.2529242,322.748378 74.1061865,267.390273 78.7524362,271.899232 C100.334576,292.843648 129.771514,305.737801 162.21978,305.737801 Z" id="path-1"></path>
    </defs>
    <g id="Careers" stroke="none" stroke-width="1" fill="none" fill-rule="evenodd">
        <g transform="translate(-1227.000000, -1681.000000)" id="Column">
            <g transform="translate(1155.000000, 1664.000000)">
                <g id="Human-3" transform="translate(61.000000, 0.000000)">
                    <ellipse id="Background" fill="#D9D0AA" cx="162.21978" cy="185.859243" rx="119.868132" ry="119.878559"></ellipse>
                    <mask id="mask-2" fill="white">
                        <use xlink:href="#path-1"></use>
                    </mask>
                    <g id="Mask"></g>
                    <g id="A-Human/Standing" mask="url(#mask-2)">
                        <g transform="translate(-16.989011, -9.981967)">
                            <g id="Head/Front/Wavy" transform="translate(97.415994, 0.000000)">
                                <g id="Head" stroke-width="1" transform="translate(64.151996, 36.827998)" fill="#B28B67">
                                    <path d="M9.81558074,40.974268 C4.34138457,34.5486723 0.636334094,26.6740163 1.2554502,17.8502381 C3.03929611,-7.57352395 38.4300519,-1.98062024 45.3142866,10.8511116 C52.1985213,23.6828435 51.3804953,56.2315954 42.4832353,58.5249838 C38.9350203,59.439584 31.3762674,57.1991799 23.6832204,52.5622322 L28.5119982,86.7239944 L0,86.7239944 L9.81558074,40.974268 Z"></path>
                                </g>
                                <path d="M112.157999,53.4405523 C111.875574,51.7772933 111.185344,49.9302622 110.628411,48.356663 C109.910381,46.3280861 108.823762,44.4990679 107.627965,42.7752936 C105.376665,39.5299349 102.675951,36.5992961 99.6941012,34.1669468 C94.2473826,29.7240335 87.3139736,27.1613436 80.4958176,27.9935803 C77.0533235,28.4137465 73.7115378,29.726867 70.8672181,31.9125002 C68.2974068,33.8872408 65.8255422,36.7941997 62.497933,37.0030685 C58.8772202,37.2301525 55.5582642,34.0343799 52.6544768,32.0606513 C49.3804437,29.8355516 45.8974454,28.2141878 42.0708974,27.5839385 C35.6605456,26.5284632 29.6384824,28.694262 25.2205721,33.9536254 C20.5193161,39.5503765 17.1018611,47.7579869 20.1892064,55.1736366 C20.7630781,56.5521298 21.5013604,57.7142657 22.560915,58.6774501 C23.5326491,59.5606896 25.0167621,60.5003965 25.4107581,61.9116773 C25.8292407,63.4118081 24.5791319,65.3470822 24.0943696,66.7006812 C23.3999056,68.6400031 22.829716,70.6756637 23.0324215,72.7835783 C23.365477,76.2452943 25.540924,79.5499539 27.838068,81.8252469 C30.1757162,84.1406135 33.0528076,85.4683062 36.1257923,86.0803402 C38.1777014,86.48897 40.2747175,86.7144349 42.3601346,86.5610217 C43.3953867,86.4849222 44.3089419,86.1973229 45.3119747,85.9686197 C46.287391,85.7461907 46.8325415,86.0052527 47.6601172,86.5401753 C51.504524,89.0255513 55.638168,89.9871166 60.077251,89.6175485 C63.8237111,89.3054597 68.1418336,88.3975284 71.1980643,85.8305883 C74.5921373,82.9796919 74.5245688,79.0484261 73.7258984,74.848181 C74.5720693,75.2675377 76.9130315,75.5272068 75.5141616,73.8556498 C74.9599896,73.1936249 73.9129545,72.9242409 73.2019206,72.5348384 C72.3739766,72.0814799 71.5333291,71.4955545 70.890416,70.7560134 C68.294461,67.7699191 70.9163756,61.6928913 74.1791779,60.6914548 C79.0268016,59.2036698 80.1121317,66.0593003 83.5726686,67.8326607 C85.5623484,68.8523125 87.6437151,67.4586399 89.134456,66.0356205 C91.1313161,64.1292885 92.4922593,61.6038387 93.6672511,59.0338628 C94.6351189,56.9174477 95.5357864,54.7712809 96.5222493,52.6653902 C96.9828932,51.6819666 98.5776564,48.9019075 97.7767767,47.7899648 C101.248912,47.0975812 105.116149,48.5404351 108.106468,50.4325996 C109.3424,51.2148454 110.284677,52.0772385 110.943976,53.4581604 C111.085188,53.7540578 111.392653,54.6336542 111.778732,54.66968 C112.497498,54.7368742 112.228881,53.8584922 112.157999,53.4405523" id="hair" fill="#191847"></path>
                            </g>
                            <g id="Bottom/Standing/Skinny-Jeans-Walk" transform="translate(0.000000, 222.155986)">
                                <polygon id="Leg" fill="#1F28CF" points="152.06399 0 209.184974 151.145558 249.222579 262.547983 272.051982 262.547983 217.016327 1.16594726e-13"></polygon>
                                <path d="M137.946545,0 C137.325638,51.861173 137.774528,121.683825 136.327827,124.916586 C135.36336,127.071761 105.36475,151.627168 46.331997,198.582809 L58.0991128,218.591986 C128.184575,173.395475 165.018891,147.786406 168.602062,141.764776 C173.976819,132.732333 200.979174,49.6146035 215.027986,0 L137.946545,0 Z" id="Leg" fill="#2B44FF"></path>
                                <g id="Accessories/Shoe/Flat-Pointy" transform="translate(67.121996, 224.531986) rotate(50.000000) translate(-67.121996, -224.531986) translate(30.887998, 200.771987)" fill="#191847">
                                    <path d="M0,47.5199969 L1.18799992,22.5719985 L26.1359983,22.5719985 C37.9656302,30.887998 53.4096292,37.6199976 72.4679953,42.7679972 L72.4679953,47.5199969 L27.3239982,47.5199969 L11.8799992,45.1439971 L11.8799992,47.5199969 L0,47.5199969 Z" id="Shoe"></path>
                                </g>
                                <g id="Accessories/Shoe/Flat-Pointy" transform="translate(247.103984, 236.411985)" fill="#191847">
                                    <path d="M0,47.5199969 L1.18799992,22.5719985 L26.1359983,22.5719985 C37.9656302,30.887998 53.4096292,37.6199976 72.4679953,42.7679972 L72.4679953,47.5199969 L27.3239982,47.5199969 L11.8799992,45.1439971 L11.8799992,47.5199969 L0,47.5199969 Z" id="Shoe"></path>
                                </g>
                            </g>
                            <g id="Body/Jacket-2" transform="translate(26.135998, 97.415994)">
                                <path d="M235.223985,92.2090941 L278.270648,73.3045539 C285.811419,65.790274 293.093109,60.0790737 300.115717,56.1709532 C302.21561,55.5024172 305.80318,55.3004445 301.975524,60.8911361 C298.147868,66.4818277 294.373182,72.5345401 295.902613,74.4938873 C297.432044,76.4532344 301.862471,74.2906487 303.612798,77.4769315 C304.779682,79.60112 297.311577,82.1420932 281.208482,85.099851 L248.969073,109.817866 L235.223985,92.2090941 Z M61.1918361,97.4159937 L85.5359945,102.246217 C61.0537899,147.871608 47.9244234,172.053092 46.1478949,174.790669 C42.1507058,180.950216 45.8801641,192.238867 47.2578104,198.183548 C38.6152299,200.195355 42.0235982,187.187214 31.0865796,189.903196 C21.1037762,192.382218 12.6395626,198.744272 3.33100733,190.164027 C2.18657515,189.109136 1.34879669,185.811846 5.2507457,184.120682 C14.9719237,179.907376 29.3341453,172.018044 31.6629808,168.955088 C34.838764,164.778199 44.6817157,140.931834 61.1918361,97.4159937 Z" id="Skin" fill="#B28B67"></path>
                                <path d="M146.456924,11.7340894 L156.537046,9.08345881 C180.718709,28.7556269 194.359599,79.906861 209.815838,85.4833023 C224.429087,90.755602 243.787793,82.7228221 266.709741,72.1579655 L275.373692,87.7163816 C255.906857,112.860022 211.818737,136.520846 192.269401,126.925685 C161.014075,111.585016 148.555593,48.1156696 146.456924,11.7340894 Z" id="Coat-Back" fill="#DA3B51" transform="translate(210.915308, 69.096176) rotate(5.000000) translate(-210.915308, -69.096176) "></path>
                                <path d="M106.919993,135.431991 C148.110036,135.431991 178.408569,135.431991 197.815591,135.431991 C201.969056,135.431991 201.186415,129.434537 200.586006,126.408188 C193.656566,91.4804685 166.606659,53.8300769 166.606659,4.11134733 L140.388089,0 C118.701964,34.8777851 111.202526,77.8194003 106.919993,135.431991 Z" id="Shirt" fill="#DDE3E9"></path>
                                <path d="M97.8540741,100.068999 C79.3243956,133.492976 63.7491981,157.556639 51.1284816,172.259989 L32.0759979,168.528267 C44.3487413,92.4153126 79.8889682,36.2392235 138.696679,6.40551482e-14 L138.995991,5.37119727e-14 L149.077831,0 C172.615109,80.2338887 179.10392,133.693885 168.544264,160.37999 L86.7239944,160.37999 C88.0184726,140.85337 92.1690688,120.203257 97.8540759,100.068995 Z" id="Coat-Front" fill="#FF4C64"></path>
                            </g>
                        </g>
                    </g>
                </g>
            </g>
        </g>
    </g>
</svg>