<?xml version="1.0" encoding="UTF-8"?>
<svg width="814px" height="772px" viewBox="0 0 814 772" version="1.1" xmlns="http://www.w3.org/2000/svg" xmlns:xlink="http://www.w3.org/1999/xlink">
    <!-- Generator: Sketch 52.1 (67048) - http://www.bohemiancoding.com/sketch -->
    <title>Image</title>
    <desc>Created with Sketch.</desc>
    <g id="Careers" stroke="none" stroke-width="1" fill="none" fill-rule="evenodd">
        <g transform="translate(-170.000000, -2705.000000)" id="Image">
            <g transform="translate(171.000000, 2705.000000)">
                <g id="Web" transform="translate(108.419240, 0.078078)">
                    <rect id="Container" fill="#F2F2F2" x="0" y="0" width="620.73" height="542.355" rx="12.54"></rect>
                    <path d="M12.54,0 L608.19,-1.77635684e-15 C615.115651,-3.04857825e-15 620.73,5.61434924 620.73,12.54 L620.73,42.3225 L0,42.3225 L1.77635684e-15,12.54 C9.28209236e-16,5.61434924 5.61434924,3.04857825e-15 12.54,1.77635684e-15 Z" id="Header" fill="#C5CFD6"></path>
                    <g id="Buttons" transform="translate(14.107500, 15.675000)" fill="#F2F2F2">
                        <circle id="buttons" cx="6.27" cy="6.27" r="6.27"></circle>
                        <circle id="buttons" cx="25.08" cy="6.27" r="6.27"></circle>
                        <circle id="buttons" cx="43.89" cy="6.27" r="6.27"></circle>
                    </g>
                    <g id="Content" transform="translate(25.080000, 67.402500)">
                        <g id="Components" transform="translate(460.845000, 139.507500)">
                            <rect id="Background" fill="#FFFFFF" x="0" y="0" width="109.725" height="304.095" rx="12.54"></rect>
                            <g id="Rows" transform="translate(28.215000, 28.215000)">
                                <rect id="Data" fill="#DDE3E9" x="0" y="0" width="53.295" height="40.755" rx="6.27"></rect>
                                <rect id="Data" fill="#AFB9C5" x="0" y="53.295" width="53.295" height="39.1875" rx="6.27"></rect>
                                <rect id="Data" fill="#DDE3E9" x="0" y="105.0225" width="53.295" height="39.1875" rx="6.27"></rect>
                                <rect id="Data" fill="#DDE3E9" x="0" y="208.4775" width="53.295" height="39.1875" rx="6.27"></rect>
                                <rect id="Data" fill="#C5CFD6" x="0" y="156.75" width="53.295" height="39.1875" rx="6.27"></rect>
                            </g>
                        </g>
                        <g id="Profile" transform="translate(460.845000, 0.000000)">
                            <rect id="Background" fill="#FFFFFF" x="0" y="0" width="109.725" height="126.9675" rx="12.54"></rect>
                            <g id="Profile-Info" transform="translate(15.675000, 23.512500)" fill="#DDE3E9">
                                <circle id="Avatar" cx="39.1875" cy="25.08" r="25.08"></circle>
                                <rect id="Name" x="0" y="56.43" width="78.375" height="9.405" rx="4.7025"></rect>
                                <rect id="Name" x="12.54" y="72.105" width="53.295" height="9.405" rx="4.7025"></rect>
                            </g>
                        </g>
                        <g id="Rows">
                            <g id="Row">
                                <rect id="Container" fill="#FFFFFF" x="0" y="0" width="448.305" height="73.6725" rx="6.27"></rect>
                                <g id="Text-Stuff" transform="translate(14.107500, 22.101750)" fill="#DDE3E9">
                                    <rect id="Label" x="0" y="0" width="357.39" height="11.050875" rx="4.7025"></rect>
                                    <rect id="Label" x="0" y="18.418125" width="239.891918" height="11.050875" rx="4.7025"></rect>
                                </g>
                                <g id="Check" transform="translate(389.422042, 25.863750)">
                                    <circle id="Background" fill="#DDE3E9" cx="10.9725" cy="10.9725" r="10.9725"></circle>
                                    <circle id="Indicator" fill="#F2F2F2" cx="10.9725" cy="10.9725" r="4.7025"></circle>
                                </g>
                            </g>
                            <g id="Row" transform="translate(0.000000, 86.212500)">
                                <rect id="Container" fill="#FFFFFF" x="0" y="0" width="448.305" height="61.1325" rx="6.27"></rect>
                                <g id="Text-Stuff" transform="translate(14.107500, 18.339750)" fill="#DDE3E9">
                                    <rect id="Label" x="0" y="0" width="357.39" height="9.169875" rx="4.5849375"></rect>
                                    <rect id="Label" x="0" y="15.283125" width="239.891918" height="9.169875" rx="4.5849375"></rect>
                                </g>
                                <g id="Check" transform="translate(389.422042, 19.593750)">
                                    <circle id="Background" fill="#DDE3E9" cx="10.9725" cy="10.9725" r="10.9725"></circle>
                                    <circle id="Indicator" fill="#F2F2F2" cx="10.9725" cy="10.9725" r="4.7025"></circle>
                                </g>
                            </g>
                            <g id="Row" transform="translate(0.000000, 159.885000)">
                                <rect id="Container" fill="#FFFFFF" x="0" y="0" width="448.305" height="61.1325" rx="6.27"></rect>
                                <g id="Text-Stuff" transform="translate(14.107500, 18.339750)" fill="#DDE3E9">
                                    <rect id="Label" x="0" y="0" width="357.39" height="9.169875" rx="4.5849375"></rect>
                                    <rect id="Label" x="0" y="15.283125" width="239.891918" height="9.169875" rx="4.5849375"></rect>
                                </g>
                                <g id="Check" transform="translate(389.422042, 19.593750)">
                                    <circle id="Background" fill="#DDE3E9" cx="10.9725" cy="10.9725" r="10.9725"></circle>
                                    <circle id="Indicator" fill="#AFB9C5" cx="10.9725" cy="10.9725" r="4.7025"></circle>
                                </g>
                            </g>
                            <g id="Row" transform="translate(0.000000, 380.902500)">
                                <rect id="Container" fill="#FFFFFF" x="0" y="0" width="448.305" height="61.1325" rx="6.27"></rect>
                                <g id="Text-Stuff" transform="translate(14.107500, 18.339750)" fill="#DDE3E9">
                                    <rect id="Label" x="0" y="0" width="357.39" height="9.169875" rx="4.5849375"></rect>
                                    <rect id="Label" x="0" y="15.283125" width="239.891918" height="9.169875" rx="4.5849375"></rect>
                                </g>
                                <g id="Check" transform="translate(389.422042, 19.593750)">
                                    <circle id="Background" fill="#DDE3E9" cx="10.9725" cy="10.9725" r="10.9725"></circle>
                                    <circle id="Indicator" fill="#F2F2F2" cx="10.9725" cy="10.9725" r="4.7025"></circle>
                                </g>
                            </g>
                            <g id="Row" transform="translate(0.000000, 307.230000)">
                                <rect id="Container" fill="#FFFFFF" x="0" y="0" width="448.305" height="61.1325" rx="6.27"></rect>
                                <g id="Text-Stuff" transform="translate(14.107500, 18.339750)" fill="#DDE3E9">
                                    <rect id="Label" x="0" y="0" width="357.39" height="9.169875" rx="4.5849375"></rect>
                                    <rect id="Label" x="0" y="15.283125" width="239.891918" height="9.169875" rx="4.5849375"></rect>
                                </g>
                                <g id="Check" transform="translate(389.422042, 19.593750)">
                                    <circle id="Background" fill="#DDE3E9" cx="10.9725" cy="10.9725" r="10.9725"></circle>
                                    <circle id="Indicator" fill="#F2F2F2" cx="10.9725" cy="10.9725" r="4.7025"></circle>
                                </g>
                            </g>
                            <g id="Row" transform="translate(0.000000, 233.557500)">
                                <rect id="Container" fill="#FFFFFF" x="0" y="0" width="448.305" height="61.1325" rx="6.27"></rect>
                                <g id="Text-Stuff" transform="translate(14.107500, 18.339750)" fill="#DDE3E9">
                                    <rect id="Label" x="0" y="0" width="357.39" height="9.169875" rx="4.5849375"></rect>
                                    <rect id="Label" x="0" y="15.283125" width="239.891918" height="9.169875" rx="4.5849375"></rect>
                                </g>
                                <g id="Check" transform="translate(389.422042, 19.593750)">
                                    <circle id="Background" fill="#DDE3E9" cx="10.9725" cy="10.9725" r="10.9725"></circle>
                                    <circle id="Indicator" fill="#F2F2F2" cx="10.9725" cy="10.9725" r="4.7025"></circle>
                                </g>
                            </g>
                        </g>
                    </g>
                </g>
                <g id="Group-3" transform="translate(418.000000, 470.770791) scale(-1, 1) translate(-418.000000, -470.770791) translate(0.000000, 168.770791)">
                    <g id="Humaaan" transform="translate(626.500000, 302.067951) scale(-1, 1) translate(-626.500000, -302.067951) translate(417.000000, 0.567951)">
                        <g id="Head/Front/Chongo" transform="translate(178.875197, 85.641808) rotate(-8.000000) translate(-178.875197, -85.641808) translate(83.950770, 13.295209)">
                            <g id="Head" stroke-width="1" transform="translate(75.504930, 43.226457)" fill="#B28B67">
                                <path d="M11.5526372,48.0930962 C5.10967635,40.5511241 0.748945693,31.3083332 1.47762635,20.9515206 C3.57715821,-8.88934042 45.2309913,-2.32473121 53.3335242,12.7363729 C61.4360571,27.797477 60.4732655,66.0012165 50.0014637,68.6930559 C45.8253235,69.7665577 36.9289034,67.1369081 27.8744233,61.6943417 L33.5577465,101.791334 L0,101.791334 L11.5526372,48.0930962 Z"></path>
                            </g>
                            <path d="M115.583359,39.5591472 C110.997914,38.1647453 104.34146,37.691859 101.541287,38.0117626 C103.134153,34.2058539 103.766226,29.9656137 103.250934,25.8369913 C102.750093,21.8252697 100.952566,18.4094052 99.2901241,14.8299918 C98.5238231,13.1801165 97.6554057,11.5392336 96.360647,10.2772667 C95.0416973,8.99158244 93.3720837,8.14292741 91.6213337,7.7380459 C89.8296943,7.32361 87.9562761,7.35811822 86.1618536,7.73422414 C85.3680433,7.90058301 84.6557976,8.26252595 83.877294,8.46373025 C83.0800583,8.66988036 82.6933219,8.17226502 82.1146624,7.67217678 C80.7201423,6.46719905 78.6757809,5.8723537 76.9115438,5.65945931 C74.9321558,5.42071185 72.8782678,5.71847174 70.9905062,6.36738373 C69.1530536,6.9990978 67.3878531,8.02490254 66.0593768,9.51932222 C65.4678725,10.1845329 64.9309587,10.9416905 64.5820075,11.7776438 C64.4388947,12.1207028 64.4152388,12.3239304 64.0719608,12.4495988 C63.7544795,12.5659376 63.3831569,12.5693097 63.0555067,12.6800283 C59.8873299,13.7501204 57.1785698,16.1913244 55.7036624,19.3257278 C54.843166,21.1543264 54.4355568,24.3738424 54.5471997,27.9823908 C54.6588427,31.5909393 57.9261388,41.0066718 60.9820304,44.4410832 C63.7097366,47.5065825 67.7191426,49.5295288 71.58854,50.4150526 C69.0202167,53.3426314 67.3105701,57.0009528 66.0463179,60.7215464 C64.6730987,64.7630552 63.8231993,68.9623801 63.5093573,73.2410627 C63.2112503,77.3062889 63.1836339,81.6053167 64.1392891,85.5837665 C65.0332891,89.3042477 66.9451347,92.3563709 70.1367533,94.2926532 C71.5987088,95.1796382 73.1716651,95.8459729 74.7537197,96.4549812 C76.3128677,97.0551096 77.8767255,97.6386021 79.5099454,97.9753664 C82.6009462,98.6124759 86.1624959,98.5031062 88.5434988,96.0495377 C89.4016404,95.1650256 90.3454141,94.0535685 90.9714924,92.9730227 C91.196598,92.5844399 91.332325,92.330293 91.0588373,91.9504777 C90.7311871,91.4955761 90.2012309,91.1470093 89.7803487,90.7911363 C87.3801856,88.7621201 85.8944671,86.0533931 85.5199334,82.834349 C85.1399405,79.5682074 86.0197042,75.3524714 89.2039371,73.9270682 C93.1345615,72.167486 97.4632685,74.1871725 100.956848,76.0698378 C102.441603,70.8439213 105.490216,66.1385507 110.269883,63.7414094 C115.557778,61.0894467 121.625567,60.7790975 127.059679,58.5036904 C128.475714,57.9107559 129.917974,57.237677 130.960546,56.0295519 C131.3962,55.5246303 131.907317,54.8696484 132.081257,54.2018525 C132.309788,53.3246467 131.742475,52.5891831 131.304252,51.9053133 C128.980623,48.279252 120.168803,40.953549 115.583359,39.5591472 Z" id="hair" fill="#191847"></path>
                        </g>
                        <g id="Bottom/Standing/Jogging" transform="translate(0.000000, 269.577208)">
                            <polygon id="Leg" fill="#997659" points="181.663245 0 285.499738 172.916404 363.347233 319.102648 380.114893 319.102648 249.680322 7.08550215e-13"></polygon>
                            <g id="Accessories/Shoe/Flat-Sneaker" transform="translate(349.352394, 276.996060)" fill="#E4E4E4">
                                <path d="M3.57827517,35.7678307 C2.11801881,39.7417943 1.38789063,42.7304845 1.38789062,44.7339013 C1.38789062,47.2464801 1.80483268,50.9129575 2.6387168,55.7333333 C5.54209871,55.7333333 31.6352808,55.7333333 80.9182632,55.7333333 C82.9524711,48.9819468 81.7782083,45.3370904 77.3954748,44.7987643 C73.0127414,44.2604381 69.3719302,43.7743727 66.4730414,43.340568 L30.2614431,27.1339499 C29.471265,26.7803031 28.5440117,27.1341817 28.1903649,27.9243598 C28.1837099,27.9392295 28.1772872,27.954202 28.1710989,27.969272 L25.9024985,33.4939151 C21.8452336,35.394362 18.5482846,36.3445855 16.0116516,36.3445855 C14.0152435,36.3445855 11.2820095,35.5604892 7.81194945,33.9922968 L7.81194653,33.9923032 C6.23417378,33.2792748 4.37711253,33.9802887 3.66408414,35.5580614 C3.63296216,35.6269274 3.60434047,35.6968962 3.57827517,35.7678307 Z" id="shoe"></path>
                            </g>
                            <path d="M341.726809,295.693836 L374.062945,285.950256 C359.895603,243.763318 342.531513,197.33814 321.970675,146.674721 C301.409838,96.0113025 279.328264,47.1197288 255.725952,2.84217094e-14 L164.396954,2.84217094e-14 C190.637649,59.6042933 218.456305,113.762445 247.852922,162.474455 C277.249538,211.186465 308.540834,255.592925 341.726809,295.693836 Z" id="Pant" fill="#313346"></path>
                            <path d="M174.839174,2.84217094e-14 C165.038959,60.7640116 146.137028,138.39707 144.353196,140.79285 C143.163974,142.390036 100.351687,156.679827 15.9163334,183.662224 L19.5383503,198.390338 C120.227311,183.919504 173.281806,172.692436 178.701836,164.709134 C186.831881,152.73418 227.426292,58.1317809 243.149266,2.84217094e-14 L174.839174,2.84217094e-14 Z" id="Leg" fill="#B28B67"></path>
                            <path d="M45.5967866,170.930896 L51.9765749,194.651589 C127.286051,201.230846 173.42983,196.476919 190.407913,180.389809 C207.385995,164.3027 226.735998,104.172763 248.45792,-1.13686838e-13 L161.370267,-1.13686838e-13 C147.607768,85.3034758 139.913636,129.745687 138.287869,133.326632 C136.662103,136.907577 105.765075,149.442332 45.5967866,170.930896 Z" id="Pant" fill="#595B6A"></path>
                            <g id="Accessories/Shoe/Flat-Sneaker" transform="translate(34.236535, 214.358760) rotate(80.000000) translate(-34.236535, -214.358760) translate(-8.384457, 186.519960)" fill="#E4E4E4">
                                <path d="M3.57827517,35.7678307 C2.11801881,39.7417943 1.38789063,42.7304845 1.38789062,44.7339013 C1.38789062,47.2464801 1.80483268,50.9129575 2.6387168,55.7333333 C5.54209871,55.7333333 31.6352808,55.7333333 80.9182632,55.7333333 C82.9524711,48.9819468 81.7782083,45.3370904 77.3954748,44.7987643 C73.0127414,44.2604381 69.3719302,43.7743727 66.4730414,43.340568 L30.2614431,27.1339499 C29.471265,26.7803031 28.5440117,27.1341817 28.1903649,27.9243598 C28.1837099,27.9392295 28.1772872,27.954202 28.1710989,27.969272 L25.9024985,33.4939151 C21.8452336,35.394362 18.5482846,36.3445855 16.0116516,36.3445855 C14.0152435,36.3445855 11.2820095,35.5604892 7.81194945,33.9922968 L7.81194653,33.9923032 C6.23417378,33.2792748 4.37711253,33.9802887 3.66408414,35.5580614 C3.63296216,35.6269274 3.60434047,35.6968962 3.57827517,35.7678307 Z" id="shoe"></path>
                            </g>
                        </g>
                        <g id="Body/Pointing-Forward" transform="translate(202.796429, 255.792809) rotate(-8.000000) translate(-202.796429, -255.792809) translate(24.115153, 125.708059)">
                            <path d="M221.380175,59.3941291 L269.817849,32.951491 C277.872737,23.4174645 285.809046,16.012957 293.626775,10.7379687 C296.015621,9.74391561 300.193109,9.14224369 296.286364,16.0537242 C292.37962,22.9652046 288.582162,30.4101728 290.572495,32.5394504 C292.562827,34.6687279 297.5259,31.694221 299.900336,35.2320338 C301.483294,37.5905756 293.004277,41.3164077 274.463286,46.4095301 L239.267413,78.5300753 L221.380175,59.3941291 Z M297.242562,81.7045108 L318.519161,70.0543767 C321.504569,58.7315864 325.073261,53.0347077 329.225236,52.9637407 C332.414816,51.4844991 326.860184,65.7919021 332.906619,64.5511666 C338.953055,63.3104311 353.710676,52.3704375 356.253487,54.5916696 C360.015413,57.8778393 356.661049,67.9682846 352.708811,72.9877408 C345.322083,82.3690982 339.206191,85.5772394 324.089814,89.7783195 C316.186192,91.9748611 307.640978,96.3776396 298.454173,102.986655 L297.242562,81.7045108 Z" id="Skin" fill="#997659"></path>
                            <path d="M199.355988,48.3187515 C216.141046,50.7963691 239.045444,50.807907 265.277695,39.4989986 L271.344804,61.7955074 C252.321839,75.4590642 227.079759,85.1628935 206.949279,81.3943419 C191.085351,78.4245156 185.984236,57.9232322 199.355988,48.3187515 Z" id="Sleeve" fill="#2026A2" transform="translate(231.513383, 60.856063) rotate(-9.000000) translate(-231.513383, -60.856063) "></path>
                            <path d="M220.635294,87.2980922 C238.646784,91.7753983 268.850938,86.4954172 311.247757,71.458149 C321.76392,93.1432836 326.625279,108.603122 325.831833,117.837663 C289.461608,136.774127 258.289186,145.216928 232.607274,145.774282 C233.423411,160.963291 231.568588,175.415984 225.337679,188.621882 C212.527986,215.77097 137.52012,190.627888 112.300176,195.57666 C96.5067064,144.452579 127.043859,123.675958 127.068429,90.9637909 C127.095337,55.1404818 155.953837,-1.42108547e-13 160.199787,-1.42108547e-13 L198.920514,2.15749975e-13 C201.056963,27.3587331 211.810306,57.5104275 220.635294,87.2980922 Z" id="Clothes" fill="#1F28CF"></path>
                        </g>
                    </g>
                    <g id="Humaaan">
                        <g id="Head/Front/Airy" transform="translate(230.339162, 83.603002) rotate(7.000000) translate(-230.339162, -83.603002) translate(135.414734, 11.256403)">
                            <g id="Head" stroke-width="1" transform="translate(75.504930, 43.226457)" fill="#B28B67">
                                <path d="M11.5526372,48.0930962 C5.10967635,40.5511241 0.748945693,31.3083332 1.47762635,20.9515206 C3.57715821,-8.88934042 45.2309913,-2.32473121 53.3335242,12.7363729 C61.4360571,27.797477 60.4732655,66.0012165 50.0014637,68.6930559 C45.8253235,69.7665577 36.9289034,67.1369081 27.8744233,61.6943417 L33.5577465,101.791334 L0,101.791334 L11.5526372,48.0930962 Z"></path>
                            </g>
                            <path d="M109.711389,38.604373 C105.288575,37.8810703 93.3799542,37.3837797 91.1837917,37.3841007 C89.7803402,37.3841007 88.2594263,37.7038564 87.428203,36.4187341 C86.7474985,35.3663657 86.9968655,33.5865211 86.7937133,32.3652857 C86.5578256,30.9466109 86.2227688,29.5462353 85.8838608,28.1493912 C84.9194492,24.1745976 83.4611177,20.3930699 81.420609,16.8426909 C77.591847,10.1817574 71.9828551,4.96421876 64.9017315,1.92814548 C57.082135,-1.42415199 48.2336189,-2.19175812 39.822538,-1.51179585 C30.8215775,-0.784319687 22.6736639,2.17887756 14.1752885,4.96742916 C6.07679897,7.62467549 -2.40552959,8.67062312 -10.8756626,7.37298029 C-19.4096618,6.06570628 -25.8579004,1.4530066 -33.0561655,-2.925013 C-40.4251684,-7.40704948 -48.8465192,-10.3384638 -57.5579958,-9.66460127 C-65.6898626,-9.03536329 -73.1846723,-5.68691829 -79.9089155,-1.21387092 C-86.2002165,2.97120376 -91.3913503,8.0063918 -94.3221344,15.0930241 C-97.475006,22.7161139 -97.4721175,31.0836949 -92.2874025,37.8207149 C-84.7723739,47.5861031 -70.8209814,50.1114021 -59.2140236,49.860349 C-52.5003713,49.71556 -45.9067488,48.4933616 -39.5682703,46.270161 C-31.1151468,43.3050376 -23.8103311,38.2794807 -15.9021564,34.2019544 C-12.1908568,32.2885572 -8.35471327,30.7170675 -4.33371082,29.5850812 C-0.431775498,28.486162 3.41142861,27.9821295 6.94428796,30.3327828 C10.6815833,32.819557 14.0305466,35.2623488 18.306051,36.8190707 C22.4076082,38.3125478 26.7521138,39.1478933 31.1219733,39.1141842 C39.6241998,39.048692 48.0054337,36.4068556 56.2631073,34.6372843 C62.9969786,33.1945315 70.2019833,31.7565943 77.0671173,33.1434862 C79.9317887,33.7223209 84.1161474,34.917231 85.1508438,37.886207 C67.7365559,41.0336811 60.8971128,62.5112429 65.806465,78.2778279 C68.4561095,86.7876296 84.3834867,96.7354978 90.5762605,92.2617665 C94.4995609,89.4275291 92.1177143,85.7066886 90.5762605,83.2504132 C87.6242947,78.5465382 86.6143103,72.5042484 92.0766346,69.2293215 C96.7882905,66.4048134 101.742272,73.1122705 101.835985,73.1048866 C103.130961,73.003117 114.320672,66.6922121 122.030179,57.4830014 C129.635637,57.9326075 130.789495,52.9315281 128.973461,48.841585 C127.157426,44.7516419 115.822325,39.6044119 109.711389,38.604373 Z" id="hair" fill="#191847"></path>
                        </g>
                        <g id="Bottom/Standing/Sprint" transform="translate(0.000000, 270.145159)">
                            <path d="M289.500635,-13.7100684 C262.885701,8.00187384 273.377333,198.814608 271.602609,201.213423 C270.813842,202.279564 228.588825,211.285998 144.927558,228.232726 L148.567254,243.006335 C246.457507,238.32155 298.248866,232.346204 303.94133,225.080296 C312.091308,214.677598 322.080671,156.433278 333.909418,50.3473368 L289.500635,-13.7100684 Z" id="Leg" fill="#B28B67" transform="translate(239.418488, 114.648133) rotate(-55.000000) translate(-239.418488, -114.648133) "></path>
                            <path d="M159.075222,212.710121 L165.482048,236.505091 C238.47385,245.030415 286.563285,234.733033 303.467076,218.634729 C314.73627,207.902527 324.751925,149.816602 333.514042,44.3769544 L286.008611,-23.4678312 C222.646378,24.3487521 260.756204,181.332701 259.141319,184.920099 C257.526434,188.507496 219.045812,191.275549 159.075222,212.710121 Z" id="Pant" fill="#2F3676" transform="translate(246.294632, 108.052856) rotate(-55.000000) translate(-246.294632, -108.052856) "></path>
                            <g id="Accessories/Shoe/Flat-Sneaker" transform="translate(312.158822, 260.681300) rotate(20.000000) translate(-312.158822, -260.681300) translate(269.537830, 232.842500)" fill="#E4E4E4">
                                <path d="M3.57827517,35.7678307 C2.11801881,39.7417943 1.38789063,42.7304845 1.38789062,44.7339013 C1.38789062,47.2464801 1.80483268,50.9129575 2.6387168,55.7333333 C5.54209871,55.7333333 31.6352808,55.7333333 80.9182632,55.7333333 C82.9524711,48.9819468 81.7782083,45.3370904 77.3954748,44.7987643 C73.0127414,44.2604381 69.3719302,43.7743727 66.4730414,43.340568 L30.2614431,27.1339499 C29.471265,26.7803031 28.5440117,27.1341817 28.1903649,27.9243598 C28.1837099,27.9392295 28.1772872,27.954202 28.1710989,27.969272 L25.9024985,33.4939151 C21.8452336,35.394362 18.5482846,36.3445855 16.0116516,36.3445855 C14.0152435,36.3445855 11.2820095,35.5604892 7.81194945,33.9922968 L7.81194653,33.9923032 C6.23417378,33.2792748 4.37711253,33.9802887 3.66408414,35.5580614 C3.63296216,35.6269274 3.60434047,35.6968962 3.57827517,35.7678307 Z" id="shoe"></path>
                            </g>
                            <polygon id="Leg" fill="#997659" points="181.663245 0 109.352941 172.916404 38.2831681 319.102648 55.0508278 319.102648 238.501045 0"></polygon>
                            <g id="Accessories/Shoe/Flat-Sneaker" transform="translate(33.537830, 276.996060)" fill="#E4E4E4">
                                <path d="M3.57827517,35.7678307 C2.11801881,39.7417943 1.38789063,42.7304845 1.38789062,44.7339013 C1.38789062,47.2464801 1.80483268,50.9129575 2.6387168,55.7333333 C5.54209871,55.7333333 31.6352808,55.7333333 80.9182632,55.7333333 C82.9524711,48.9819468 81.7782083,45.3370904 77.3954748,44.7987643 C73.0127414,44.2604381 69.3719302,43.7743727 66.4730414,43.340568 L30.2614431,27.1339499 C29.471265,26.7803031 28.5440117,27.1341817 28.1903649,27.9243598 C28.1837099,27.9392295 28.1772872,27.954202 28.1710989,27.969272 L25.9024985,33.4939151 C21.8452336,35.394362 18.5482846,36.3445855 16.0116516,36.3445855 C14.0152435,36.3445855 11.2820095,35.5604892 7.81194945,33.9922968 L7.81194653,33.9923032 C6.23417378,33.2792748 4.37711253,33.9802887 3.66408414,35.5580614 C3.63296216,35.6269274 3.60434047,35.6968962 3.57827517,35.7678307 Z" id="shoe"></path>
                            </g>
                            <path d="M44.7011044,288.734136 L81.95903,295.693836 C110.766754,253.506898 231.328253,80.5262888 244.546676,2.84217094e-14 L161.602135,2.84217094e-14 C117.459095,58.2123533 72.1608144,245.849345 44.7011044,288.734136 Z" id="Pant" fill="#5C63AB"></path>
                        </g>
                        <g id="Body/Jacket-2" transform="translate(209.392120, 254.145430) rotate(7.000000) translate(-209.392120, -254.145430) translate(30.710844, 124.060681)">
                            <path d="M276.309988,107.961925 L326.875506,85.8277682 C335.733407,77.0297626 344.286971,70.3428715 352.536201,65.7670948 C355.002878,64.9843474 359.217079,64.7478701 354.720856,71.2936651 C350.224632,77.8394601 345.790631,84.9262067 347.587204,87.2202851 C349.383777,89.5143635 354.588057,86.9823256 356.644109,90.712947 C358.01481,93.200028 349.242269,96.1750963 330.326485,99.638152 L292.455897,128.578947 L276.309988,107.961925 Z M71.8800656,114.058362 L100.476359,119.713771 C71.7179073,173.13372 56.2952661,201.446324 54.2084357,204.651583 C49.5130673,211.863416 53.8939411,225.080599 55.5122175,232.040858 C45.3600585,234.396359 49.3637581,219.165931 36.516397,222.345906 C24.7899216,225.24844 14.8472844,232.697375 3.9128263,222.651297 C2.56849893,221.416191 1.58438773,217.555598 6.16788071,215.575519 C17.5870332,210.642419 34.4578693,201.405289 37.1934768,197.819062 C40.9239663,192.928602 52.4861626,165.008368 71.8800656,114.058362 Z" id="Skin" fill="#B28B67"></path>
                            <path d="M172.058219,13.7590044 L183.8996,10.6521164 C212.297772,33.6775734 228.303878,93.5643422 246.457518,100.088476 C263.621049,106.25678 286.363202,96.8450246 313.291717,84.4673589 L323.463554,102.681318 C300.5887,132.127655 248.793231,159.845998 225.833018,148.617837 C189.124411,130.666343 174.511301,56.356307 172.058219,13.7590044 Z" id="Coat-Back" fill="#DA3B51" transform="translate(247.760887, 80.911315) rotate(5.000000) translate(-247.760887, -80.911315) "></path>
                            <path d="M125.595449,158.568942 C173.980057,158.568942 209.570761,158.568942 232.36756,158.568942 C237.246501,158.568942 236.327158,151.546893 235.621877,148.003529 C227.482088,107.108822 195.70744,63.0263076 195.70744,4.8137223 L164.909336,0 C139.435349,40.8362413 130.626002,91.1139226 125.595449,158.568942 Z" id="Shirt" fill="#DDE3E9"></path>
                            <path d="M114.946008,117.164602 C93.1797953,156.298669 74.8841159,184.473324 60.0589694,201.688567 L37.6786347,197.319325 C52.0950283,108.203374 93.8429804,42.4302653 162.922491,9.1992504e-14 L163.274084,7.98823195e-14 L175.116894,0 C202.765371,93.9408978 210.387567,156.533901 197.983481,187.77901 L101.871864,187.77901 C103.392446,164.916499 108.268016,140.738559 114.94601,117.164597 Z" id="Coat-Front" fill="#FF4C64"></path>
                        </g>
                    </g>
                </g>
                <g transform="translate(357.291834, 264.897618) rotate(-14.000000) translate(-357.291834, -264.897618) translate(278.291834, 212.397618)">
                    <path d="M79.67295,84.5960453 C79.669815,84.6038828 79.66668,84.6117203 79.6619775,84.6211253 C79.66668,84.6132878 79.67295,84.5819378 79.67295,84.5960453" id="Fill-35" fill="#C5CFD6"></path>
                    <path d="M79.6656505,84.6079563 C79.6656505,84.6095238 79.664083,84.6126588 79.664083,84.6157938 C79.664083,84.6079563 79.6781905,84.5844438 79.6656505,84.6079563" id="Fill-37" fill="#C5CFD6"></path>
                    <path d="M79.7200871,84.4753509 C79.7091146,84.5067009 79.6950071,84.5364834 79.6824671,84.5678334 C79.6887371,84.5521584 79.6950071,84.5396184 79.7012771,84.5239434 C79.5382571,84.9314934 79.6417121,84.6665859 79.7200871,84.4753509" id="Fill-39" fill="#C5CFD6"></path>
                    <path d="M79.6850003,84.5697522 C79.6787303,84.5838597 79.6724603,84.5995347 79.6661903,84.6136422 C79.6207328,84.7014222 79.6850003,84.5697522 79.6850003,84.5697522" id="Fill-41" fill="#C5CFD6"></path>
                    <polygon id="Fill-43" fill="#C5CFD6" points="79.6674638 84.6075681 79.6674638 84.6075681 79.6674638 84.6060006"></polygon>
                    <path d="M79.66668,84.6083519 C79.66668,84.6067844 79.66668,84.6067844 79.6682475,84.6052169 C79.66668,84.6067844 79.66668,84.6067844 79.66668,84.6083519" id="Fill-45" fill="#C5CFD6"></path>
                    <path d="M79.6592436,84.6195994 C79.6498386,84.6384094 79.7031336,84.5474944 79.6592436,84.6195994" id="Fill-47" fill="#C5CFD6"></path>
                    <path d="M79.6658963,84.6083519 L79.6690313,84.6052169 C79.6674638,84.6067844 79.6674638,84.6083519 79.6658963,84.6083519" id="Fill-49" fill="#C5CFD6"></path>
                    <rect id="Photo-Background" fill="#0E1529" x="0.900584589" y="0.282915601" width="156.75" height="103.455" rx="6.27"></rect>
                    <g id="icons8-night_landscape" transform="translate(14.197834, 30.495107)" fill="#000000" fill-opacity="0.2">
                        <polygon id="Mountains" points="45.9457887 0 0.738635281 73.6725 91.1529421 73.6725"></polygon>
                        <polygon id="Mountains" points="92.556891 19.7337054 52.5911466 73.6725 132.522635 73.6725"></polygon>
                    </g>
                    <circle id="Sun" fill="#FFFFFF" cx="123.858483" cy="36.0595864" r="14.89125"></circle>
                </g>
            </g>
        </g>
    </g>
</svg>